{"glyphs":{"0":{"ha":793,"x_min":63,"x_max":732,"o":"m 125 533 q 137 359 125 450 q 178 192 149 268 q 255 66 207 115 q 376 17 303 17 q 480 46 428 17 q 574 140 532 75 q 643 307 617 204 q 669 558 669 410 q 665 671 669 610 q 651 794 661 732 q 622 915 640 857 q 574 1019 603 974 q 506 1092 546 1065 q 413 1119 467 1119 q 283 1067 338 1119 q 193 929 228 1014 q 142 740 158 844 q 125 533 125 636 m 63 507 q 71 658 63 581 q 97 808 79 735 q 142 945 114 881 q 208 1058 169 1010 q 296 1134 246 1106 q 410 1163 346 1163 q 520 1135 472 1163 q 603 1062 568 1108 q 664 954 639 1015 q 703 826 689 893 q 725 688 718 758 q 732 554 732 618 q 697 281 732 392 q 610 101 663 169 q 495 3 557 33 q 379 -26 433 -26 q 274 0 329 -26 q 171 88 218 26 q 93 252 124 150 q 63 507 63 354 z "},"1":{"ha":444,"x_min":26,"x_max":406,"o":"m 260 43 l 365 43 q 393 36 381 43 q 406 18 406 29 q 378 0 406 0 l 83 0 q 45 3 64 0 q 26 18 26 7 q 40 35 26 31 q 67 39 54 39 q 103 40 81 39 q 146 47 125 40 q 182 66 167 53 q 197 103 197 79 q 201 206 199 158 q 205 311 203 254 q 209 444 207 368 q 214 635 211 521 q 217 786 215 725 q 219 892 218 847 q 219 974 219 938 q 221 1049 219 1010 q 220 1063 221 1054 q 217 1078 219 1071 q 208 1090 214 1085 q 189 1096 201 1096 q 167 1096 182 1096 q 133 1095 151 1096 q 96 1094 114 1094 q 67 1094 78 1094 q 26 1113 26 1094 q 64 1136 26 1133 q 100 1137 72 1136 q 159 1138 128 1138 q 217 1140 190 1139 q 253 1140 244 1140 q 276 1129 272 1140 q 281 1100 281 1118 l 260 43 z "},"2":{"ha":736,"x_min":22,"x_max":703,"o":"m 657 172 q 686 190 668 190 q 703 175 703 190 q 701 165 703 169 q 691 147 699 160 q 668 107 683 133 q 625 31 653 81 q 609 11 619 22 q 583 0 599 0 q 502 1 540 0 q 427 2 464 1 q 352 3 390 3 q 272 4 314 4 l 79 4 q 65 -6 74 -3 q 49 -8 56 -8 q 29 0 36 -8 q 22 19 22 8 q 31 38 22 31 q 51 56 40 46 q 158 148 100 92 q 276 272 217 204 q 390 416 335 339 q 487 572 444 493 q 555 726 529 650 q 581 872 581 803 q 570 953 581 911 q 537 1031 560 996 q 476 1088 514 1065 q 383 1111 438 1111 q 272 1083 322 1111 q 185 1019 221 1056 q 128 947 149 982 q 108 899 108 913 q 115 883 108 889 q 128 870 121 876 q 141 856 135 864 q 147 836 147 849 q 142 809 147 819 q 129 793 136 799 q 115 786 122 788 q 104 785 108 785 q 74 794 85 785 q 56 815 63 803 q 49 838 50 826 q 47 856 47 850 q 70 940 47 889 q 138 1038 93 990 q 247 1120 182 1086 q 397 1154 313 1154 q 511 1131 464 1154 q 588 1070 558 1108 q 630 980 617 1032 q 643 869 643 928 q 616 718 643 796 q 544 563 589 640 q 444 411 500 485 q 331 271 389 338 q 218 149 272 204 q 124 53 164 93 q 240 49 171 50 q 376 47 310 49 q 494 46 443 46 q 556 46 544 46 q 573 51 565 46 q 592 74 581 57 l 657 172 z "},"3":{"ha":707,"x_min":28,"x_max":650,"o":"m 154 564 q 216 604 176 582 q 302 653 256 626 q 396 714 349 681 q 482 788 443 747 q 546 875 521 828 q 571 979 571 922 q 556 1043 571 1017 q 519 1085 542 1069 q 466 1109 496 1101 q 407 1117 436 1117 q 249 1058 319 1117 q 139 892 179 999 q 119 847 129 865 q 93 828 108 828 q 74 841 76 828 q 71 861 71 854 q 93 945 71 894 q 159 1044 115 996 q 267 1126 203 1092 q 418 1161 332 1161 q 476 1156 440 1161 q 547 1134 513 1151 q 608 1082 582 1117 q 633 988 633 1047 q 608 875 633 926 q 545 781 583 824 q 462 704 507 738 q 378 647 417 671 q 312 608 339 622 q 282 590 285 594 q 313 596 285 590 q 371 601 342 601 q 480 586 429 601 q 568 542 531 571 q 628 469 606 513 q 650 367 650 425 q 613 228 650 297 q 515 102 576 158 q 376 10 454 46 q 214 -25 297 -25 q 149 -19 182 -25 q 88 1 115 -12 q 44 34 61 14 q 28 82 28 54 q 31 99 28 89 q 49 108 33 108 q 63 102 58 108 q 78 82 67 96 q 131 36 97 57 q 217 15 165 15 q 336 42 271 15 q 457 116 401 69 q 550 225 513 163 q 588 360 588 288 q 567 452 588 415 q 514 512 547 489 q 440 544 481 535 q 357 554 399 554 q 288 547 319 554 q 229 529 256 539 q 183 512 203 519 q 154 504 164 504 q 140 510 147 504 q 132 528 132 515 q 140 551 132 542 q 154 564 149 560 z "},"4":{"ha":769,"x_min":-11,"x_max":742,"o":"m 571 339 q 566 263 568 307 q 562 178 564 219 q 558 104 560 136 q 557 63 557 72 q 567 49 557 53 q 591 42 576 44 q 623 40 606 40 q 656 40 640 40 q 686 38 669 40 q 703 21 703 36 q 693 7 703 14 q 656 0 683 0 l 315 0 q 293 4 303 0 q 283 19 283 8 q 311 35 283 35 q 344 36 325 35 q 383 39 364 38 q 416 42 401 40 q 436 43 431 43 q 485 57 467 46 q 504 96 503 68 l 517 339 q 191 330 304 335 q 47 325 78 325 q 6 336 24 325 q -11 367 -11 347 q -8 384 -11 375 q 3 404 -6 393 q 120 563 69 493 q 213 690 171 632 q 292 796 256 747 q 365 893 328 844 q 442 994 401 942 q 532 1108 482 1046 q 549 1128 536 1115 q 585 1140 561 1140 q 606 1136 596 1140 q 615 1117 615 1132 q 613 1074 615 1114 q 607 970 611 1033 q 598 829 603 907 q 589 672 593 751 q 581 517 585 592 q 575 389 576 443 l 706 383 q 735 376 728 382 q 742 360 742 371 q 734 346 742 353 q 715 339 726 339 l 571 339 m 76 372 q 130 374 82 372 q 244 377 178 375 q 385 383 311 379 q 519 389 460 386 l 561 1060 l 74 411 q 63 399 71 407 q 56 383 56 390 q 76 372 56 372 z "},"5":{"ha":725,"x_min":44,"x_max":686,"o":"m 583 1128 q 623 1123 603 1128 q 643 1100 643 1118 q 628 1081 643 1088 q 590 1074 613 1074 q 538 1074 571 1074 q 465 1072 506 1074 q 381 1069 425 1071 q 299 1065 338 1068 q 228 1057 260 1061 q 182 1047 197 1053 l 136 643 q 174 652 146 646 q 240 665 203 658 q 321 678 278 672 q 401 683 364 683 q 535 654 481 683 q 622 581 589 625 q 671 481 656 536 q 686 374 686 425 q 661 236 686 306 q 583 110 636 167 q 448 19 531 54 q 250 -17 365 -17 q 207 -14 240 -17 q 138 4 174 -11 q 73 52 101 19 q 44 144 44 85 q 53 190 44 171 q 73 221 61 210 q 99 238 85 232 q 125 243 113 243 q 156 233 142 243 q 171 196 171 222 q 158 166 171 172 q 131 158 146 160 q 103 153 115 157 q 90 129 90 149 q 106 83 90 101 q 149 52 122 64 q 207 35 175 40 q 272 29 239 29 q 431 60 364 29 q 540 140 497 90 q 603 253 583 190 q 624 381 624 317 q 613 469 624 424 q 576 549 603 514 q 503 608 549 585 q 388 631 458 631 q 307 624 347 631 q 231 609 267 617 q 167 594 194 601 q 125 588 139 588 q 93 602 106 588 q 81 639 81 617 q 82 665 81 647 q 86 701 83 683 q 99 800 94 760 q 108 880 104 840 q 116 965 113 919 q 124 1076 119 1010 q 150 1103 126 1099 q 247 1113 186 1108 q 374 1122 308 1118 q 497 1126 439 1125 q 583 1128 554 1128 z "},"6":{"ha":706,"x_min":53,"x_max":686,"o":"m 492 1103 q 411 1036 454 1079 q 325 935 368 993 q 242 808 282 876 q 171 667 201 739 q 118 501 132 575 q 104 361 104 428 q 105 334 104 342 q 108 321 106 326 q 147 428 119 379 q 215 510 174 476 q 308 564 256 544 q 424 583 361 583 q 560 551 508 583 q 640 474 613 519 q 677 380 668 429 q 686 297 686 331 q 672 200 686 256 q 622 94 657 144 q 529 10 588 44 q 383 -25 471 -25 q 265 -6 324 -25 q 158 58 206 14 q 82 175 111 103 q 53 353 53 247 q 92 598 53 475 q 190 827 131 721 q 319 1016 249 933 q 450 1142 389 1099 q 465 1151 457 1147 q 485 1154 474 1154 q 513 1132 513 1154 q 505 1113 513 1121 q 492 1103 497 1106 m 375 18 q 470 37 425 18 q 549 91 515 56 q 603 175 583 126 q 624 285 624 224 q 614 367 624 322 q 581 449 604 411 q 519 511 558 486 q 419 536 479 536 q 317 515 367 536 q 228 457 267 494 q 165 367 189 419 q 140 250 140 314 q 162 144 140 189 q 217 72 183 100 q 293 31 251 44 q 375 18 335 18 z "},"7":{"ha":622,"x_min":13,"x_max":646,"o":"m 19 25 q 251 465 157 286 q 408 758 346 643 q 503 936 469 874 q 551 1028 536 999 q 569 1065 567 1058 q 572 1075 572 1072 q 553 1093 572 1093 q 310 1088 431 1093 q 60 1083 190 1083 q 44 1090 50 1083 q 39 1103 39 1096 q 51 1122 39 1118 q 93 1125 64 1125 q 147 1126 108 1125 q 234 1129 185 1128 q 338 1133 283 1131 q 442 1136 393 1135 q 530 1139 492 1138 q 585 1140 568 1140 q 633 1126 621 1140 q 646 1096 646 1113 q 642 1081 646 1089 q 635 1067 639 1074 l 72 7 q 56 -19 63 -12 q 32 -26 49 -26 q 13 -10 13 -26 q 15 8 13 -1 q 19 25 17 18 z "},"8":{"ha":746,"x_min":56,"x_max":688,"o":"m 56 265 q 78 382 56 331 q 133 472 100 433 q 203 537 165 511 q 269 578 240 563 q 205 617 238 592 q 146 679 172 643 q 103 760 119 715 q 86 857 86 806 q 108 969 86 915 q 171 1064 131 1022 q 267 1131 211 1106 q 392 1156 324 1156 q 515 1129 463 1156 q 601 1061 567 1103 q 653 969 636 1019 q 669 868 669 918 q 647 758 669 807 q 592 671 625 708 q 523 610 560 633 q 457 578 486 586 q 537 538 496 567 q 611 470 578 510 q 666 381 644 431 q 688 276 688 331 q 663 163 688 218 q 594 66 638 108 q 492 -2 550 24 q 369 -28 435 -28 q 258 -10 314 -28 q 157 44 201 8 q 84 136 113 81 q 56 265 56 192 m 118 275 q 134 177 118 224 q 181 94 150 131 q 257 37 213 58 q 360 15 301 15 q 459 33 411 15 q 543 86 507 51 q 601 171 579 121 q 622 283 622 221 q 600 394 622 346 q 542 476 578 443 q 462 527 507 510 q 372 544 417 544 q 282 527 328 544 q 200 476 236 510 q 141 392 164 442 q 118 275 118 342 m 149 850 q 169 744 149 789 q 222 669 190 699 q 294 624 254 639 q 372 610 335 610 q 458 628 415 610 q 533 680 500 646 q 587 763 567 714 q 607 872 607 811 q 599 948 607 906 q 566 1026 590 990 q 499 1088 542 1063 q 390 1113 457 1113 q 278 1088 324 1113 q 203 1025 232 1064 q 161 940 174 986 q 149 850 149 893 z "},"9":{"ha":721,"x_min":21,"x_max":669,"o":"m 274 -11 q 235 -26 254 -26 q 218 -23 229 -26 q 207 -4 207 -19 q 215 19 207 11 q 239 39 224 28 q 364 150 304 82 q 472 301 424 218 q 556 473 521 383 q 606 649 590 563 q 469 515 547 558 q 319 471 390 471 q 204 495 258 471 q 110 563 150 519 q 45 669 69 607 q 21 807 21 732 q 40 927 21 865 q 101 1039 60 989 q 205 1121 142 1089 q 356 1153 268 1153 q 508 1119 447 1153 q 604 1035 568 1085 q 655 926 640 985 q 669 821 669 868 q 658 681 669 751 q 627 542 646 610 q 583 413 608 474 q 531 301 557 351 q 395 106 464 179 q 274 -11 326 32 m 347 1110 q 256 1092 303 1110 q 171 1036 210 1074 q 108 940 132 999 q 83 800 83 882 q 97 691 83 742 q 140 603 111 640 q 213 544 169 565 q 317 522 257 522 q 451 557 396 522 q 542 642 507 592 q 592 751 576 693 q 608 854 608 808 q 595 933 608 889 q 551 1017 582 978 q 471 1083 521 1056 q 347 1110 421 1110 z "}," ":{"ha":314,"x_min":0,"x_max":0,"o":""},"Á":{"ha":946,"x_min":-69,"x_max":1001,"o":"m 557 1319 q 538 1291 557 1308 q 493 1257 518 1274 q 444 1228 468 1240 q 410 1215 419 1215 q 399 1231 399 1215 q 415 1264 399 1243 q 454 1303 432 1285 q 499 1336 476 1322 q 531 1350 521 1350 q 549 1344 542 1350 q 557 1319 557 1339 m 808 4 q 850 -32 815 -24 q 951 -40 885 -40 q 986 -42 971 -40 q 1001 -57 1001 -44 q 953 -76 1001 -76 l 657 -76 q 623 -72 632 -76 q 614 -57 614 -68 q 635 -41 614 -44 q 681 -36 656 -37 q 726 -29 706 -35 q 747 -7 747 -24 q 742 26 747 1 q 728 85 736 51 q 710 156 719 118 q 690 228 700 194 q 673 290 681 263 q 663 331 665 318 l 286 331 q 264 257 276 297 q 240 178 251 217 q 222 109 229 140 q 214 63 214 78 q 224 49 214 53 q 248 42 233 44 q 280 40 263 40 q 313 40 297 40 q 343 38 326 40 q 360 21 360 36 q 350 7 360 14 q 313 0 340 0 l -37 0 q -60 4 -50 0 q -69 19 -69 8 q -42 35 -69 35 q -8 36 -28 35 q 31 39 13 38 q 65 42 50 40 q 85 43 79 43 q 129 58 115 46 q 153 96 143 71 q 201 242 174 156 q 256 429 228 329 q 312 634 283 529 q 367 834 340 739 q 415 1008 393 929 q 450 1133 436 1086 q 460 1152 453 1144 q 479 1160 468 1160 q 494 1154 486 1160 q 507 1133 503 1149 l 808 4 m 476 1049 q 458 972 471 1021 q 429 863 446 922 q 394 735 413 803 q 359 603 376 668 q 327 481 342 539 q 303 381 313 422 q 388 378 346 379 q 472 378 429 378 q 559 378 515 378 q 646 381 603 379 q 608 533 629 449 q 565 707 588 618 q 519 884 542 796 q 476 1049 497 972 z "},"Ă":{"ha":946,"x_min":-69,"x_max":1001,"o":"m 636 1317 q 622 1272 636 1292 q 586 1240 608 1253 q 536 1222 564 1228 q 482 1215 508 1215 q 376 1245 419 1215 q 332 1317 332 1275 q 356 1350 332 1350 q 375 1342 371 1350 q 379 1318 379 1335 q 388 1283 379 1297 q 410 1263 396 1269 q 444 1253 425 1256 q 482 1250 463 1250 q 519 1256 500 1250 q 553 1270 538 1261 q 577 1292 568 1279 q 586 1318 586 1304 q 610 1350 586 1350 q 628 1344 621 1350 q 636 1317 636 1339 m 808 4 q 850 -32 815 -24 q 951 -40 885 -40 q 986 -42 971 -40 q 1001 -57 1001 -44 q 953 -76 1001 -76 l 657 -76 q 623 -72 632 -76 q 614 -57 614 -68 q 635 -41 614 -44 q 681 -36 656 -37 q 726 -29 706 -35 q 747 -7 747 -24 q 742 26 747 1 q 728 85 736 51 q 710 156 719 118 q 690 228 700 194 q 673 290 681 263 q 663 331 665 318 l 286 331 q 264 257 276 297 q 240 178 251 217 q 222 109 229 140 q 214 63 214 78 q 224 49 214 53 q 248 42 233 44 q 280 40 263 40 q 313 40 297 40 q 343 38 326 40 q 360 21 360 36 q 350 7 360 14 q 313 0 340 0 l -37 0 q -60 4 -50 0 q -69 19 -69 8 q -42 35 -69 35 q -8 36 -28 35 q 31 39 13 38 q 65 42 50 40 q 85 43 79 43 q 129 58 115 46 q 153 96 143 71 q 201 242 174 156 q 256 429 228 329 q 312 634 283 529 q 367 834 340 739 q 415 1008 393 929 q 450 1133 436 1086 q 460 1152 453 1144 q 479 1160 468 1160 q 494 1154 486 1160 q 507 1133 503 1149 l 808 4 m 476 1049 q 458 972 471 1021 q 429 863 446 922 q 394 735 413 803 q 359 603 376 668 q 327 481 342 539 q 303 381 313 422 q 388 378 346 379 q 472 378 429 378 q 559 378 515 378 q 646 381 603 379 q 608 533 629 449 q 565 707 588 618 q 519 884 542 796 q 476 1049 497 972 z "},"Â":{"ha":946,"x_min":-69,"x_max":1001,"o":"m 644 1215 q 617 1222 638 1215 q 572 1240 597 1229 q 522 1264 547 1251 q 478 1289 496 1276 q 433 1264 458 1276 q 384 1240 408 1251 q 340 1222 360 1229 q 313 1215 319 1215 q 301 1231 301 1215 q 324 1264 301 1243 q 378 1303 347 1285 q 437 1336 408 1322 q 478 1350 465 1350 q 520 1336 490 1350 q 580 1303 550 1322 q 633 1264 610 1285 q 656 1231 656 1243 q 644 1215 656 1215 m 808 4 q 850 -32 815 -24 q 951 -40 885 -40 q 986 -42 971 -40 q 1001 -57 1001 -44 q 953 -76 1001 -76 l 657 -76 q 623 -72 632 -76 q 614 -57 614 -68 q 635 -41 614 -44 q 681 -36 656 -37 q 726 -29 706 -35 q 747 -7 747 -24 q 742 26 747 1 q 728 85 736 51 q 710 156 719 118 q 690 228 700 194 q 673 290 681 263 q 663 331 665 318 l 286 331 q 264 257 276 297 q 240 178 251 217 q 222 109 229 140 q 214 63 214 78 q 224 49 214 53 q 248 42 233 44 q 280 40 263 40 q 313 40 297 40 q 343 38 326 40 q 360 21 360 36 q 350 7 360 14 q 313 0 340 0 l -37 0 q -60 4 -50 0 q -69 19 -69 8 q -42 35 -69 35 q -8 36 -28 35 q 31 39 13 38 q 65 42 50 40 q 85 43 79 43 q 129 58 115 46 q 153 96 143 71 q 201 242 174 156 q 256 429 228 329 q 312 634 283 529 q 367 834 340 739 q 415 1008 393 929 q 450 1133 436 1086 q 460 1152 453 1144 q 479 1160 468 1160 q 494 1154 486 1160 q 507 1133 503 1149 l 808 4 m 476 1049 q 458 972 471 1021 q 429 863 446 922 q 394 735 413 803 q 359 603 376 668 q 327 481 342 539 q 303 381 313 422 q 388 378 346 379 q 472 378 429 378 q 559 378 515 378 q 646 381 603 379 q 608 533 629 449 q 565 707 588 618 q 519 884 542 796 q 476 1049 497 972 z "},"Ä":{"ha":946,"x_min":-69,"x_max":1001,"o":"m 285 1293 q 288 1310 285 1300 q 299 1328 292 1319 q 316 1344 306 1338 q 342 1350 326 1350 q 375 1336 361 1350 q 389 1299 389 1322 q 370 1248 389 1261 q 332 1235 351 1235 q 299 1251 313 1235 q 285 1293 285 1268 m 572 1274 q 576 1290 572 1281 q 586 1309 579 1300 q 603 1324 593 1318 q 629 1331 614 1331 q 663 1317 649 1331 q 676 1279 676 1303 q 658 1228 676 1242 q 619 1215 639 1215 q 586 1232 600 1215 q 572 1274 572 1249 m 808 4 q 850 -32 815 -24 q 951 -40 885 -40 q 986 -42 971 -40 q 1001 -57 1001 -44 q 953 -76 1001 -76 l 657 -76 q 623 -72 632 -76 q 614 -57 614 -68 q 635 -41 614 -44 q 681 -36 656 -37 q 726 -29 706 -35 q 747 -7 747 -24 q 742 26 747 1 q 728 85 736 51 q 710 156 719 118 q 690 228 700 194 q 673 290 681 263 q 663 331 665 318 l 286 331 q 264 257 276 297 q 240 178 251 217 q 222 109 229 140 q 214 63 214 78 q 224 49 214 53 q 248 42 233 44 q 280 40 263 40 q 313 40 297 40 q 343 38 326 40 q 360 21 360 36 q 350 7 360 14 q 313 0 340 0 l -37 0 q -60 4 -50 0 q -69 19 -69 8 q -42 35 -69 35 q -8 36 -28 35 q 31 39 13 38 q 65 42 50 40 q 85 43 79 43 q 129 58 115 46 q 153 96 143 71 q 201 242 174 156 q 256 429 228 329 q 312 634 283 529 q 367 834 340 739 q 415 1008 393 929 q 450 1133 436 1086 q 460 1152 453 1144 q 479 1160 468 1160 q 494 1154 486 1160 q 507 1133 503 1149 l 808 4 m 476 1049 q 458 972 471 1021 q 429 863 446 922 q 394 735 413 803 q 359 603 376 668 q 327 481 342 539 q 303 381 313 422 q 388 378 346 379 q 472 378 429 378 q 559 378 515 378 q 646 381 603 379 q 608 533 629 449 q 565 707 588 618 q 519 884 542 796 q 476 1049 497 972 z "},"À":{"ha":946,"x_min":-69,"x_max":1001,"o":"m 400 1319 q 408 1344 400 1339 q 426 1350 415 1350 q 458 1336 436 1350 q 503 1303 481 1322 q 542 1264 525 1285 q 558 1231 558 1243 q 547 1215 558 1215 q 513 1228 538 1215 q 464 1257 489 1240 q 419 1291 439 1274 q 400 1319 400 1308 m 808 4 q 850 -32 815 -24 q 951 -40 885 -40 q 986 -42 971 -40 q 1001 -57 1001 -44 q 953 -76 1001 -76 l 657 -76 q 623 -72 632 -76 q 614 -57 614 -68 q 635 -41 614 -44 q 681 -36 656 -37 q 726 -29 706 -35 q 747 -7 747 -24 q 742 26 747 1 q 728 85 736 51 q 710 156 719 118 q 690 228 700 194 q 673 290 681 263 q 663 331 665 318 l 286 331 q 264 257 276 297 q 240 178 251 217 q 222 109 229 140 q 214 63 214 78 q 224 49 214 53 q 248 42 233 44 q 280 40 263 40 q 313 40 297 40 q 343 38 326 40 q 360 21 360 36 q 350 7 360 14 q 313 0 340 0 l -37 0 q -60 4 -50 0 q -69 19 -69 8 q -42 35 -69 35 q -8 36 -28 35 q 31 39 13 38 q 65 42 50 40 q 85 43 79 43 q 129 58 115 46 q 153 96 143 71 q 201 242 174 156 q 256 429 228 329 q 312 634 283 529 q 367 834 340 739 q 415 1008 393 929 q 450 1133 436 1086 q 460 1152 453 1144 q 479 1160 468 1160 q 494 1154 486 1160 q 507 1133 503 1149 l 808 4 m 476 1049 q 458 972 471 1021 q 429 863 446 922 q 394 735 413 803 q 359 603 376 668 q 327 481 342 539 q 303 381 313 422 q 388 378 346 379 q 472 378 429 378 q 559 378 515 378 q 646 381 603 379 q 608 533 629 449 q 565 707 588 618 q 519 884 542 796 q 476 1049 497 972 z "},"Ā":{"ha":946,"x_min":-69,"x_max":1001,"o":"m 808 4 q 850 -32 815 -24 q 951 -40 885 -40 q 986 -42 971 -40 q 1001 -57 1001 -44 q 953 -76 1001 -76 l 657 -76 q 623 -72 632 -76 q 614 -57 614 -68 q 635 -41 614 -44 q 681 -36 656 -37 q 726 -29 706 -35 q 747 -7 747 -24 q 742 26 747 1 q 728 85 736 51 q 710 156 719 118 q 690 228 700 194 q 673 290 681 263 q 663 331 665 318 l 286 331 q 264 257 276 297 q 240 178 251 217 q 222 109 229 140 q 214 63 214 78 q 224 49 214 53 q 248 42 233 44 q 280 40 263 40 q 313 40 297 40 q 343 38 326 40 q 360 21 360 36 q 350 7 360 14 q 313 0 340 0 l -37 0 q -60 4 -50 0 q -69 19 -69 8 q -42 35 -69 35 q -8 36 -28 35 q 31 39 13 38 q 65 42 50 40 q 85 43 79 43 q 129 58 115 46 q 153 96 143 71 q 201 242 174 156 q 256 429 228 329 q 312 634 283 529 q 367 834 340 739 q 415 1008 393 929 q 450 1133 436 1086 q 460 1152 453 1144 q 479 1160 468 1160 q 494 1154 486 1160 q 507 1133 503 1149 l 808 4 m 476 1049 q 458 972 471 1021 q 429 863 446 922 q 394 735 413 803 q 359 603 376 668 q 327 481 342 539 q 303 381 313 422 q 388 378 346 379 q 472 378 429 378 q 559 378 515 378 q 646 381 603 379 q 608 533 629 449 q 565 707 588 618 q 519 884 542 796 q 476 1049 497 972 m 674 1260 q 684 1254 679 1260 q 689 1242 689 1249 q 683 1226 689 1235 q 663 1217 678 1217 q 588 1217 635 1217 q 492 1216 542 1217 q 397 1215 442 1215 q 328 1215 353 1215 q 312 1223 318 1215 q 306 1238 306 1231 q 311 1251 306 1244 q 328 1258 317 1258 q 358 1258 338 1258 q 404 1257 379 1257 q 453 1256 429 1257 q 496 1256 478 1256 q 597 1258 554 1256 q 674 1260 640 1260 z "},"Ą":{"ha":946,"x_min":-69,"x_max":1001,"o":"m 808 4 q 850 -32 815 -24 q 951 -40 885 -40 q 986 -42 971 -40 q 1001 -57 1001 -44 q 953 -76 1001 -76 l 800 -76 q 777 -103 786 -89 q 763 -132 768 -118 q 756 -158 758 -146 q 754 -178 754 -171 q 756 -197 754 -186 q 765 -219 758 -208 q 781 -236 771 -229 q 808 -243 792 -243 q 839 -235 826 -243 q 860 -216 851 -226 q 877 -197 869 -206 q 894 -187 885 -187 q 910 -194 907 -187 q 914 -210 914 -201 q 906 -227 914 -215 q 884 -251 899 -239 q 850 -272 869 -262 q 806 -281 831 -281 q 725 -252 757 -281 q 693 -179 693 -224 q 712 -117 693 -143 q 750 -76 731 -92 l 657 -76 q 623 -72 632 -76 q 614 -57 614 -68 q 635 -41 614 -44 q 681 -36 656 -37 q 726 -29 706 -35 q 747 -7 747 -24 q 742 26 747 1 q 728 85 736 51 q 710 156 719 118 q 690 228 700 194 q 673 290 681 263 q 663 331 665 318 l 286 331 q 264 257 276 297 q 240 178 251 217 q 222 109 229 140 q 214 63 214 78 q 224 49 214 53 q 248 42 233 44 q 280 40 263 40 q 313 40 297 40 q 343 38 326 40 q 360 21 360 36 q 350 7 360 14 q 313 0 340 0 l -37 0 q -60 4 -50 0 q -69 19 -69 8 q -42 35 -69 35 q -8 36 -28 35 q 31 39 13 38 q 65 42 50 40 q 85 43 79 43 q 129 58 115 46 q 153 96 143 71 q 201 242 174 156 q 256 429 228 329 q 312 634 283 529 q 367 834 340 739 q 415 1008 393 929 q 450 1133 436 1086 q 460 1152 453 1144 q 479 1160 468 1160 q 494 1154 486 1160 q 507 1133 503 1149 l 808 4 m 476 1049 q 458 972 471 1021 q 429 863 446 922 q 394 735 413 803 q 359 603 376 668 q 327 481 342 539 q 303 381 313 422 q 388 378 346 379 q 472 378 429 378 q 559 378 515 378 q 646 381 603 379 q 608 533 629 449 q 565 707 588 618 q 519 884 542 796 q 476 1049 497 972 z "},"Å":{"ha":946,"x_min":-69,"x_max":1001,"o":"m 569 1285 q 561 1253 569 1267 q 540 1232 553 1240 q 510 1219 526 1224 q 479 1215 494 1215 q 418 1234 443 1215 q 393 1282 393 1253 q 419 1331 393 1311 q 485 1350 444 1350 q 548 1331 526 1350 q 569 1285 569 1311 m 482 1321 q 445 1308 456 1321 q 435 1282 435 1294 q 445 1255 435 1267 q 479 1243 456 1243 q 528 1283 528 1243 q 519 1308 528 1296 q 482 1321 510 1321 m 808 4 q 850 -32 815 -24 q 951 -40 885 -40 q 986 -42 971 -40 q 1001 -57 1001 -44 q 953 -76 1001 -76 l 657 -76 q 623 -72 632 -76 q 614 -57 614 -68 q 635 -41 614 -44 q 681 -36 656 -37 q 726 -29 706 -35 q 747 -7 747 -24 q 742 26 747 1 q 728 85 736 51 q 710 156 719 118 q 690 228 700 194 q 673 290 681 263 q 663 331 665 318 l 286 331 q 264 257 276 297 q 240 178 251 217 q 222 109 229 140 q 214 63 214 78 q 224 49 214 53 q 248 42 233 44 q 280 40 263 40 q 313 40 297 40 q 343 38 326 40 q 360 21 360 36 q 350 7 360 14 q 313 0 340 0 l -37 0 q -60 4 -50 0 q -69 19 -69 8 q -42 35 -69 35 q -8 36 -28 35 q 31 39 13 38 q 65 42 50 40 q 85 43 79 43 q 129 58 115 46 q 153 96 143 71 q 201 242 174 156 q 256 429 228 329 q 312 634 283 529 q 367 834 340 739 q 415 1008 393 929 q 450 1133 436 1086 q 460 1152 453 1144 q 479 1160 468 1160 q 494 1154 486 1160 q 507 1133 503 1149 l 808 4 m 476 1049 q 458 972 471 1021 q 429 863 446 922 q 394 735 413 803 q 359 603 376 668 q 327 481 342 539 q 303 381 313 422 q 388 378 346 379 q 472 378 429 378 q 559 378 515 378 q 646 381 603 379 q 608 533 629 449 q 565 707 588 618 q 519 884 542 796 q 476 1049 497 972 z "},"Ǻ":{"ha":951,"x_min":-67,"x_max":1004,"o":"m 811 4 q 853 -32 819 -24 q 954 -40 888 -40 q 989 -42 974 -40 q 1004 -57 1004 -44 q 956 -76 1004 -76 q 881 -75 919 -76 q 807 -74 843 -74 q 733 -75 769 -74 q 660 -76 696 -76 q 626 -72 635 -76 q 617 -57 617 -68 q 638 -41 617 -44 q 683 -36 658 -37 q 729 -29 708 -35 q 750 -7 750 -24 q 744 26 750 1 q 727 85 738 51 q 705 156 717 118 q 683 228 693 194 q 663 290 672 263 q 651 331 654 318 l 299 331 q 275 257 289 297 q 248 178 261 217 q 226 109 235 140 q 217 63 217 78 q 226 49 217 53 q 251 42 236 44 q 283 40 265 40 q 315 40 300 40 q 346 38 329 40 q 363 21 363 36 q 353 7 363 14 q 315 0 343 0 q 228 1 271 0 q 140 3 185 3 q 53 2 96 3 q -35 0 10 1 q -57 4 -47 0 q -67 19 -67 8 q -39 35 -67 35 q -5 36 -25 35 q 34 39 15 38 q 67 42 53 40 q 88 43 82 43 q 132 58 118 46 q 156 96 146 71 q 203 232 176 156 q 258 392 231 308 q 315 563 286 476 q 369 729 343 650 q 417 876 396 808 q 453 992 439 944 q 463 1010 456 1003 q 482 1018 471 1018 q 497 1013 489 1018 q 510 992 506 1007 l 811 4 m 479 907 q 449 800 471 864 q 403 665 428 736 q 353 519 378 593 q 315 381 329 444 q 395 378 358 379 q 475 378 432 378 q 555 378 518 378 q 635 381 592 379 q 599 511 618 449 q 560 636 581 574 q 520 765 540 699 q 479 907 500 831 m 572 1124 q 564 1092 572 1106 q 542 1071 556 1079 q 513 1058 529 1063 q 482 1054 497 1054 q 421 1073 446 1054 q 396 1121 396 1092 q 422 1169 396 1150 q 488 1189 447 1189 q 551 1169 529 1189 q 572 1124 572 1150 m 485 1157 q 451 1145 458 1157 q 443 1121 443 1133 q 451 1096 443 1106 q 482 1086 458 1086 q 515 1094 506 1086 q 524 1122 524 1103 q 518 1146 524 1135 q 485 1157 513 1157 m 574 1319 q 554 1291 574 1308 q 510 1257 535 1274 q 460 1228 485 1240 q 426 1215 436 1215 q 415 1231 415 1215 q 432 1264 415 1243 q 471 1303 449 1285 q 515 1336 493 1322 q 547 1350 538 1350 q 566 1344 558 1350 q 574 1319 574 1339 z "},"Ã":{"ha":946,"x_min":-69,"x_max":1001,"o":"m 808 4 q 850 -32 815 -24 q 951 -40 885 -40 q 986 -42 971 -40 q 1001 -57 1001 -44 q 953 -76 1001 -76 l 657 -76 q 623 -72 632 -76 q 614 -57 614 -68 q 635 -41 614 -44 q 681 -36 656 -37 q 726 -29 706 -35 q 747 -7 747 -24 q 742 26 747 1 q 728 85 736 51 q 710 156 719 118 q 690 228 700 194 q 673 290 681 263 q 663 331 665 318 l 286 331 q 264 257 276 297 q 240 178 251 217 q 222 109 229 140 q 214 63 214 78 q 224 49 214 53 q 248 42 233 44 q 280 40 263 40 q 313 40 297 40 q 343 38 326 40 q 360 21 360 36 q 350 7 360 14 q 313 0 340 0 l -37 0 q -60 4 -50 0 q -69 19 -69 8 q -42 35 -69 35 q -8 36 -28 35 q 31 39 13 38 q 65 42 50 40 q 85 43 79 43 q 129 58 115 46 q 153 96 143 71 q 201 242 174 156 q 256 429 228 329 q 312 634 283 529 q 367 834 340 739 q 415 1008 393 929 q 450 1133 436 1086 q 460 1152 453 1144 q 479 1160 468 1160 q 494 1154 486 1160 q 507 1133 503 1149 l 808 4 m 476 1049 q 458 972 471 1021 q 429 863 446 922 q 394 735 413 803 q 359 603 376 668 q 327 481 342 539 q 303 381 313 422 q 388 378 346 379 q 472 378 429 378 q 559 378 515 378 q 646 381 603 379 q 608 533 629 449 q 565 707 588 618 q 519 884 542 796 q 476 1049 497 972 m 249 1254 q 289 1293 249 1269 q 383 1318 332 1318 q 428 1312 404 1318 q 478 1299 453 1306 q 528 1285 503 1292 q 574 1279 553 1279 q 657 1303 610 1279 q 684 1317 676 1314 q 699 1321 692 1321 q 711 1314 706 1321 q 717 1297 717 1307 q 706 1274 717 1285 q 675 1253 694 1263 q 630 1240 656 1244 q 575 1235 604 1235 q 523 1240 549 1235 q 473 1251 497 1244 q 426 1263 449 1257 q 385 1268 404 1268 q 346 1263 364 1268 q 313 1251 328 1257 q 286 1239 297 1244 q 268 1233 275 1233 q 255 1240 261 1233 q 249 1254 249 1247 z "},"B":{"ha":925,"x_min":29,"x_max":875,"o":"m 69 39 q 113 40 90 39 q 153 44 135 40 q 185 53 172 47 q 197 72 197 60 q 198 274 197 175 q 199 435 199 372 q 197 600 199 510 q 194 777 196 690 q 190 936 192 864 q 188 1046 189 1008 q 158 1089 186 1082 q 69 1096 129 1096 q 42 1102 50 1096 q 33 1117 33 1108 q 44 1132 33 1128 q 69 1136 54 1136 q 180 1137 119 1136 q 295 1138 240 1138 q 392 1140 350 1139 q 446 1140 433 1140 q 587 1122 519 1140 q 705 1067 654 1103 q 786 976 756 1031 q 817 850 817 922 q 763 681 817 753 q 614 585 708 610 q 804 489 733 563 q 875 306 875 415 q 833 163 875 221 q 719 68 790 104 q 556 16 649 32 q 364 0 464 0 l 100 0 q 49 2 68 0 q 29 17 29 4 q 40 33 29 28 q 69 39 51 39 m 364 549 q 322 548 338 549 q 297 547 307 547 q 277 545 286 546 q 254 544 268 544 l 254 44 q 381 47 315 44 q 508 57 446 49 q 626 83 571 65 q 724 129 682 100 q 790 202 765 158 q 814 308 814 246 q 774 436 814 389 q 671 508 735 483 q 526 541 607 533 q 364 549 446 549 m 367 1093 q 322 1092 343 1093 q 286 1090 301 1092 q 254 1088 268 1089 l 254 600 q 280 597 254 597 q 351 596 306 596 q 428 598 385 596 q 516 607 471 600 q 605 629 561 614 q 683 672 649 644 q 738 740 717 699 q 758 840 758 781 q 724 966 758 917 q 633 1044 689 1015 q 507 1083 576 1072 q 367 1093 438 1093 z "},"C":{"ha":868,"x_min":57,"x_max":811,"o":"m 811 297 q 792 198 811 253 q 732 95 774 143 q 625 14 690 47 q 467 -19 560 -19 q 318 13 392 -19 q 186 116 244 46 q 92 297 128 186 q 57 563 57 407 q 91 799 57 689 q 183 990 125 908 q 319 1117 242 1071 q 485 1164 397 1164 q 586 1145 542 1164 q 663 1099 631 1126 q 715 1038 694 1071 q 746 975 735 1004 q 742 1042 743 1018 q 740 1077 740 1065 q 739 1092 739 1089 q 739 1094 739 1094 q 765 1129 739 1129 q 786 1118 779 1129 q 793 1097 793 1107 q 790 990 793 1049 q 788 881 788 931 q 789 792 788 836 q 790 704 790 749 q 786 671 790 685 q 764 657 782 657 q 740 683 744 657 q 735 739 735 708 q 722 885 735 815 q 678 1006 708 954 q 601 1090 649 1058 q 486 1121 554 1121 q 337 1074 404 1121 q 222 949 269 1028 q 147 770 174 871 q 119 561 119 669 q 142 353 119 451 q 208 183 164 256 q 320 67 253 110 q 478 25 388 25 q 587 43 539 25 q 671 94 635 61 q 731 174 707 128 q 768 274 756 219 q 771 293 769 282 q 774 314 772 304 q 781 331 776 324 q 792 338 785 338 q 811 297 811 338 z "},"Æ":{"ha":1421,"x_min":-56,"x_max":1368,"o":"m 1342 431 q 1365 416 1361 431 q 1368 385 1368 401 q 1366 334 1368 372 q 1360 246 1364 296 q 1353 142 1357 196 q 1346 46 1350 88 q 1329 6 1343 11 q 1288 0 1315 0 q 1123 1 1203 0 q 958 3 1043 3 q 790 2 874 3 q 621 0 706 1 q 578 2 600 0 q 557 15 557 4 q 570 35 557 31 q 611 39 583 39 q 700 49 676 39 q 724 89 724 60 q 724 161 724 129 q 724 222 724 193 q 725 276 725 250 q 725 331 725 301 l 372 331 q 333 254 356 297 q 289 172 310 211 q 254 101 268 132 q 240 63 240 71 q 249 49 240 53 q 272 42 258 44 q 301 40 285 40 q 333 40 318 40 q 362 38 347 40 q 376 21 376 36 q 365 7 376 14 q 325 0 353 0 q 235 1 281 0 q 146 3 190 3 q 59 2 101 3 q -28 0 17 1 q -56 19 -56 0 q -25 35 -56 35 q 10 36 -10 35 q 49 39 31 38 q 83 42 68 40 q 103 43 97 43 q 150 58 133 46 q 182 96 167 71 q 256 233 214 153 q 345 406 299 314 q 440 595 392 497 q 534 785 489 693 q 618 955 579 876 q 685 1088 657 1033 q 651 1095 669 1094 q 617 1096 632 1096 q 577 1099 593 1096 q 561 1117 561 1101 q 579 1136 561 1132 q 618 1140 597 1140 q 713 1140 664 1140 q 806 1139 761 1139 q 888 1138 850 1139 q 953 1138 926 1138 q 1037 1138 1004 1138 q 1101 1139 1069 1139 q 1169 1140 1132 1139 q 1268 1140 1207 1140 q 1297 1130 1288 1140 q 1307 1090 1307 1119 l 1307 904 q 1303 859 1307 878 q 1283 840 1299 840 q 1259 858 1263 840 q 1256 896 1256 876 l 1256 1051 q 1237 1084 1256 1078 q 1204 1090 1218 1090 l 783 1090 l 783 611 q 863 608 824 610 q 942 607 901 607 q 985 608 961 607 q 1030 609 1008 608 q 1068 610 1051 610 q 1092 611 1085 611 q 1105 626 1100 611 q 1112 660 1110 640 q 1115 702 1114 681 q 1115 736 1115 724 q 1116 744 1115 738 q 1119 759 1117 751 q 1126 772 1121 767 q 1139 778 1131 778 q 1159 767 1156 778 q 1163 740 1163 756 q 1161 662 1163 700 q 1160 583 1160 624 q 1161 504 1160 543 q 1163 426 1163 465 q 1155 396 1163 403 q 1142 389 1147 389 q 1125 400 1132 389 q 1118 429 1118 411 q 1115 470 1118 447 q 1106 513 1113 493 q 1085 545 1099 532 q 1051 558 1072 558 q 1007 559 1032 558 q 942 560 982 560 q 863 559 901 560 q 783 557 824 558 l 783 50 l 1240 50 q 1260 51 1250 50 q 1279 58 1271 53 q 1293 73 1288 63 q 1300 101 1299 83 q 1304 155 1301 119 q 1310 231 1307 190 q 1315 310 1313 271 q 1318 379 1317 350 q 1327 419 1319 407 q 1342 431 1335 431 m 564 378 q 644 378 604 378 q 725 379 685 378 q 726 469 726 419 q 726 590 726 519 q 725 731 726 668 q 722 847 724 793 q 719 947 721 900 q 718 1042 718 994 l 718 1047 q 682 970 706 1019 q 629 861 658 921 q 568 735 600 801 q 505 603 536 668 q 446 481 474 539 q 400 381 418 422 q 481 379 442 381 q 564 378 519 378 z "},"Ć":{"ha":868,"x_min":57,"x_max":811,"o":"m 563 1318 q 543 1290 563 1307 q 499 1256 524 1272 q 449 1227 474 1239 q 415 1215 425 1215 q 404 1231 404 1215 q 421 1263 404 1243 q 460 1302 438 1283 q 504 1335 482 1321 q 536 1349 526 1349 q 555 1343 547 1349 q 563 1318 563 1338 m 811 297 q 792 198 811 253 q 732 95 774 143 q 625 14 690 47 q 467 -19 560 -19 q 318 13 392 -19 q 186 116 244 46 q 92 297 128 186 q 57 563 57 407 q 91 799 57 689 q 183 990 125 908 q 319 1117 242 1071 q 485 1164 397 1164 q 586 1145 542 1164 q 663 1099 631 1126 q 715 1038 694 1071 q 746 975 735 1004 q 742 1042 743 1018 q 740 1077 740 1065 q 739 1092 739 1089 q 739 1094 739 1094 q 765 1129 739 1129 q 786 1118 779 1129 q 793 1097 793 1107 q 790 990 793 1049 q 788 881 788 931 q 789 792 788 836 q 790 704 790 749 q 786 671 790 685 q 764 657 782 657 q 740 683 744 657 q 735 739 735 708 q 722 885 735 815 q 678 1006 708 954 q 601 1090 649 1058 q 486 1121 554 1121 q 337 1074 404 1121 q 222 949 269 1028 q 147 770 174 871 q 119 561 119 669 q 142 353 119 451 q 208 183 164 256 q 320 67 253 110 q 478 25 388 25 q 587 43 539 25 q 671 94 635 61 q 731 174 707 128 q 768 274 756 219 q 771 293 769 282 q 774 314 772 304 q 781 331 776 324 q 792 338 785 338 q 811 297 811 338 z "},"Č":{"ha":868,"x_min":57,"x_max":811,"o":"m 646 1350 q 657 1335 657 1350 q 634 1302 657 1322 q 581 1263 611 1282 q 522 1231 551 1244 q 479 1217 492 1217 q 438 1231 467 1217 q 379 1263 410 1244 q 326 1302 349 1282 q 303 1335 303 1322 q 314 1350 303 1350 q 337 1343 321 1350 q 374 1326 353 1336 q 423 1303 396 1315 q 479 1278 450 1290 q 529 1303 503 1290 q 579 1326 556 1315 q 621 1343 603 1336 q 646 1350 639 1350 m 811 297 q 792 198 811 253 q 732 95 774 143 q 625 14 690 47 q 467 -19 560 -19 q 318 13 392 -19 q 186 116 244 46 q 92 297 128 186 q 57 563 57 407 q 91 799 57 689 q 183 990 125 908 q 319 1117 242 1071 q 485 1164 397 1164 q 586 1145 542 1164 q 663 1099 631 1126 q 715 1038 694 1071 q 746 975 735 1004 q 742 1042 743 1018 q 740 1077 740 1065 q 739 1092 739 1089 q 739 1094 739 1094 q 765 1129 739 1129 q 786 1118 779 1129 q 793 1097 793 1107 q 790 990 793 1049 q 788 881 788 931 q 789 792 788 836 q 790 704 790 749 q 786 671 790 685 q 764 657 782 657 q 740 683 744 657 q 735 739 735 708 q 722 885 735 815 q 678 1006 708 954 q 601 1090 649 1058 q 486 1121 554 1121 q 337 1074 404 1121 q 222 949 269 1028 q 147 770 174 871 q 119 561 119 669 q 142 353 119 451 q 208 183 164 256 q 320 67 253 110 q 478 25 388 25 q 587 43 539 25 q 671 94 635 61 q 731 174 707 128 q 768 274 756 219 q 771 293 769 282 q 774 314 772 304 q 781 331 776 324 q 792 338 785 338 q 811 297 811 338 z "},"Ç":{"ha":868,"x_min":57,"x_max":811,"o":"m 811 297 q 793 203 811 256 q 737 102 775 150 q 638 20 699 54 q 490 -18 576 -14 l 469 -131 q 527 -101 503 -111 q 581 -90 551 -90 q 657 -114 626 -90 q 688 -178 688 -137 q 673 -226 688 -206 q 633 -259 658 -246 q 576 -279 608 -272 q 508 -286 543 -286 q 458 -279 469 -286 q 446 -262 446 -272 q 460 -248 446 -250 q 503 -246 475 -246 q 601 -232 567 -246 q 636 -186 636 -218 q 622 -151 636 -167 q 576 -135 607 -135 q 538 -141 557 -135 q 503 -154 519 -147 q 472 -167 486 -161 q 449 -174 458 -174 q 432 -168 438 -174 q 426 -157 426 -162 q 428 -146 426 -153 q 431 -133 429 -139 q 441 -77 435 -111 q 450 -19 447 -43 q 306 18 376 -17 q 180 123 235 53 q 91 302 125 193 q 57 563 57 411 q 91 799 57 689 q 183 990 125 908 q 319 1117 242 1071 q 485 1164 397 1164 q 586 1145 542 1164 q 663 1099 631 1126 q 715 1038 694 1071 q 746 975 735 1004 q 742 1042 743 1018 q 740 1077 740 1065 q 739 1092 739 1089 q 739 1094 739 1094 q 765 1129 739 1129 q 786 1118 779 1129 q 793 1097 793 1107 q 790 990 793 1049 q 788 881 788 931 q 789 792 788 836 q 790 704 790 749 q 786 671 790 685 q 764 657 782 657 q 740 683 744 657 q 735 739 735 708 q 722 885 735 815 q 678 1006 708 954 q 601 1090 649 1058 q 486 1121 554 1121 q 337 1074 404 1121 q 222 949 269 1028 q 147 770 174 871 q 119 561 119 669 q 142 353 119 451 q 208 183 164 256 q 320 67 253 110 q 478 25 388 25 q 587 43 539 25 q 671 94 635 61 q 731 174 707 128 q 768 274 756 219 q 771 293 769 282 q 774 314 772 304 q 781 331 776 324 q 792 338 785 338 q 811 297 811 338 z "},"Ĉ":{"ha":868,"x_min":57,"x_max":811,"o":"m 649 1215 q 622 1222 642 1215 q 576 1240 601 1229 q 526 1264 551 1251 q 482 1289 500 1276 q 438 1264 463 1276 q 388 1240 413 1251 q 344 1222 364 1229 q 317 1215 324 1215 q 306 1231 306 1215 q 328 1264 306 1243 q 382 1303 351 1285 q 441 1336 413 1322 q 482 1350 469 1350 q 524 1336 494 1350 q 584 1303 554 1322 q 637 1264 614 1285 q 660 1231 660 1243 q 649 1215 660 1215 m 811 297 q 792 198 811 253 q 732 95 774 143 q 625 14 690 47 q 467 -19 560 -19 q 318 13 392 -19 q 186 116 244 46 q 92 297 128 186 q 57 563 57 407 q 91 799 57 689 q 183 990 125 908 q 319 1117 242 1071 q 485 1164 397 1164 q 586 1145 542 1164 q 663 1099 631 1126 q 715 1038 694 1071 q 746 975 735 1004 q 742 1042 743 1018 q 740 1077 740 1065 q 739 1092 739 1089 q 739 1094 739 1094 q 765 1129 739 1129 q 786 1118 779 1129 q 793 1097 793 1107 q 790 990 793 1049 q 788 881 788 931 q 789 792 788 836 q 790 704 790 749 q 786 671 790 685 q 764 657 782 657 q 740 683 744 657 q 735 739 735 708 q 722 885 735 815 q 678 1006 708 954 q 601 1090 649 1058 q 486 1121 554 1121 q 337 1074 404 1121 q 222 949 269 1028 q 147 770 174 871 q 119 561 119 669 q 142 353 119 451 q 208 183 164 256 q 320 67 253 110 q 478 25 388 25 q 587 43 539 25 q 671 94 635 61 q 731 174 707 128 q 768 274 756 219 q 771 293 769 282 q 774 314 772 304 q 781 331 776 324 q 792 338 785 338 q 811 297 811 338 z "},"Ċ":{"ha":868,"x_min":57,"x_max":811,"o":"m 811 297 q 792 198 811 253 q 732 95 774 143 q 625 14 690 47 q 467 -19 560 -19 q 318 13 392 -19 q 186 116 244 46 q 92 297 128 186 q 57 563 57 407 q 91 799 57 689 q 183 990 125 908 q 319 1117 242 1071 q 485 1164 397 1164 q 586 1145 542 1164 q 663 1099 631 1126 q 715 1038 694 1071 q 746 975 735 1004 q 742 1042 743 1018 q 740 1077 740 1065 q 739 1092 739 1089 q 739 1094 739 1094 q 765 1129 739 1129 q 786 1118 779 1129 q 793 1097 793 1107 q 790 990 793 1049 q 788 881 788 931 q 789 792 788 836 q 790 704 790 749 q 786 671 790 685 q 764 657 782 657 q 740 683 744 657 q 735 739 735 708 q 722 885 735 815 q 678 1006 708 954 q 601 1090 649 1058 q 486 1121 554 1121 q 337 1074 404 1121 q 222 949 269 1028 q 147 770 174 871 q 119 561 119 669 q 142 353 119 451 q 208 183 164 256 q 320 67 253 110 q 478 25 388 25 q 587 43 539 25 q 671 94 635 61 q 731 174 707 128 q 768 274 756 219 q 771 293 769 282 q 774 314 772 304 q 781 331 776 324 q 792 338 785 338 q 811 297 811 338 m 436 1293 q 440 1310 436 1300 q 450 1328 443 1319 q 467 1344 457 1338 q 493 1350 478 1350 q 526 1336 513 1350 q 540 1299 540 1322 q 522 1248 540 1261 q 483 1235 503 1235 q 450 1251 464 1235 q 436 1293 436 1268 z "},"D":{"ha":936,"x_min":29,"x_max":881,"o":"m 63 1136 q 198 1140 132 1139 q 349 1140 264 1140 q 531 1113 436 1140 q 703 1022 625 1085 q 831 858 781 960 q 881 610 881 757 q 847 374 881 485 q 744 180 813 263 q 574 49 676 97 q 335 0 471 0 l 79 0 q 42 3 56 0 q 29 17 29 6 q 39 33 29 26 q 72 39 49 39 q 112 40 90 39 q 152 43 133 40 q 183 53 171 46 q 196 72 196 60 q 196 208 196 153 q 197 319 196 264 q 197 441 197 375 q 197 607 197 507 q 196 692 197 633 q 192 815 194 750 q 189 942 190 881 q 188 1038 188 1003 q 179 1070 188 1058 q 155 1088 171 1082 q 117 1094 139 1093 q 65 1096 94 1096 q 40 1103 47 1096 q 33 1118 33 1111 q 63 1136 33 1135 m 340 1092 q 297 1090 319 1092 q 254 1086 275 1088 l 254 61 q 263 53 254 56 q 285 49 272 50 q 313 47 297 47 q 340 47 328 47 q 556 90 465 47 q 704 209 646 133 q 790 388 763 285 q 818 610 818 490 q 790 797 818 710 q 704 950 763 885 q 556 1053 646 1015 q 340 1092 465 1092 z "},"Ď":{"ha":936,"x_min":29,"x_max":881,"o":"m 549 1350 q 560 1335 560 1350 q 537 1301 560 1322 q 484 1262 514 1281 q 424 1229 454 1243 q 382 1215 394 1215 q 341 1229 369 1215 q 282 1262 313 1243 q 228 1301 251 1281 q 206 1335 206 1322 q 217 1350 206 1350 q 240 1343 224 1350 q 277 1325 256 1336 q 326 1301 299 1314 q 382 1276 353 1289 q 438 1301 411 1289 q 488 1325 465 1314 q 526 1343 510 1336 q 549 1350 542 1350 m 63 1136 q 198 1140 132 1139 q 349 1140 264 1140 q 531 1113 436 1140 q 703 1022 625 1085 q 831 858 781 960 q 881 610 881 757 q 847 374 881 485 q 744 180 813 263 q 574 49 676 97 q 335 0 471 0 l 79 0 q 42 3 56 0 q 29 17 29 6 q 39 33 29 26 q 72 39 49 39 q 112 40 90 39 q 152 43 133 40 q 183 53 171 46 q 196 72 196 60 q 196 208 196 153 q 197 319 196 264 q 197 441 197 375 q 197 607 197 507 q 196 692 197 633 q 192 815 194 750 q 189 942 190 881 q 188 1038 188 1003 q 179 1070 188 1058 q 155 1088 171 1082 q 117 1094 139 1093 q 65 1096 94 1096 q 40 1103 47 1096 q 33 1118 33 1111 q 63 1136 33 1135 m 340 1092 q 297 1090 319 1092 q 254 1086 275 1088 l 254 61 q 263 53 254 56 q 285 49 272 50 q 313 47 297 47 q 340 47 328 47 q 556 90 465 47 q 704 209 646 133 q 790 388 763 285 q 818 610 818 490 q 790 797 818 710 q 704 950 763 885 q 556 1053 646 1015 q 340 1092 465 1092 z "},"Đ":{"ha":936,"x_min":29,"x_max":881,"o":"m 63 1136 q 198 1140 132 1139 q 349 1140 264 1140 q 531 1113 436 1140 q 703 1022 625 1085 q 831 858 781 960 q 881 610 881 757 q 847 374 881 485 q 744 180 813 263 q 574 49 676 97 q 335 0 471 0 l 79 0 q 42 3 56 0 q 29 17 29 6 q 39 33 29 26 q 72 39 49 39 q 112 40 90 39 q 152 43 133 40 q 183 53 171 46 q 196 72 196 60 q 196 198 196 144 q 197 302 196 251 q 197 408 197 353 q 197 540 197 464 l 65 540 q 49 551 56 540 q 43 568 43 561 q 49 585 43 575 q 65 594 54 594 q 121 593 81 594 q 197 592 161 592 l 197 607 q 196 692 197 633 q 192 815 194 750 q 189 942 190 881 q 188 1038 188 1003 q 179 1070 188 1058 q 155 1088 171 1082 q 117 1094 139 1093 q 65 1096 94 1096 q 40 1103 47 1096 q 33 1118 33 1111 q 63 1136 33 1135 m 340 1092 q 297 1090 319 1092 q 254 1086 275 1088 l 254 592 q 342 594 303 592 q 411 596 381 596 q 422 588 417 596 q 426 572 426 579 q 421 553 426 565 q 400 542 415 542 q 337 541 376 542 q 254 540 297 540 l 254 61 q 263 53 254 56 q 285 49 272 50 q 313 47 297 47 q 340 47 328 47 q 556 90 465 47 q 704 209 646 133 q 790 388 763 285 q 818 610 818 490 q 790 797 818 710 q 704 950 763 885 q 556 1053 646 1015 q 340 1092 465 1092 z "},"E":{"ha":893,"x_min":29,"x_max":840,"o":"m 814 431 q 837 416 833 431 q 840 385 840 401 q 838 334 840 372 q 833 246 836 296 q 826 142 829 196 q 818 46 822 88 q 801 6 815 11 q 760 0 788 0 q 595 1 675 0 q 431 3 515 3 q 262 2 346 3 q 93 0 178 1 q 51 2 72 0 q 29 15 29 4 q 42 35 29 31 q 83 39 56 39 q 172 49 149 39 q 196 89 196 60 q 196 174 196 138 q 197 244 196 211 q 197 308 197 276 q 198 380 197 340 q 199 470 199 419 q 199 590 199 521 q 197 731 199 668 q 194 847 196 793 q 192 947 193 900 q 190 1042 190 994 q 180 1073 190 1063 q 153 1089 169 1083 q 120 1095 138 1094 q 89 1096 103 1096 q 49 1099 65 1096 q 33 1117 33 1101 q 51 1136 33 1132 q 90 1140 69 1140 q 185 1140 136 1140 q 278 1139 233 1139 q 360 1138 322 1139 q 425 1138 399 1138 q 509 1138 476 1138 q 573 1139 542 1139 q 642 1140 604 1139 q 740 1140 679 1140 q 769 1130 760 1140 q 779 1090 779 1119 l 779 904 q 775 859 779 878 q 756 840 771 840 q 731 858 735 840 q 728 896 728 876 l 728 1051 q 709 1084 728 1078 q 676 1090 690 1090 l 256 1090 l 256 611 q 335 608 296 610 q 414 607 374 607 q 457 608 433 607 q 502 609 481 608 q 540 610 524 610 q 564 611 557 611 q 577 626 572 611 q 584 660 582 640 q 587 702 586 681 q 588 736 588 724 q 588 744 588 738 q 591 759 589 751 q 598 772 593 767 q 611 778 603 778 q 631 767 628 778 q 635 740 635 756 q 633 662 635 700 q 632 583 632 624 q 633 504 632 543 q 635 426 635 465 q 627 396 635 403 q 614 389 619 389 q 597 400 604 389 q 590 429 590 411 q 588 470 590 447 q 578 513 585 493 q 558 545 571 532 q 524 558 544 558 q 479 559 504 558 q 414 560 454 560 q 335 559 374 560 q 256 557 296 558 l 256 50 l 713 50 q 733 51 722 50 q 751 58 743 53 q 765 73 760 63 q 772 101 771 83 q 776 155 774 119 q 782 231 779 190 q 787 310 785 271 q 790 379 789 350 q 799 419 792 407 q 814 431 807 431 z "},"É":{"ha":893,"x_min":29,"x_max":840,"o":"m 531 1319 q 511 1291 531 1308 q 467 1257 492 1274 q 417 1228 442 1240 q 383 1215 393 1215 q 372 1231 372 1215 q 389 1264 372 1243 q 428 1303 406 1285 q 472 1336 450 1322 q 504 1350 494 1350 q 523 1344 515 1350 q 531 1319 531 1339 m 814 431 q 837 416 833 431 q 840 385 840 401 q 838 334 840 372 q 833 246 836 296 q 826 142 829 196 q 818 46 822 88 q 801 6 815 11 q 760 0 788 0 q 595 1 675 0 q 431 3 515 3 q 262 2 346 3 q 93 0 178 1 q 51 2 72 0 q 29 15 29 4 q 42 35 29 31 q 83 39 56 39 q 172 49 149 39 q 196 89 196 60 q 196 174 196 138 q 197 244 196 211 q 197 308 197 276 q 198 380 197 340 q 199 470 199 419 q 199 590 199 521 q 197 731 199 668 q 194 847 196 793 q 192 947 193 900 q 190 1042 190 994 q 180 1073 190 1063 q 153 1089 169 1083 q 120 1095 138 1094 q 89 1096 103 1096 q 49 1099 65 1096 q 33 1117 33 1101 q 51 1136 33 1132 q 90 1140 69 1140 q 185 1140 136 1140 q 278 1139 233 1139 q 360 1138 322 1139 q 425 1138 399 1138 q 509 1138 476 1138 q 573 1139 542 1139 q 642 1140 604 1139 q 740 1140 679 1140 q 769 1130 760 1140 q 779 1090 779 1119 l 779 904 q 775 859 779 878 q 756 840 771 840 q 731 858 735 840 q 728 896 728 876 l 728 1051 q 709 1084 728 1078 q 676 1090 690 1090 l 256 1090 l 256 611 q 335 608 296 610 q 414 607 374 607 q 457 608 433 607 q 502 609 481 608 q 540 610 524 610 q 564 611 557 611 q 577 626 572 611 q 584 660 582 640 q 587 702 586 681 q 588 736 588 724 q 588 744 588 738 q 591 759 589 751 q 598 772 593 767 q 611 778 603 778 q 631 767 628 778 q 635 740 635 756 q 633 662 635 700 q 632 583 632 624 q 633 504 632 543 q 635 426 635 465 q 627 396 635 403 q 614 389 619 389 q 597 400 604 389 q 590 429 590 411 q 588 470 590 447 q 578 513 585 493 q 558 545 571 532 q 524 558 544 558 q 479 559 504 558 q 414 560 454 560 q 335 559 374 560 q 256 557 296 558 l 256 50 l 713 50 q 733 51 722 50 q 751 58 743 53 q 765 73 760 63 q 772 101 771 83 q 776 155 774 119 q 782 231 779 190 q 787 310 785 271 q 790 379 789 350 q 799 419 792 407 q 814 431 807 431 z "},"Ĕ":{"ha":893,"x_min":29,"x_max":840,"o":"m 610 1317 q 596 1272 610 1292 q 560 1240 582 1253 q 510 1222 538 1228 q 456 1215 482 1215 q 349 1245 393 1215 q 306 1317 306 1275 q 329 1350 306 1350 q 349 1342 344 1350 q 353 1318 353 1335 q 361 1283 353 1297 q 384 1263 369 1269 q 417 1253 399 1256 q 456 1250 436 1250 q 492 1256 474 1250 q 526 1270 511 1261 q 551 1292 542 1279 q 560 1318 560 1304 q 583 1350 560 1350 q 602 1344 594 1350 q 610 1317 610 1339 m 814 431 q 837 416 833 431 q 840 385 840 401 q 838 334 840 372 q 833 246 836 296 q 826 142 829 196 q 818 46 822 88 q 801 6 815 11 q 760 0 788 0 q 595 1 675 0 q 431 3 515 3 q 262 2 346 3 q 93 0 178 1 q 51 2 72 0 q 29 15 29 4 q 42 35 29 31 q 83 39 56 39 q 172 49 149 39 q 196 89 196 60 q 196 174 196 138 q 197 244 196 211 q 197 308 197 276 q 198 380 197 340 q 199 470 199 419 q 199 590 199 521 q 197 731 199 668 q 194 847 196 793 q 192 947 193 900 q 190 1042 190 994 q 180 1073 190 1063 q 153 1089 169 1083 q 120 1095 138 1094 q 89 1096 103 1096 q 49 1099 65 1096 q 33 1117 33 1101 q 51 1136 33 1132 q 90 1140 69 1140 q 185 1140 136 1140 q 278 1139 233 1139 q 360 1138 322 1139 q 425 1138 399 1138 q 509 1138 476 1138 q 573 1139 542 1139 q 642 1140 604 1139 q 740 1140 679 1140 q 769 1130 760 1140 q 779 1090 779 1119 l 779 904 q 775 859 779 878 q 756 840 771 840 q 731 858 735 840 q 728 896 728 876 l 728 1051 q 709 1084 728 1078 q 676 1090 690 1090 l 256 1090 l 256 611 q 335 608 296 610 q 414 607 374 607 q 457 608 433 607 q 502 609 481 608 q 540 610 524 610 q 564 611 557 611 q 577 626 572 611 q 584 660 582 640 q 587 702 586 681 q 588 736 588 724 q 588 744 588 738 q 591 759 589 751 q 598 772 593 767 q 611 778 603 778 q 631 767 628 778 q 635 740 635 756 q 633 662 635 700 q 632 583 632 624 q 633 504 632 543 q 635 426 635 465 q 627 396 635 403 q 614 389 619 389 q 597 400 604 389 q 590 429 590 411 q 588 470 590 447 q 578 513 585 493 q 558 545 571 532 q 524 558 544 558 q 479 559 504 558 q 414 560 454 560 q 335 559 374 560 q 256 557 296 558 l 256 50 l 713 50 q 733 51 722 50 q 751 58 743 53 q 765 73 760 63 q 772 101 771 83 q 776 155 774 119 q 782 231 779 190 q 787 310 785 271 q 790 379 789 350 q 799 419 792 407 q 814 431 807 431 z "},"Ě":{"ha":893,"x_min":29,"x_max":840,"o":"m 614 1350 q 625 1335 625 1350 q 602 1302 625 1322 q 549 1263 579 1282 q 490 1231 519 1244 q 447 1217 460 1217 q 406 1231 435 1217 q 347 1263 378 1244 q 294 1302 317 1282 q 271 1335 271 1322 q 282 1350 271 1350 q 305 1343 289 1350 q 342 1326 321 1336 q 391 1303 364 1315 q 447 1278 418 1290 q 503 1303 476 1290 q 553 1326 531 1315 q 591 1343 575 1336 q 614 1350 607 1350 m 814 431 q 837 416 833 431 q 840 385 840 401 q 838 334 840 372 q 833 246 836 296 q 826 142 829 196 q 818 46 822 88 q 801 6 815 11 q 760 0 788 0 q 595 1 675 0 q 431 3 515 3 q 262 2 346 3 q 93 0 178 1 q 51 2 72 0 q 29 15 29 4 q 42 35 29 31 q 83 39 56 39 q 172 49 149 39 q 196 89 196 60 q 196 174 196 138 q 197 244 196 211 q 197 308 197 276 q 198 380 197 340 q 199 470 199 419 q 199 590 199 521 q 197 731 199 668 q 194 847 196 793 q 192 947 193 900 q 190 1042 190 994 q 180 1073 190 1063 q 153 1089 169 1083 q 120 1095 138 1094 q 89 1096 103 1096 q 49 1099 65 1096 q 33 1117 33 1101 q 51 1136 33 1132 q 90 1140 69 1140 q 185 1140 136 1140 q 278 1139 233 1139 q 360 1138 322 1139 q 425 1138 399 1138 q 509 1138 476 1138 q 573 1139 542 1139 q 642 1140 604 1139 q 740 1140 679 1140 q 769 1130 760 1140 q 779 1090 779 1119 l 779 904 q 775 859 779 878 q 756 840 771 840 q 731 858 735 840 q 728 896 728 876 l 728 1051 q 709 1084 728 1078 q 676 1090 690 1090 l 256 1090 l 256 611 q 335 608 296 610 q 414 607 374 607 q 457 608 433 607 q 502 609 481 608 q 540 610 524 610 q 564 611 557 611 q 577 626 572 611 q 584 660 582 640 q 587 702 586 681 q 588 736 588 724 q 588 744 588 738 q 591 759 589 751 q 598 772 593 767 q 611 778 603 778 q 631 767 628 778 q 635 740 635 756 q 633 662 635 700 q 632 583 632 624 q 633 504 632 543 q 635 426 635 465 q 627 396 635 403 q 614 389 619 389 q 597 400 604 389 q 590 429 590 411 q 588 470 590 447 q 578 513 585 493 q 558 545 571 532 q 524 558 544 558 q 479 559 504 558 q 414 560 454 560 q 335 559 374 560 q 256 557 296 558 l 256 50 l 713 50 q 733 51 722 50 q 751 58 743 53 q 765 73 760 63 q 772 101 771 83 q 776 155 774 119 q 782 231 779 190 q 787 310 785 271 q 790 379 789 350 q 799 419 792 407 q 814 431 807 431 z "},"Ê":{"ha":893,"x_min":29,"x_max":840,"o":"m 618 1215 q 593 1222 611 1215 q 551 1240 575 1229 q 501 1264 528 1251 q 451 1289 475 1276 q 401 1264 428 1276 q 351 1240 375 1251 q 310 1222 328 1229 q 286 1215 293 1215 q 275 1231 275 1215 q 298 1264 275 1243 q 351 1303 321 1285 q 410 1336 382 1322 q 451 1350 439 1350 q 494 1336 464 1350 q 553 1303 524 1322 q 606 1264 583 1285 q 629 1231 629 1243 q 618 1215 629 1215 m 814 431 q 837 416 833 431 q 840 385 840 401 q 838 334 840 372 q 833 246 836 296 q 826 142 829 196 q 818 46 822 88 q 801 6 815 11 q 760 0 788 0 q 595 1 675 0 q 431 3 515 3 q 262 2 346 3 q 93 0 178 1 q 51 2 72 0 q 29 15 29 4 q 42 35 29 31 q 83 39 56 39 q 172 49 149 39 q 196 89 196 60 q 196 174 196 138 q 197 244 196 211 q 197 308 197 276 q 198 380 197 340 q 199 470 199 419 q 199 590 199 521 q 197 731 199 668 q 194 847 196 793 q 192 947 193 900 q 190 1042 190 994 q 180 1073 190 1063 q 153 1089 169 1083 q 120 1095 138 1094 q 89 1096 103 1096 q 49 1099 65 1096 q 33 1117 33 1101 q 51 1136 33 1132 q 90 1140 69 1140 q 185 1140 136 1140 q 278 1139 233 1139 q 360 1138 322 1139 q 425 1138 399 1138 q 509 1138 476 1138 q 573 1139 542 1139 q 642 1140 604 1139 q 740 1140 679 1140 q 769 1130 760 1140 q 779 1090 779 1119 l 779 904 q 775 859 779 878 q 756 840 771 840 q 731 858 735 840 q 728 896 728 876 l 728 1051 q 709 1084 728 1078 q 676 1090 690 1090 l 256 1090 l 256 611 q 335 608 296 610 q 414 607 374 607 q 457 608 433 607 q 502 609 481 608 q 540 610 524 610 q 564 611 557 611 q 577 626 572 611 q 584 660 582 640 q 587 702 586 681 q 588 736 588 724 q 588 744 588 738 q 591 759 589 751 q 598 772 593 767 q 611 778 603 778 q 631 767 628 778 q 635 740 635 756 q 633 662 635 700 q 632 583 632 624 q 633 504 632 543 q 635 426 635 465 q 627 396 635 403 q 614 389 619 389 q 597 400 604 389 q 590 429 590 411 q 588 470 590 447 q 578 513 585 493 q 558 545 571 532 q 524 558 544 558 q 479 559 504 558 q 414 560 454 560 q 335 559 374 560 q 256 557 296 558 l 256 50 l 713 50 q 733 51 722 50 q 751 58 743 53 q 765 73 760 63 q 772 101 771 83 q 776 155 774 119 q 782 231 779 190 q 787 310 785 271 q 790 379 789 350 q 799 419 792 407 q 814 431 807 431 z "},"Ë":{"ha":893,"x_min":29,"x_max":840,"o":"m 258 1293 q 262 1310 258 1300 q 272 1328 265 1319 q 290 1344 279 1338 q 315 1350 300 1350 q 349 1336 335 1350 q 363 1299 363 1322 q 344 1248 363 1261 q 306 1235 325 1235 q 272 1251 286 1235 q 258 1293 258 1268 m 546 1274 q 549 1290 546 1281 q 560 1309 553 1300 q 577 1324 567 1318 q 603 1331 588 1331 q 636 1317 622 1331 q 650 1279 650 1303 q 631 1228 650 1242 q 593 1215 613 1215 q 560 1232 574 1215 q 546 1274 546 1249 m 814 431 q 837 416 833 431 q 840 385 840 401 q 838 334 840 372 q 833 246 836 296 q 826 142 829 196 q 818 46 822 88 q 801 6 815 11 q 760 0 788 0 q 595 1 675 0 q 431 3 515 3 q 262 2 346 3 q 93 0 178 1 q 51 2 72 0 q 29 15 29 4 q 42 35 29 31 q 83 39 56 39 q 172 49 149 39 q 196 89 196 60 q 196 174 196 138 q 197 244 196 211 q 197 308 197 276 q 198 380 197 340 q 199 470 199 419 q 199 590 199 521 q 197 731 199 668 q 194 847 196 793 q 192 947 193 900 q 190 1042 190 994 q 180 1073 190 1063 q 153 1089 169 1083 q 120 1095 138 1094 q 89 1096 103 1096 q 49 1099 65 1096 q 33 1117 33 1101 q 51 1136 33 1132 q 90 1140 69 1140 q 185 1140 136 1140 q 278 1139 233 1139 q 360 1138 322 1139 q 425 1138 399 1138 q 509 1138 476 1138 q 573 1139 542 1139 q 642 1140 604 1139 q 740 1140 679 1140 q 769 1130 760 1140 q 779 1090 779 1119 l 779 904 q 775 859 779 878 q 756 840 771 840 q 731 858 735 840 q 728 896 728 876 l 728 1051 q 709 1084 728 1078 q 676 1090 690 1090 l 256 1090 l 256 611 q 335 608 296 610 q 414 607 374 607 q 457 608 433 607 q 502 609 481 608 q 540 610 524 610 q 564 611 557 611 q 577 626 572 611 q 584 660 582 640 q 587 702 586 681 q 588 736 588 724 q 588 744 588 738 q 591 759 589 751 q 598 772 593 767 q 611 778 603 778 q 631 767 628 778 q 635 740 635 756 q 633 662 635 700 q 632 583 632 624 q 633 504 632 543 q 635 426 635 465 q 627 396 635 403 q 614 389 619 389 q 597 400 604 389 q 590 429 590 411 q 588 470 590 447 q 578 513 585 493 q 558 545 571 532 q 524 558 544 558 q 479 559 504 558 q 414 560 454 560 q 335 559 374 560 q 256 557 296 558 l 256 50 l 713 50 q 733 51 722 50 q 751 58 743 53 q 765 73 760 63 q 772 101 771 83 q 776 155 774 119 q 782 231 779 190 q 787 310 785 271 q 790 379 789 350 q 799 419 792 407 q 814 431 807 431 z "},"Ė":{"ha":893,"x_min":29,"x_max":840,"o":"m 814 431 q 837 416 833 431 q 840 385 840 401 q 838 334 840 372 q 833 246 836 296 q 826 142 829 196 q 818 46 822 88 q 801 6 815 11 q 760 0 788 0 q 595 1 675 0 q 431 3 515 3 q 262 2 346 3 q 93 0 178 1 q 51 2 72 0 q 29 15 29 4 q 42 35 29 31 q 83 39 56 39 q 172 49 149 39 q 196 89 196 60 q 196 174 196 138 q 197 244 196 211 q 197 308 197 276 q 198 380 197 340 q 199 470 199 419 q 199 590 199 521 q 197 731 199 668 q 194 847 196 793 q 192 947 193 900 q 190 1042 190 994 q 180 1073 190 1063 q 153 1089 169 1083 q 120 1095 138 1094 q 89 1096 103 1096 q 49 1099 65 1096 q 33 1117 33 1101 q 51 1136 33 1132 q 90 1140 69 1140 q 185 1140 136 1140 q 278 1139 233 1139 q 360 1138 322 1139 q 425 1138 399 1138 q 509 1138 476 1138 q 573 1139 542 1139 q 642 1140 604 1139 q 740 1140 679 1140 q 769 1130 760 1140 q 779 1090 779 1119 l 779 904 q 775 859 779 878 q 756 840 771 840 q 731 858 735 840 q 728 896 728 876 l 728 1051 q 709 1084 728 1078 q 676 1090 690 1090 l 256 1090 l 256 611 q 335 608 296 610 q 414 607 374 607 q 457 608 433 607 q 502 609 481 608 q 540 610 524 610 q 564 611 557 611 q 577 626 572 611 q 584 660 582 640 q 587 702 586 681 q 588 736 588 724 q 588 744 588 738 q 591 759 589 751 q 598 772 593 767 q 611 778 603 778 q 631 767 628 778 q 635 740 635 756 q 633 662 635 700 q 632 583 632 624 q 633 504 632 543 q 635 426 635 465 q 627 396 635 403 q 614 389 619 389 q 597 400 604 389 q 590 429 590 411 q 588 470 590 447 q 578 513 585 493 q 558 545 571 532 q 524 558 544 558 q 479 559 504 558 q 414 560 454 560 q 335 559 374 560 q 256 557 296 558 l 256 50 l 713 50 q 733 51 722 50 q 751 58 743 53 q 765 73 760 63 q 772 101 771 83 q 776 155 774 119 q 782 231 779 190 q 787 310 785 271 q 790 379 789 350 q 799 419 792 407 q 814 431 807 431 m 404 1293 q 408 1310 404 1300 q 418 1328 411 1319 q 435 1344 425 1338 q 461 1350 446 1350 q 494 1336 481 1350 q 508 1299 508 1322 q 490 1248 508 1261 q 451 1235 471 1235 q 418 1251 432 1235 q 404 1293 404 1268 z "},"È":{"ha":893,"x_min":29,"x_max":840,"o":"m 374 1319 q 381 1344 374 1339 q 400 1350 389 1350 q 432 1336 410 1350 q 476 1303 454 1322 q 515 1264 499 1285 q 532 1231 532 1243 q 521 1215 532 1215 q 487 1228 511 1215 q 438 1257 463 1240 q 393 1291 413 1274 q 374 1319 374 1308 m 814 431 q 837 416 833 431 q 840 385 840 401 q 838 334 840 372 q 833 246 836 296 q 826 142 829 196 q 818 46 822 88 q 801 6 815 11 q 760 0 788 0 q 595 1 675 0 q 431 3 515 3 q 262 2 346 3 q 93 0 178 1 q 51 2 72 0 q 29 15 29 4 q 42 35 29 31 q 83 39 56 39 q 172 49 149 39 q 196 89 196 60 q 196 174 196 138 q 197 244 196 211 q 197 308 197 276 q 198 380 197 340 q 199 470 199 419 q 199 590 199 521 q 197 731 199 668 q 194 847 196 793 q 192 947 193 900 q 190 1042 190 994 q 180 1073 190 1063 q 153 1089 169 1083 q 120 1095 138 1094 q 89 1096 103 1096 q 49 1099 65 1096 q 33 1117 33 1101 q 51 1136 33 1132 q 90 1140 69 1140 q 185 1140 136 1140 q 278 1139 233 1139 q 360 1138 322 1139 q 425 1138 399 1138 q 509 1138 476 1138 q 573 1139 542 1139 q 642 1140 604 1139 q 740 1140 679 1140 q 769 1130 760 1140 q 779 1090 779 1119 l 779 904 q 775 859 779 878 q 756 840 771 840 q 731 858 735 840 q 728 896 728 876 l 728 1051 q 709 1084 728 1078 q 676 1090 690 1090 l 256 1090 l 256 611 q 335 608 296 610 q 414 607 374 607 q 457 608 433 607 q 502 609 481 608 q 540 610 524 610 q 564 611 557 611 q 577 626 572 611 q 584 660 582 640 q 587 702 586 681 q 588 736 588 724 q 588 744 588 738 q 591 759 589 751 q 598 772 593 767 q 611 778 603 778 q 631 767 628 778 q 635 740 635 756 q 633 662 635 700 q 632 583 632 624 q 633 504 632 543 q 635 426 635 465 q 627 396 635 403 q 614 389 619 389 q 597 400 604 389 q 590 429 590 411 q 588 470 590 447 q 578 513 585 493 q 558 545 571 532 q 524 558 544 558 q 479 559 504 558 q 414 560 454 560 q 335 559 374 560 q 256 557 296 558 l 256 50 l 713 50 q 733 51 722 50 q 751 58 743 53 q 765 73 760 63 q 772 101 771 83 q 776 155 774 119 q 782 231 779 190 q 787 310 785 271 q 790 379 789 350 q 799 419 792 407 q 814 431 807 431 z "},"Ē":{"ha":893,"x_min":29,"x_max":840,"o":"m 814 431 q 837 416 833 431 q 840 385 840 401 q 838 334 840 372 q 833 246 836 296 q 826 142 829 196 q 818 46 822 88 q 801 6 815 11 q 760 0 788 0 q 595 1 675 0 q 431 3 515 3 q 262 2 346 3 q 93 0 178 1 q 51 2 72 0 q 29 15 29 4 q 42 35 29 31 q 83 39 56 39 q 172 49 149 39 q 196 89 196 60 q 196 174 196 138 q 197 244 196 211 q 197 308 197 276 q 198 380 197 340 q 199 470 199 419 q 199 590 199 521 q 197 731 199 668 q 194 847 196 793 q 192 947 193 900 q 190 1042 190 994 q 180 1073 190 1063 q 153 1089 169 1083 q 120 1095 138 1094 q 89 1096 103 1096 q 49 1099 65 1096 q 33 1117 33 1101 q 51 1136 33 1132 q 90 1140 69 1140 q 185 1140 136 1140 q 278 1139 233 1139 q 360 1138 322 1139 q 425 1138 399 1138 q 509 1138 476 1138 q 573 1139 542 1139 q 642 1140 604 1139 q 740 1140 679 1140 q 769 1130 760 1140 q 779 1090 779 1119 l 779 904 q 775 859 779 878 q 756 840 771 840 q 731 858 735 840 q 728 896 728 876 l 728 1051 q 709 1084 728 1078 q 676 1090 690 1090 l 256 1090 l 256 611 q 335 608 296 610 q 414 607 374 607 q 457 608 433 607 q 502 609 481 608 q 540 610 524 610 q 564 611 557 611 q 577 626 572 611 q 584 660 582 640 q 587 702 586 681 q 588 736 588 724 q 588 744 588 738 q 591 759 589 751 q 598 772 593 767 q 611 778 603 778 q 631 767 628 778 q 635 740 635 756 q 633 662 635 700 q 632 583 632 624 q 633 504 632 543 q 635 426 635 465 q 627 396 635 403 q 614 389 619 389 q 597 400 604 389 q 590 429 590 411 q 588 470 590 447 q 578 513 585 493 q 558 545 571 532 q 524 558 544 558 q 479 559 504 558 q 414 560 454 560 q 335 559 374 560 q 256 557 296 558 l 256 50 l 713 50 q 733 51 722 50 q 751 58 743 53 q 765 73 760 63 q 772 101 771 83 q 776 155 774 119 q 782 231 779 190 q 787 310 785 271 q 790 379 789 350 q 799 419 792 407 q 814 431 807 431 m 647 1260 q 658 1254 653 1260 q 663 1242 663 1249 q 657 1226 663 1235 q 636 1217 651 1217 q 562 1217 608 1217 q 465 1216 515 1217 q 371 1215 415 1215 q 301 1215 326 1215 q 285 1223 292 1215 q 279 1238 279 1231 q 285 1251 279 1244 q 301 1258 290 1258 q 332 1258 311 1258 q 378 1257 353 1257 q 427 1256 403 1257 q 469 1256 451 1256 q 571 1258 528 1256 q 647 1260 614 1260 z "},"Ŋ":{"ha":1094,"x_min":21,"x_max":1076,"o":"m 560 -153 q 574 -209 560 -189 q 607 -240 588 -229 q 648 -252 626 -250 q 685 -254 669 -254 q 762 -243 732 -254 q 809 -203 792 -232 q 835 -123 826 -174 q 847 8 843 -72 l 257 1025 l 257 43 l 363 43 q 391 36 378 43 q 404 18 404 29 q 376 0 404 0 l 110 0 q 71 3 89 0 q 53 19 53 7 q 66 35 53 31 q 93 39 79 39 q 170 48 142 39 q 199 103 199 57 q 199 189 199 151 q 199 267 199 226 q 200 360 200 308 q 200 488 200 411 q 200 578 200 526 q 199 684 200 629 q 198 793 199 739 q 197 891 197 847 q 196 965 196 935 q 196 1001 196 994 q 169 1075 196 1056 q 111 1094 143 1094 q 39 1099 57 1094 q 21 1118 21 1103 q 35 1135 21 1131 q 88 1140 49 1140 l 238 1140 q 264 1131 254 1140 q 293 1085 274 1121 q 401 897 344 996 q 513 701 457 799 q 623 510 569 603 q 722 338 676 417 q 801 201 767 260 q 851 111 835 142 l 851 1043 q 840 1062 851 1056 q 810 1071 828 1068 q 774 1074 793 1074 q 740 1075 754 1075 q 707 1078 725 1075 q 689 1096 689 1082 q 708 1114 689 1111 q 740 1117 728 1117 l 1006 1117 q 1063 1112 1050 1117 q 1076 1096 1076 1107 q 1059 1078 1076 1081 q 1024 1075 1042 1075 q 994 1074 1014 1075 q 956 1070 975 1074 q 924 1060 938 1067 q 910 1040 910 1053 q 908 926 908 968 q 907 862 907 883 q 907 833 907 840 q 907 825 907 826 q 908 542 907 654 q 908 358 908 431 q 909 244 908 286 q 910 169 910 201 q 900 -51 910 39 q 865 -198 890 -142 q 798 -279 840 -254 q 689 -304 756 -304 q 625 -298 657 -304 q 568 -275 593 -292 q 527 -231 543 -258 q 511 -158 511 -203 q 519 -102 511 -129 q 540 -54 526 -75 q 575 -21 554 -33 q 621 -8 596 -8 q 662 -21 646 -8 q 678 -56 678 -33 q 660 -93 678 -81 q 626 -106 643 -106 q 606 -99 615 -106 q 589 -85 596 -93 q 565 -112 571 -92 q 560 -153 560 -133 z "},"Ę":{"ha":893,"x_min":29,"x_max":840,"o":"m 814 431 q 837 416 833 431 q 840 385 840 401 q 838 334 840 372 q 833 246 836 296 q 826 142 829 196 q 818 46 822 88 q 801 6 815 11 q 760 0 788 0 q 608 0 681 0 q 458 1 535 0 q 416 -56 426 -22 q 406 -104 406 -89 q 408 -124 406 -112 q 416 -145 410 -135 q 433 -162 422 -156 q 460 -169 443 -169 q 490 -161 478 -169 q 512 -142 503 -153 q 528 -123 521 -132 q 546 -114 536 -114 q 562 -121 558 -114 q 565 -136 565 -128 q 558 -153 565 -142 q 535 -177 550 -165 q 501 -198 521 -189 q 457 -207 482 -207 q 376 -178 408 -207 q 344 -106 344 -150 q 367 -39 344 -65 q 410 3 389 -12 q 251 2 331 3 q 93 0 172 1 q 51 2 72 0 q 29 15 29 4 q 42 35 29 31 q 83 39 56 39 q 172 49 149 39 q 196 89 196 60 q 196 174 196 138 q 197 244 196 211 q 197 308 197 276 q 198 380 197 340 q 199 470 199 419 q 199 590 199 521 q 197 731 199 668 q 194 847 196 793 q 192 947 193 900 q 190 1042 190 994 q 180 1073 190 1063 q 153 1089 169 1083 q 120 1095 138 1094 q 89 1096 103 1096 q 49 1099 65 1096 q 33 1117 33 1101 q 51 1136 33 1132 q 90 1140 69 1140 q 185 1140 136 1140 q 278 1139 233 1139 q 360 1138 322 1139 q 425 1138 399 1138 q 509 1138 476 1138 q 573 1139 542 1139 q 642 1140 604 1139 q 740 1140 679 1140 q 769 1130 760 1140 q 779 1090 779 1119 l 779 904 q 775 859 779 878 q 756 840 771 840 q 731 858 735 840 q 728 896 728 876 l 728 1051 q 709 1084 728 1078 q 676 1090 690 1090 l 256 1090 l 256 611 q 335 608 296 610 q 414 607 374 607 q 457 608 433 607 q 502 609 481 608 q 540 610 524 610 q 564 611 557 611 q 577 626 572 611 q 584 660 582 640 q 587 702 586 681 q 588 736 588 724 q 588 744 588 738 q 591 759 589 751 q 598 772 593 767 q 611 778 603 778 q 631 767 628 778 q 635 740 635 756 q 633 662 635 700 q 632 583 632 624 q 633 504 632 543 q 635 426 635 465 q 627 396 635 403 q 614 389 619 389 q 597 400 604 389 q 590 429 590 411 q 588 470 590 447 q 578 513 585 493 q 558 545 571 532 q 524 558 544 558 q 479 559 504 558 q 414 560 454 560 q 335 559 374 560 q 256 557 296 558 l 256 50 l 713 50 q 733 51 722 50 q 751 58 743 53 q 765 73 760 63 q 772 101 771 83 q 776 155 774 119 q 782 231 779 190 q 787 310 785 271 q 790 379 789 350 q 799 419 792 407 q 814 431 807 431 z "},"Ð":{"ha":936,"x_min":29,"x_max":881,"o":"m 63 1136 q 198 1140 132 1139 q 349 1140 264 1140 q 531 1113 436 1140 q 703 1022 625 1085 q 831 858 781 960 q 881 610 881 757 q 847 374 881 485 q 744 180 813 263 q 574 49 676 97 q 335 0 471 0 l 79 0 q 42 3 56 0 q 29 17 29 6 q 39 33 29 26 q 72 39 49 39 q 112 40 90 39 q 152 43 133 40 q 183 53 171 46 q 196 72 196 60 q 196 198 196 144 q 197 302 196 251 q 197 408 197 353 q 197 540 197 464 l 65 540 q 49 551 56 540 q 43 568 43 561 q 49 585 43 575 q 65 594 54 594 q 121 593 81 594 q 197 592 161 592 l 197 607 q 196 692 197 633 q 192 815 194 750 q 189 942 190 881 q 188 1038 188 1003 q 179 1070 188 1058 q 155 1088 171 1082 q 117 1094 139 1093 q 65 1096 94 1096 q 40 1103 47 1096 q 33 1118 33 1111 q 63 1136 33 1135 m 340 1092 q 297 1090 319 1092 q 254 1086 275 1088 l 254 592 q 342 594 303 592 q 411 596 381 596 q 422 588 417 596 q 426 572 426 579 q 421 553 426 565 q 400 542 415 542 q 337 541 376 542 q 254 540 297 540 l 254 61 q 263 53 254 56 q 285 49 272 50 q 313 47 297 47 q 340 47 328 47 q 556 90 465 47 q 704 209 646 133 q 790 388 763 285 q 818 610 818 490 q 790 797 818 710 q 704 950 763 885 q 556 1053 646 1015 q 340 1092 465 1092 z "},"Ẽ":{"ha":893,"x_min":29,"x_max":840,"o":"m 814 431 q 837 416 833 431 q 840 385 840 401 q 838 334 840 372 q 833 246 836 296 q 826 142 829 196 q 818 46 822 88 q 801 6 815 11 q 760 0 788 0 q 595 1 675 0 q 431 3 515 3 q 262 2 346 3 q 93 0 178 1 q 51 2 72 0 q 29 15 29 4 q 42 35 29 31 q 83 39 56 39 q 172 49 149 39 q 196 89 196 60 q 196 174 196 138 q 197 244 196 211 q 197 308 197 276 q 198 380 197 340 q 199 470 199 419 q 199 590 199 521 q 197 731 199 668 q 194 847 196 793 q 192 947 193 900 q 190 1042 190 994 q 180 1073 190 1063 q 153 1089 169 1083 q 120 1095 138 1094 q 89 1096 103 1096 q 49 1099 65 1096 q 33 1117 33 1101 q 51 1136 33 1132 q 90 1140 69 1140 q 185 1140 136 1140 q 278 1139 233 1139 q 360 1138 322 1139 q 425 1138 399 1138 q 509 1138 476 1138 q 573 1139 542 1139 q 642 1140 604 1139 q 740 1140 679 1140 q 769 1130 760 1140 q 779 1090 779 1119 l 779 904 q 775 859 779 878 q 756 840 771 840 q 731 858 735 840 q 728 896 728 876 l 728 1051 q 709 1084 728 1078 q 676 1090 690 1090 l 256 1090 l 256 611 q 335 608 296 610 q 414 607 374 607 q 457 608 433 607 q 502 609 481 608 q 540 610 524 610 q 564 611 557 611 q 577 626 572 611 q 584 660 582 640 q 587 702 586 681 q 588 736 588 724 q 588 744 588 738 q 591 759 589 751 q 598 772 593 767 q 611 778 603 778 q 631 767 628 778 q 635 740 635 756 q 633 662 635 700 q 632 583 632 624 q 633 504 632 543 q 635 426 635 465 q 627 396 635 403 q 614 389 619 389 q 597 400 604 389 q 590 429 590 411 q 588 470 590 447 q 578 513 585 493 q 558 545 571 532 q 524 558 544 558 q 479 559 504 558 q 414 560 454 560 q 335 559 374 560 q 256 557 296 558 l 256 50 l 713 50 q 733 51 722 50 q 751 58 743 53 q 765 73 760 63 q 772 101 771 83 q 776 155 774 119 q 782 231 779 190 q 787 310 785 271 q 790 379 789 350 q 799 419 792 407 q 814 431 807 431 m 203 1254 q 243 1293 203 1269 q 338 1318 286 1318 q 383 1312 358 1318 q 432 1299 407 1306 q 482 1285 457 1292 q 528 1279 507 1279 q 611 1303 564 1279 q 638 1317 631 1314 q 653 1321 646 1321 q 665 1314 660 1321 q 671 1297 671 1307 q 660 1274 671 1285 q 629 1253 649 1263 q 584 1240 610 1244 q 529 1235 558 1235 q 477 1240 503 1235 q 427 1251 451 1244 q 381 1263 403 1257 q 339 1268 358 1268 q 300 1263 318 1268 q 267 1251 282 1257 q 240 1239 251 1244 q 222 1233 229 1233 q 209 1240 215 1233 q 203 1254 203 1247 z "},"€":{"ha":863,"x_min":44,"x_max":806,"o":"m 801 231 q 785 142 801 186 q 734 62 769 97 q 642 3 699 26 q 501 -19 585 -19 q 381 3 439 -19 q 277 73 324 25 q 197 195 231 121 q 147 374 164 269 l 67 374 q 51 382 57 374 q 44 397 44 390 q 50 412 44 404 q 67 419 56 419 q 97 419 78 419 q 140 418 117 418 q 135 487 138 451 q 133 563 133 522 l 133 604 l 67 604 q 51 613 57 604 q 44 628 44 621 q 50 642 44 635 q 67 650 56 650 q 95 649 76 650 q 136 649 114 649 q 176 853 144 758 q 256 1017 207 947 q 372 1125 306 1086 q 519 1164 439 1164 q 620 1148 569 1164 q 713 1093 671 1132 q 780 989 754 1054 q 806 826 806 924 q 801 793 806 807 q 779 779 797 779 q 755 805 760 779 q 750 861 750 831 q 735 965 750 917 q 692 1047 721 1013 q 621 1101 664 1082 q 521 1121 578 1121 q 390 1083 447 1121 q 293 979 333 1044 q 229 828 253 914 q 199 647 206 743 l 235 647 q 350 649 293 647 q 440 651 407 651 q 451 645 446 651 q 456 632 456 639 q 450 615 456 625 q 429 606 444 606 q 386 606 413 606 q 328 605 360 606 q 263 604 297 604 q 196 604 229 604 l 196 561 q 197 488 196 524 q 203 417 199 451 l 235 417 q 350 419 293 417 q 440 421 407 421 q 451 415 446 421 q 456 401 456 408 q 450 385 456 394 q 429 375 444 375 q 388 375 413 375 q 334 374 364 375 q 272 374 304 374 q 208 374 239 374 q 242 233 219 297 q 302 123 265 169 q 391 51 339 76 q 513 25 443 25 q 598 33 558 25 q 669 61 638 40 q 723 117 700 82 q 758 207 746 153 q 761 226 760 215 q 765 247 763 238 q 771 264 767 257 q 782 271 775 271 q 801 231 801 271 z "},"F":{"ha":794,"x_min":29,"x_max":779,"o":"m 194 100 q 199 390 197 246 q 200 679 200 533 q 199 775 200 731 q 196 862 197 819 q 193 948 194 904 q 192 1044 192 992 q 165 1085 192 1072 q 64 1099 139 1099 q 39 1106 44 1099 q 33 1119 33 1113 q 50 1138 33 1135 q 86 1140 67 1140 q 263 1139 175 1140 q 440 1138 351 1138 q 586 1139 514 1138 q 732 1140 658 1140 q 770 1125 761 1140 q 779 1074 779 1110 l 779 904 q 778 885 779 896 q 776 864 778 874 q 769 847 774 854 q 756 840 764 840 q 732 860 736 840 q 728 904 728 879 l 728 1033 q 715 1082 728 1074 q 674 1090 701 1090 l 256 1090 l 256 611 q 334 608 296 608 q 411 608 372 608 q 456 609 431 608 q 503 610 481 610 q 544 610 526 610 q 568 611 563 611 q 579 624 575 611 q 585 655 583 638 q 588 689 588 672 q 588 713 588 706 q 591 759 588 740 q 614 778 594 778 q 632 756 629 778 q 635 713 635 735 q 633 644 635 678 q 632 576 632 611 q 633 508 632 542 q 635 440 635 474 q 631 399 635 411 q 614 388 626 388 q 590 426 593 388 q 584 492 590 467 q 568 533 578 518 q 548 553 558 547 q 529 558 538 558 q 472 560 501 560 q 415 561 443 561 q 256 557 335 561 q 256 494 256 529 q 255 421 256 458 q 254 348 254 383 q 254 285 254 313 q 255 218 254 257 q 256 142 256 179 q 258 77 257 106 q 258 42 258 49 l 421 42 q 447 35 436 42 q 457 15 457 29 q 429 0 457 0 l 89 0 q 50 2 71 0 q 29 18 29 4 q 68 39 29 39 q 160 48 128 39 q 194 100 193 57 z "},"G":{"ha":882,"x_min":57,"x_max":804,"o":"m 717 374 q 577 369 647 374 q 432 364 507 364 q 391 371 403 364 q 379 386 379 378 q 403 404 379 400 q 450 410 426 408 q 612 418 536 414 q 763 425 688 422 q 792 415 779 425 q 804 379 804 404 q 803 317 804 356 q 801 228 801 278 q 803 118 801 165 q 804 46 804 71 q 797 24 804 31 q 782 17 789 17 q 758 47 758 17 q 760 102 758 71 q 761 143 761 133 q 704 68 738 99 q 633 18 671 38 q 553 -10 594 -1 q 471 -19 511 -19 q 323 10 397 -19 q 190 109 249 40 q 94 289 131 178 q 57 561 57 400 q 89 792 57 682 q 178 984 121 901 q 315 1115 235 1067 q 492 1164 396 1164 q 637 1120 567 1164 q 746 975 707 1076 l 739 1099 q 746 1121 739 1113 q 763 1129 753 1129 q 783 1122 774 1129 q 793 1097 793 1114 q 790 998 793 1040 q 788 900 788 956 q 789 818 788 864 q 790 736 790 772 q 788 678 790 697 q 765 658 785 658 q 748 666 754 658 q 739 685 742 674 q 735 710 736 697 q 735 732 735 722 q 721 890 735 818 q 676 1013 707 961 q 597 1092 646 1064 q 479 1121 549 1121 q 340 1076 406 1121 q 226 956 275 1032 q 148 778 176 881 q 119 561 119 676 q 139 367 119 463 q 201 195 158 271 q 313 73 243 119 q 482 26 382 26 q 582 43 533 26 q 668 94 631 60 q 728 183 706 129 q 751 313 751 238 q 747 361 751 349 q 717 374 743 374 z "},"Ğ":{"ha":882,"x_min":57,"x_max":804,"o":"m 639 1317 q 625 1272 639 1292 q 589 1240 611 1253 q 539 1222 567 1228 q 485 1215 511 1215 q 378 1245 422 1215 q 335 1317 335 1275 q 358 1350 335 1350 q 378 1342 374 1350 q 382 1318 382 1335 q 390 1283 382 1297 q 413 1263 399 1269 q 447 1253 428 1256 q 485 1250 465 1250 q 522 1256 503 1250 q 556 1270 540 1261 q 580 1292 571 1279 q 589 1318 589 1304 q 613 1350 589 1350 q 631 1344 624 1350 q 639 1317 639 1339 m 717 374 q 577 369 647 374 q 432 364 507 364 q 391 371 403 364 q 379 386 379 378 q 403 404 379 400 q 450 410 426 408 q 612 418 536 414 q 763 425 688 422 q 792 415 779 425 q 804 379 804 404 q 803 317 804 356 q 801 228 801 278 q 803 118 801 165 q 804 46 804 71 q 797 24 804 31 q 782 17 789 17 q 758 47 758 17 q 760 102 758 71 q 761 143 761 133 q 704 68 738 99 q 633 18 671 38 q 553 -10 594 -1 q 471 -19 511 -19 q 323 10 397 -19 q 190 109 249 40 q 94 289 131 178 q 57 561 57 400 q 89 792 57 682 q 178 984 121 901 q 315 1115 235 1067 q 492 1164 396 1164 q 637 1120 567 1164 q 746 975 707 1076 l 739 1099 q 746 1121 739 1113 q 763 1129 753 1129 q 783 1122 774 1129 q 793 1097 793 1114 q 790 998 793 1040 q 788 900 788 956 q 789 818 788 864 q 790 736 790 772 q 788 678 790 697 q 765 658 785 658 q 748 666 754 658 q 739 685 742 674 q 735 710 736 697 q 735 732 735 722 q 721 890 735 818 q 676 1013 707 961 q 597 1092 646 1064 q 479 1121 549 1121 q 340 1076 406 1121 q 226 956 275 1032 q 148 778 176 881 q 119 561 119 676 q 139 367 119 463 q 201 195 158 271 q 313 73 243 119 q 482 26 382 26 q 582 43 533 26 q 668 94 631 60 q 728 183 706 129 q 751 313 751 238 q 747 361 751 349 q 717 374 743 374 z "},"Ĝ":{"ha":882,"x_min":57,"x_max":804,"o":"m 647 1215 q 624 1222 640 1215 q 586 1240 608 1229 q 537 1264 564 1251 q 481 1289 510 1276 q 424 1264 451 1276 q 376 1240 397 1251 q 338 1222 354 1229 q 315 1215 322 1215 q 304 1231 304 1215 q 327 1264 304 1243 q 381 1303 350 1285 q 440 1336 411 1322 q 481 1350 468 1350 q 523 1336 493 1350 q 583 1303 553 1322 q 635 1264 613 1285 q 658 1231 658 1243 q 647 1215 658 1215 m 717 374 q 577 369 647 374 q 432 364 507 364 q 391 371 403 364 q 379 386 379 378 q 403 404 379 400 q 450 410 426 408 q 612 418 536 414 q 763 425 688 422 q 792 415 779 425 q 804 379 804 404 q 803 317 804 356 q 801 228 801 278 q 803 118 801 165 q 804 46 804 71 q 797 24 804 31 q 782 17 789 17 q 758 47 758 17 q 760 102 758 71 q 761 143 761 133 q 704 68 738 99 q 633 18 671 38 q 553 -10 594 -1 q 471 -19 511 -19 q 323 10 397 -19 q 190 109 249 40 q 94 289 131 178 q 57 561 57 400 q 89 792 57 682 q 178 984 121 901 q 315 1115 235 1067 q 492 1164 396 1164 q 637 1120 567 1164 q 746 975 707 1076 l 739 1099 q 746 1121 739 1113 q 763 1129 753 1129 q 783 1122 774 1129 q 793 1097 793 1114 q 790 998 793 1040 q 788 900 788 956 q 789 818 788 864 q 790 736 790 772 q 788 678 790 697 q 765 658 785 658 q 748 666 754 658 q 739 685 742 674 q 735 710 736 697 q 735 732 735 722 q 721 890 735 818 q 676 1013 707 961 q 597 1092 646 1064 q 479 1121 549 1121 q 340 1076 406 1121 q 226 956 275 1032 q 148 778 176 881 q 119 561 119 676 q 139 367 119 463 q 201 195 158 271 q 313 73 243 119 q 482 26 382 26 q 582 43 533 26 q 668 94 631 60 q 728 183 706 129 q 751 313 751 238 q 747 361 751 349 q 717 374 743 374 z "},"Ģ":{"ha":883,"x_min":58,"x_max":806,"o":"m 718 374 q 578 369 649 374 q 433 364 508 364 q 392 371 404 364 q 381 386 381 378 q 404 404 381 400 q 451 410 428 408 q 613 418 538 414 q 764 425 689 422 q 793 415 781 425 q 806 379 806 404 q 804 317 806 356 q 803 228 803 278 q 804 118 803 165 q 806 46 806 71 q 798 24 806 31 q 783 17 790 17 q 760 47 760 17 q 761 102 760 71 q 763 143 763 133 q 706 68 739 99 q 634 18 672 38 q 554 -10 596 -1 q 472 -19 513 -19 q 324 10 399 -19 q 191 109 250 40 q 95 289 132 178 q 58 561 58 400 q 90 792 58 682 q 179 984 122 901 q 317 1115 236 1067 q 493 1164 397 1164 q 638 1120 568 1164 q 747 975 708 1076 l 740 1099 q 747 1121 740 1113 q 764 1129 754 1129 q 785 1122 775 1129 q 794 1097 794 1114 q 792 998 794 1040 q 789 900 789 956 q 790 818 789 864 q 792 736 792 772 q 789 678 792 697 q 767 658 786 658 q 749 666 756 658 q 740 685 743 674 q 737 710 738 697 q 736 732 736 722 q 722 890 736 818 q 678 1013 708 961 q 599 1092 647 1064 q 481 1121 550 1121 q 342 1076 407 1121 q 227 956 276 1032 q 149 778 178 881 q 121 561 121 676 q 140 367 121 463 q 202 195 160 271 q 314 73 244 119 q 483 26 383 26 q 583 43 535 26 q 669 94 632 60 q 730 183 707 129 q 753 313 753 238 q 749 361 753 349 q 718 374 744 374 m 424 -139 q 438 -106 424 -121 q 479 -92 451 -92 q 519 -108 500 -92 q 538 -171 538 -124 q 533 -203 538 -185 q 522 -240 529 -222 q 503 -269 515 -257 q 478 -281 492 -281 q 465 -276 471 -281 q 458 -264 458 -271 q 466 -234 458 -254 q 474 -200 474 -214 q 466 -187 474 -192 q 449 -177 458 -182 q 431 -164 439 -172 q 424 -139 424 -156 z "},"Ġ":{"ha":882,"x_min":57,"x_max":804,"o":"m 717 374 q 577 369 647 374 q 432 364 507 364 q 391 371 403 364 q 379 386 379 378 q 403 404 379 400 q 450 410 426 408 q 612 418 536 414 q 763 425 688 422 q 792 415 779 425 q 804 379 804 404 q 803 317 804 356 q 801 228 801 278 q 803 118 801 165 q 804 46 804 71 q 797 24 804 31 q 782 17 789 17 q 758 47 758 17 q 760 102 758 71 q 761 143 761 133 q 704 68 738 99 q 633 18 671 38 q 553 -10 594 -1 q 471 -19 511 -19 q 323 10 397 -19 q 190 109 249 40 q 94 289 131 178 q 57 561 57 400 q 89 792 57 682 q 178 984 121 901 q 315 1115 235 1067 q 492 1164 396 1164 q 637 1120 567 1164 q 746 975 707 1076 l 739 1099 q 746 1121 739 1113 q 763 1129 753 1129 q 783 1122 774 1129 q 793 1097 793 1114 q 790 998 793 1040 q 788 900 788 956 q 789 818 788 864 q 790 736 790 772 q 788 678 790 697 q 765 658 785 658 q 748 666 754 658 q 739 685 742 674 q 735 710 736 697 q 735 732 735 722 q 721 890 735 818 q 676 1013 707 961 q 597 1092 646 1064 q 479 1121 549 1121 q 340 1076 406 1121 q 226 956 275 1032 q 148 778 176 881 q 119 561 119 676 q 139 367 119 463 q 201 195 158 271 q 313 73 243 119 q 482 26 382 26 q 582 43 533 26 q 668 94 631 60 q 728 183 706 129 q 751 313 751 238 q 747 361 751 349 q 717 374 743 374 m 433 1293 q 437 1310 433 1300 q 447 1328 440 1319 q 465 1344 454 1338 q 490 1350 475 1350 q 524 1336 510 1350 q 538 1299 538 1322 q 519 1248 538 1261 q 481 1235 500 1235 q 447 1251 461 1235 q 433 1293 433 1268 z "},"H":{"ha":1076,"x_min":29,"x_max":1060,"o":"m 874 1044 q 874 990 874 1026 q 873 908 874 954 q 872 812 872 863 q 872 713 872 761 q 871 624 871 665 q 871 557 871 583 q 873 360 871 458 q 878 178 875 261 q 883 39 881 96 q 885 -33 885 -18 l 1018 -33 q 1047 -40 1033 -33 q 1060 -58 1060 -47 q 1032 -76 1060 -76 l 743 -76 q 705 -73 724 -76 q 686 -58 686 -69 q 700 -42 686 -46 q 726 -37 714 -37 q 756 -37 740 -37 q 785 -30 772 -36 q 807 -10 799 -24 q 815 26 815 3 l 815 557 q 711 558 761 557 q 620 559 667 558 q 538 560 574 560 q 396 559 467 560 q 254 557 325 558 l 254 43 l 388 43 q 422 36 414 43 q 429 18 429 29 q 401 0 429 0 l 107 0 q 69 3 88 0 q 50 18 50 7 q 64 35 50 31 q 90 39 78 39 q 122 40 104 39 q 155 47 139 40 q 181 66 171 53 q 192 103 192 79 q 194 326 192 217 q 197 557 197 435 q 194 812 197 679 q 192 1067 192 944 q 180 1085 192 1079 q 151 1094 168 1092 q 114 1098 133 1097 q 81 1099 94 1099 q 47 1102 65 1099 q 29 1119 29 1106 q 49 1138 29 1135 q 81 1140 68 1140 l 333 1140 q 391 1135 378 1140 q 404 1119 404 1131 q 387 1101 404 1104 q 353 1099 369 1099 q 330 1098 346 1099 q 297 1094 314 1097 q 267 1084 281 1092 q 254 1064 254 1076 l 254 610 q 396 607 325 607 q 538 607 467 607 q 620 607 572 607 q 711 608 668 607 q 783 609 754 608 q 811 610 813 610 l 811 1047 q 801 1066 811 1060 q 777 1075 792 1072 q 745 1078 763 1078 q 714 1079 728 1079 q 681 1083 699 1079 q 663 1100 663 1086 q 682 1118 663 1115 q 714 1121 701 1121 l 967 1121 q 1024 1116 1011 1121 q 1038 1100 1038 1111 q 1020 1082 1038 1085 q 986 1079 1003 1079 q 961 1078 979 1079 q 924 1075 943 1078 q 889 1065 904 1072 q 874 1044 874 1057 z "},"Ħ":{"ha":1076,"x_min":29,"x_max":1060,"o":"m 953 842 q 963 835 958 842 q 968 821 968 829 q 963 803 968 814 q 942 793 957 793 l 871 793 l 871 557 q 873 360 871 458 q 878 178 875 261 q 883 39 881 96 q 885 -33 885 -18 l 1018 -33 q 1047 -40 1033 -33 q 1060 -58 1060 -47 q 1032 -76 1060 -76 l 743 -76 q 705 -73 724 -76 q 686 -58 686 -69 q 700 -42 686 -46 q 726 -37 714 -37 q 756 -37 740 -37 q 785 -30 772 -36 q 807 -10 799 -24 q 815 26 815 3 l 815 557 q 711 558 761 557 q 620 559 667 558 q 538 560 574 560 q 396 559 467 560 q 254 557 325 558 l 254 43 l 388 43 q 422 36 414 43 q 429 18 429 29 q 401 0 429 0 l 107 0 q 69 3 88 0 q 50 18 50 7 q 64 35 50 31 q 90 39 78 39 q 122 40 104 39 q 155 47 139 40 q 181 66 171 53 q 192 103 192 79 q 194 326 192 217 q 197 557 197 435 q 197 672 197 613 q 194 792 196 731 l 118 792 q 102 800 108 792 q 96 817 96 808 q 101 833 96 825 q 118 840 107 840 l 193 840 q 192 956 192 899 q 192 1067 192 1013 q 180 1085 192 1079 q 151 1094 168 1092 q 114 1098 133 1097 q 81 1099 94 1099 q 47 1102 65 1099 q 29 1119 29 1106 q 49 1138 29 1135 q 81 1140 68 1140 l 333 1140 q 391 1135 378 1140 q 404 1119 404 1131 q 387 1101 404 1104 q 353 1099 369 1099 q 330 1098 346 1099 q 297 1094 314 1097 q 267 1084 281 1092 q 254 1064 254 1076 l 254 839 q 342 839 296 839 q 428 838 388 839 q 499 838 468 838 q 540 838 529 838 q 588 838 557 838 q 655 838 618 838 q 733 840 692 839 q 811 840 774 840 l 811 1047 q 801 1066 811 1060 q 777 1075 792 1072 q 745 1078 763 1078 q 714 1079 728 1079 q 681 1083 699 1079 q 663 1100 663 1086 q 682 1118 663 1115 q 714 1121 701 1121 l 967 1121 q 1024 1116 1011 1121 q 1038 1100 1038 1111 q 1020 1082 1038 1085 q 986 1079 1003 1079 q 961 1078 979 1079 q 924 1075 943 1078 q 889 1065 904 1072 q 874 1044 874 1057 q 873 963 874 1018 q 872 840 872 907 q 922 842 900 842 q 953 842 943 842 m 538 607 q 620 607 572 607 q 711 608 668 607 q 783 609 754 608 q 811 610 813 610 l 811 793 q 680 793 751 793 q 534 792 608 793 q 387 792 460 792 q 254 792 314 792 l 254 610 q 396 607 325 607 q 538 607 467 607 z "},"Ĥ":{"ha":1076,"x_min":29,"x_max":1060,"o":"m 706 1217 q 681 1224 699 1217 q 639 1241 663 1231 q 589 1264 615 1251 q 539 1289 563 1276 q 489 1264 515 1276 q 440 1241 463 1251 q 399 1224 417 1231 q 374 1217 381 1217 q 363 1232 363 1217 q 385 1265 363 1244 q 439 1303 408 1285 q 498 1336 469 1322 q 539 1350 526 1350 q 581 1336 551 1350 q 641 1303 611 1322 q 694 1265 671 1285 q 717 1232 717 1244 q 706 1217 717 1217 m 874 1044 q 874 990 874 1026 q 873 908 874 954 q 872 812 872 863 q 872 713 872 761 q 871 624 871 665 q 871 557 871 583 q 873 360 871 458 q 878 178 875 261 q 883 39 881 96 q 885 -33 885 -18 l 1018 -33 q 1047 -40 1033 -33 q 1060 -58 1060 -47 q 1032 -76 1060 -76 l 743 -76 q 705 -73 724 -76 q 686 -58 686 -69 q 700 -42 686 -46 q 726 -37 714 -37 q 756 -37 740 -37 q 785 -30 772 -36 q 807 -10 799 -24 q 815 26 815 3 l 815 557 q 711 558 761 557 q 620 559 667 558 q 538 560 574 560 q 396 559 467 560 q 254 557 325 558 l 254 43 l 388 43 q 422 36 414 43 q 429 18 429 29 q 401 0 429 0 l 107 0 q 69 3 88 0 q 50 18 50 7 q 64 35 50 31 q 90 39 78 39 q 122 40 104 39 q 155 47 139 40 q 181 66 171 53 q 192 103 192 79 q 194 326 192 217 q 197 557 197 435 q 194 812 197 679 q 192 1067 192 944 q 180 1085 192 1079 q 151 1094 168 1092 q 114 1098 133 1097 q 81 1099 94 1099 q 47 1102 65 1099 q 29 1119 29 1106 q 49 1138 29 1135 q 81 1140 68 1140 l 333 1140 q 391 1135 378 1140 q 404 1119 404 1131 q 387 1101 404 1104 q 353 1099 369 1099 q 330 1098 346 1099 q 297 1094 314 1097 q 267 1084 281 1092 q 254 1064 254 1076 l 254 610 q 396 607 325 607 q 538 607 467 607 q 620 607 572 607 q 711 608 668 607 q 783 609 754 608 q 811 610 813 610 l 811 1047 q 801 1066 811 1060 q 777 1075 792 1072 q 745 1078 763 1078 q 714 1079 728 1079 q 681 1083 699 1079 q 663 1100 663 1086 q 682 1118 663 1115 q 714 1121 701 1121 l 967 1121 q 1024 1116 1011 1121 q 1038 1100 1038 1111 q 1020 1082 1038 1085 q 986 1079 1003 1079 q 961 1078 979 1079 q 924 1075 943 1078 q 889 1065 904 1072 q 874 1044 874 1057 z "},"I":{"ha":451,"x_min":29,"x_max":429,"o":"m 254 43 l 388 43 q 416 36 403 43 q 429 18 429 29 q 401 0 429 0 l 107 0 q 69 3 88 0 q 50 18 50 7 q 64 35 50 31 q 90 39 78 39 q 122 40 104 39 q 155 47 139 40 q 181 66 171 53 q 192 103 192 79 q 194 326 192 217 q 197 557 197 435 q 194 812 197 679 q 192 1067 192 944 q 180 1085 192 1079 q 151 1094 168 1092 q 114 1098 133 1097 q 81 1099 94 1099 q 47 1102 65 1099 q 29 1119 29 1106 q 49 1138 29 1135 q 81 1140 68 1140 l 333 1140 q 391 1135 378 1140 q 404 1119 404 1131 q 387 1101 404 1104 q 353 1099 369 1099 q 330 1098 346 1099 q 297 1094 314 1097 q 267 1084 281 1092 q 254 1064 254 1076 l 254 43 z "},"Ĳ":{"ha":1135,"x_min":29,"x_max":1117,"o":"m 29 0 m 254 43 l 388 43 q 416 36 403 43 q 429 18 429 29 q 401 0 429 0 l 107 0 q 69 3 88 0 q 50 18 50 7 q 64 35 50 31 q 90 39 78 39 q 122 40 104 39 q 155 47 139 40 q 181 66 171 53 q 192 103 192 79 q 194 326 192 217 q 197 557 197 435 q 194 812 197 679 q 192 1067 192 944 q 180 1085 192 1079 q 151 1094 168 1092 q 114 1098 133 1097 q 81 1099 94 1099 q 47 1102 65 1099 q 29 1119 29 1106 q 49 1138 29 1135 q 81 1140 68 1140 l 333 1140 q 391 1135 378 1140 q 404 1119 404 1131 q 387 1101 404 1104 q 353 1099 369 1099 q 330 1098 346 1099 q 297 1094 314 1097 q 267 1084 281 1092 q 254 1064 254 1076 l 254 43 m 478 182 q 494 116 478 144 q 537 67 510 88 q 599 38 564 47 q 672 28 633 28 q 809 69 761 28 q 879 178 857 110 q 905 338 901 247 q 908 526 908 428 q 908 635 908 578 q 908 750 908 693 q 906 860 907 807 q 905 956 906 913 q 904 1028 904 999 q 904 1067 904 1057 q 892 1085 904 1079 q 863 1094 881 1092 q 826 1098 846 1097 q 793 1099 807 1099 q 760 1102 778 1099 q 742 1119 742 1106 q 761 1138 742 1135 q 793 1140 781 1140 l 1046 1140 q 1103 1135 1090 1140 q 1117 1119 1117 1131 q 1099 1101 1117 1104 q 1065 1099 1082 1099 q 1042 1098 1058 1099 q 1010 1094 1026 1097 q 980 1084 993 1092 q 967 1064 967 1076 l 967 388 q 894 82 967 183 q 665 -19 821 -19 q 573 -3 615 -19 q 500 40 531 13 q 452 106 469 68 q 435 190 435 144 q 438 226 435 203 q 453 272 442 249 q 487 312 465 294 q 546 329 508 329 q 578 318 560 329 q 596 283 596 307 q 578 244 596 256 q 544 232 561 232 q 524 238 533 232 q 507 253 514 244 q 483 224 489 246 q 478 182 478 203 z "},"Í":{"ha":451,"x_min":29,"x_max":429,"o":"m 294 1319 q 275 1291 294 1308 q 231 1257 256 1274 q 181 1228 206 1240 q 147 1215 157 1215 q 136 1231 136 1215 q 153 1264 136 1243 q 192 1303 169 1285 q 236 1336 214 1322 q 268 1350 258 1350 q 287 1344 279 1350 q 294 1319 294 1339 m 254 43 l 388 43 q 416 36 403 43 q 429 18 429 29 q 401 0 429 0 l 107 0 q 69 3 88 0 q 50 18 50 7 q 64 35 50 31 q 90 39 78 39 q 122 40 104 39 q 155 47 139 40 q 181 66 171 53 q 192 103 192 79 q 194 326 192 217 q 197 557 197 435 q 194 812 197 679 q 192 1067 192 944 q 180 1085 192 1079 q 151 1094 168 1092 q 114 1098 133 1097 q 81 1099 94 1099 q 47 1102 65 1099 q 29 1119 29 1106 q 49 1138 29 1135 q 81 1140 68 1140 l 333 1140 q 391 1135 378 1140 q 404 1119 404 1131 q 387 1101 404 1104 q 353 1099 369 1099 q 330 1098 346 1099 q 297 1094 314 1097 q 267 1084 281 1092 q 254 1064 254 1076 l 254 43 z "},"Ĭ":{"ha":451,"x_min":29,"x_max":429,"o":"m 374 1317 q 360 1272 374 1292 q 324 1240 346 1253 q 274 1222 301 1228 q 219 1215 246 1215 q 113 1245 157 1215 q 69 1317 69 1275 q 93 1350 69 1350 q 113 1342 108 1350 q 117 1318 117 1335 q 125 1283 117 1297 q 148 1263 133 1269 q 181 1253 163 1256 q 219 1250 200 1250 q 256 1256 238 1250 q 290 1270 275 1261 q 315 1292 306 1279 q 324 1318 324 1304 q 347 1350 324 1350 q 366 1344 358 1350 q 374 1317 374 1339 m 254 43 l 388 43 q 416 36 403 43 q 429 18 429 29 q 401 0 429 0 l 107 0 q 69 3 88 0 q 50 18 50 7 q 64 35 50 31 q 90 39 78 39 q 122 40 104 39 q 155 47 139 40 q 181 66 171 53 q 192 103 192 79 q 194 326 192 217 q 197 557 197 435 q 194 812 197 679 q 192 1067 192 944 q 180 1085 192 1079 q 151 1094 168 1092 q 114 1098 133 1097 q 81 1099 94 1099 q 47 1102 65 1099 q 29 1119 29 1106 q 49 1138 29 1135 q 81 1140 68 1140 l 333 1140 q 391 1135 378 1140 q 404 1119 404 1131 q 387 1101 404 1104 q 353 1099 369 1099 q 330 1098 346 1099 q 297 1094 314 1097 q 267 1084 281 1092 q 254 1064 254 1076 l 254 43 z "},"Î":{"ha":451,"x_min":29,"x_max":429,"o":"m 382 1215 q 357 1222 375 1215 q 315 1240 339 1229 q 265 1264 292 1251 q 215 1289 239 1276 q 165 1264 192 1276 q 115 1240 139 1251 q 74 1222 92 1229 q 50 1215 57 1215 q 39 1231 39 1215 q 62 1264 39 1243 q 115 1303 85 1285 q 174 1336 146 1322 q 215 1350 203 1350 q 258 1336 228 1350 q 317 1303 288 1322 q 370 1264 347 1285 q 393 1231 393 1243 q 382 1215 393 1215 m 254 43 l 388 43 q 416 36 403 43 q 429 18 429 29 q 401 0 429 0 l 107 0 q 69 3 88 0 q 50 18 50 7 q 64 35 50 31 q 90 39 78 39 q 122 40 104 39 q 155 47 139 40 q 181 66 171 53 q 192 103 192 79 q 194 326 192 217 q 197 557 197 435 q 194 812 197 679 q 192 1067 192 944 q 180 1085 192 1079 q 151 1094 168 1092 q 114 1098 133 1097 q 81 1099 94 1099 q 47 1102 65 1099 q 29 1119 29 1106 q 49 1138 29 1135 q 81 1140 68 1140 l 333 1140 q 391 1135 378 1140 q 404 1119 404 1131 q 387 1101 404 1104 q 353 1099 369 1099 q 330 1098 346 1099 q 297 1094 314 1097 q 267 1084 281 1092 q 254 1064 254 1076 l 254 43 z "},"Ï":{"ha":451,"x_min":22,"x_max":429,"o":"m 22 1293 q 26 1310 22 1300 q 36 1328 29 1319 q 53 1344 43 1338 q 79 1350 64 1350 q 113 1336 99 1350 q 126 1299 126 1322 q 108 1248 126 1261 q 69 1235 89 1235 q 36 1251 50 1235 q 22 1293 22 1268 m 310 1274 q 313 1290 310 1281 q 324 1309 317 1300 q 341 1324 331 1318 q 367 1331 351 1331 q 400 1317 386 1331 q 414 1279 414 1303 q 395 1228 414 1242 q 357 1215 376 1215 q 324 1232 338 1215 q 310 1274 310 1249 m 254 43 l 388 43 q 416 36 403 43 q 429 18 429 29 q 401 0 429 0 l 107 0 q 69 3 88 0 q 50 18 50 7 q 64 35 50 31 q 90 39 78 39 q 122 40 104 39 q 155 47 139 40 q 181 66 171 53 q 192 103 192 79 q 194 326 192 217 q 197 557 197 435 q 194 812 197 679 q 192 1067 192 944 q 180 1085 192 1079 q 151 1094 168 1092 q 114 1098 133 1097 q 81 1099 94 1099 q 47 1102 65 1099 q 29 1119 29 1106 q 49 1138 29 1135 q 81 1140 68 1140 l 333 1140 q 391 1135 378 1140 q 404 1119 404 1131 q 387 1101 404 1104 q 353 1099 369 1099 q 330 1098 346 1099 q 297 1094 314 1097 q 267 1084 281 1092 q 254 1064 254 1076 l 254 43 z "},"İ":{"ha":451,"x_min":29,"x_max":429,"o":"m 254 43 l 388 43 q 416 36 403 43 q 429 18 429 29 q 401 0 429 0 l 107 0 q 69 3 88 0 q 50 18 50 7 q 64 35 50 31 q 90 39 78 39 q 122 40 104 39 q 155 47 139 40 q 181 66 171 53 q 192 103 192 79 q 194 326 192 217 q 197 557 197 435 q 194 812 197 679 q 192 1067 192 944 q 180 1085 192 1079 q 151 1094 168 1092 q 114 1098 133 1097 q 81 1099 94 1099 q 47 1102 65 1099 q 29 1119 29 1106 q 49 1138 29 1135 q 81 1140 68 1140 l 333 1140 q 391 1135 378 1140 q 404 1119 404 1131 q 387 1101 404 1104 q 353 1099 369 1099 q 330 1098 346 1099 q 297 1094 314 1097 q 267 1084 281 1092 q 254 1064 254 1076 l 254 43 m 168 1293 q 172 1310 168 1300 q 182 1328 175 1319 q 199 1344 189 1338 q 225 1350 210 1350 q 258 1336 244 1350 q 272 1299 272 1322 q 253 1248 272 1261 q 215 1235 235 1235 q 182 1251 196 1235 q 168 1293 168 1268 z "},"Ì":{"ha":451,"x_min":29,"x_max":429,"o":"m 138 1318 q 145 1343 138 1338 q 164 1349 153 1349 q 196 1335 174 1349 q 240 1302 218 1321 q 279 1263 263 1283 q 296 1231 296 1243 q 285 1215 296 1215 q 251 1227 275 1215 q 201 1256 226 1239 q 157 1290 176 1272 q 138 1318 138 1307 m 254 43 l 388 43 q 416 36 403 43 q 429 18 429 29 q 401 0 429 0 l 107 0 q 69 3 88 0 q 50 18 50 7 q 64 35 50 31 q 90 39 78 39 q 122 40 104 39 q 155 47 139 40 q 181 66 171 53 q 192 103 192 79 q 194 326 192 217 q 197 557 197 435 q 194 812 197 679 q 192 1067 192 944 q 180 1085 192 1079 q 151 1094 168 1092 q 114 1098 133 1097 q 81 1099 94 1099 q 47 1102 65 1099 q 29 1119 29 1106 q 49 1138 29 1135 q 81 1140 68 1140 l 333 1140 q 391 1135 378 1140 q 404 1119 404 1131 q 387 1101 404 1104 q 353 1099 369 1099 q 330 1098 346 1099 q 297 1094 314 1097 q 267 1084 281 1092 q 254 1064 254 1076 l 254 43 z "},"Ī":{"ha":451,"x_min":29,"x_max":429,"o":"m 254 43 l 388 43 q 416 36 403 43 q 429 18 429 29 q 401 0 429 0 l 107 0 q 69 3 88 0 q 50 18 50 7 q 64 35 50 31 q 90 39 78 39 q 122 40 104 39 q 155 47 139 40 q 181 66 171 53 q 192 103 192 79 q 194 326 192 217 q 197 557 197 435 q 194 812 197 679 q 192 1067 192 944 q 180 1085 192 1079 q 151 1094 168 1092 q 114 1098 133 1097 q 81 1099 94 1099 q 47 1102 65 1099 q 29 1119 29 1106 q 49 1138 29 1135 q 81 1140 68 1140 l 333 1140 q 391 1135 378 1140 q 404 1119 404 1131 q 387 1101 404 1104 q 353 1099 369 1099 q 330 1098 346 1099 q 297 1094 314 1097 q 267 1084 281 1092 q 254 1064 254 1076 l 254 43 m 411 1260 q 422 1254 417 1260 q 426 1242 426 1249 q 421 1226 426 1235 q 400 1217 415 1217 q 326 1217 372 1217 q 229 1216 279 1217 q 135 1215 179 1215 q 65 1215 90 1215 q 49 1223 56 1215 q 43 1238 43 1231 q 49 1251 43 1244 q 65 1258 54 1258 q 96 1258 75 1258 q 142 1257 117 1257 q 191 1256 167 1257 q 233 1256 215 1256 q 335 1258 292 1256 q 411 1260 378 1260 z "},"Į":{"ha":451,"x_min":29,"x_max":429,"o":"m 254 43 l 388 43 q 416 36 403 43 q 429 18 429 29 q 401 0 429 0 l 221 0 q 196 -27 206 -12 q 181 -56 186 -42 q 174 -84 176 -71 q 172 -104 172 -97 q 174 -124 172 -112 q 183 -145 176 -135 q 199 -162 189 -156 q 226 -169 210 -169 q 257 -161 244 -169 q 278 -142 269 -153 q 295 -123 288 -132 q 313 -114 303 -114 q 328 -121 325 -114 q 332 -136 332 -128 q 324 -153 332 -142 q 302 -177 317 -165 q 268 -198 288 -189 q 224 -207 249 -207 q 143 -178 175 -207 q 111 -106 111 -150 q 132 -41 111 -67 q 172 0 153 -15 l 107 0 q 69 3 88 0 q 50 18 50 7 q 64 35 50 31 q 90 39 78 39 q 122 40 104 39 q 155 47 139 40 q 181 66 171 53 q 192 103 192 79 q 194 326 192 217 q 197 557 197 435 q 194 812 197 679 q 192 1067 192 944 q 180 1085 192 1079 q 151 1094 168 1092 q 114 1098 133 1097 q 81 1099 94 1099 q 47 1102 65 1099 q 29 1119 29 1106 q 49 1138 29 1135 q 81 1140 68 1140 l 333 1140 q 391 1135 378 1140 q 404 1119 404 1131 q 387 1101 404 1104 q 353 1099 369 1099 q 330 1098 346 1099 q 297 1094 314 1097 q 267 1084 281 1092 q 254 1064 254 1076 l 254 43 z "},"Ĩ":{"ha":451,"x_min":-11,"x_max":457,"o":"m 254 43 l 388 43 q 416 36 403 43 q 429 18 429 29 q 401 0 429 0 l 107 0 q 69 3 88 0 q 50 18 50 7 q 64 35 50 31 q 90 39 78 39 q 122 40 104 39 q 155 47 139 40 q 181 66 171 53 q 192 103 192 79 q 194 326 192 217 q 197 557 197 435 q 194 812 197 679 q 192 1067 192 944 q 180 1085 192 1079 q 151 1094 168 1092 q 114 1098 133 1097 q 81 1099 94 1099 q 47 1102 65 1099 q 29 1119 29 1106 q 49 1138 29 1135 q 81 1140 68 1140 l 333 1140 q 391 1135 378 1140 q 404 1119 404 1131 q 387 1101 404 1104 q 353 1099 369 1099 q 330 1098 346 1099 q 297 1094 314 1097 q 267 1084 281 1092 q 254 1064 254 1076 l 254 43 m -11 1254 q 29 1293 -11 1269 q 124 1318 72 1318 q 169 1312 144 1318 q 218 1299 193 1306 q 268 1285 243 1292 q 314 1279 293 1279 q 397 1303 350 1279 q 424 1317 417 1314 q 439 1321 432 1321 q 451 1314 446 1321 q 457 1297 457 1307 q 446 1274 457 1285 q 415 1253 435 1263 q 370 1240 396 1244 q 315 1235 344 1235 q 263 1240 289 1235 q 213 1251 238 1244 q 167 1263 189 1257 q 125 1268 144 1268 q 86 1263 104 1268 q 53 1251 68 1257 q 26 1239 38 1244 q 8 1233 15 1233 q -5 1240 1 1233 q -11 1254 -11 1247 z "},"J":{"ha":697,"x_min":-3,"x_max":679,"o":"m 40 182 q 56 116 40 144 q 99 67 72 88 q 161 38 126 47 q 235 28 196 28 q 372 69 324 28 q 442 178 419 110 q 467 338 464 247 q 471 526 471 428 q 471 635 471 578 q 470 750 471 693 q 469 860 469 807 q 467 956 468 913 q 467 1028 467 999 q 467 1067 467 1057 q 455 1085 467 1079 q 426 1094 443 1092 q 389 1098 408 1097 q 356 1099 369 1099 q 322 1102 340 1099 q 304 1119 304 1106 q 324 1138 304 1135 q 356 1140 343 1140 l 608 1140 q 666 1135 653 1140 q 679 1119 679 1131 q 662 1101 679 1104 q 628 1099 644 1099 q 605 1098 621 1099 q 572 1094 589 1097 q 542 1084 556 1092 q 529 1064 529 1076 l 529 388 q 456 82 529 183 q 228 -19 383 -19 q 135 -3 178 -19 q 63 40 93 13 q 15 106 32 68 q -3 190 -3 144 q 1 226 -3 203 q 16 272 4 249 q 49 312 28 294 q 108 329 71 329 q 140 318 122 329 q 158 283 158 307 q 141 244 158 256 q 107 232 124 232 q 86 238 96 232 q 69 253 76 244 q 46 224 51 246 q 40 182 40 203 z "},"Ĵ":{"ha":697,"x_min":-3,"x_max":679,"o":"m 667 1215 q 642 1222 660 1215 q 600 1240 624 1229 q 550 1265 576 1251 q 500 1290 524 1278 q 450 1265 476 1278 q 401 1240 424 1251 q 360 1222 378 1229 q 335 1215 342 1215 q 324 1231 324 1215 q 347 1264 324 1243 q 400 1303 369 1285 q 459 1336 431 1322 q 500 1350 488 1350 q 542 1336 513 1350 q 602 1303 572 1322 q 655 1264 632 1285 q 678 1231 678 1243 q 667 1215 678 1215 m 40 182 q 56 116 40 144 q 99 67 72 88 q 161 38 126 47 q 235 28 196 28 q 372 69 324 28 q 442 178 419 110 q 467 338 464 247 q 471 526 471 428 q 471 635 471 578 q 470 750 471 693 q 469 860 469 807 q 467 956 468 913 q 467 1028 467 999 q 467 1067 467 1057 q 455 1085 467 1079 q 426 1094 443 1092 q 389 1098 408 1097 q 356 1099 369 1099 q 322 1102 340 1099 q 304 1119 304 1106 q 324 1138 304 1135 q 356 1140 343 1140 l 608 1140 q 666 1135 653 1140 q 679 1119 679 1131 q 662 1101 679 1104 q 628 1099 644 1099 q 605 1098 621 1099 q 572 1094 589 1097 q 542 1084 556 1092 q 529 1064 529 1076 l 529 388 q 456 82 529 183 q 228 -19 383 -19 q 135 -3 178 -19 q 63 40 93 13 q 15 106 32 68 q -3 190 -3 144 q 1 226 -3 203 q 16 272 4 249 q 49 312 28 294 q 108 329 71 329 q 140 318 122 329 q 158 283 158 307 q 141 244 158 256 q 107 232 124 232 q 86 238 96 232 q 69 253 76 244 q 46 224 51 246 q 40 182 40 203 z "},"K":{"ha":1001,"x_min":29,"x_max":1017,"o":"m 254 543 q 332 617 285 571 q 431 717 379 664 q 536 824 483 769 q 631 925 589 879 q 700 1003 674 971 q 726 1042 726 1035 q 717 1056 726 1051 q 692 1062 707 1060 q 660 1064 678 1064 q 628 1064 643 1064 q 597 1066 614 1064 q 581 1083 581 1068 q 590 1097 581 1090 q 628 1104 600 1104 l 985 1104 q 1007 1100 997 1104 q 1017 1085 1017 1096 q 989 1069 1017 1069 q 939 1067 964 1068 q 892 1064 914 1067 q 853 1056 871 1061 q 824 1040 835 1050 q 713 932 774 992 q 589 807 653 872 q 463 675 525 742 q 344 549 400 608 q 503 342 425 442 q 572 253 536 299 q 642 165 607 208 q 711 81 678 121 q 774 11 744 42 q 833 -3 785 0 q 939 -6 881 -6 q 987 -8 971 -6 q 1003 -24 1003 -10 q 984 -39 1003 -33 q 933 -47 965 -44 q 856 -49 900 -49 q 764 -50 813 -50 q 722 -21 751 -50 q 654 56 693 8 q 569 163 615 103 q 475 286 522 224 q 383 408 428 349 q 303 514 339 468 l 254 465 l 254 42 l 388 42 q 416 35 403 42 q 429 18 429 29 q 401 0 429 0 l 107 0 q 69 3 88 0 q 50 18 50 7 q 64 35 50 31 q 90 39 78 39 q 122 40 104 39 q 155 47 139 40 q 181 66 171 53 q 192 103 192 79 q 194 326 192 217 q 197 557 197 435 q 194 812 197 679 q 192 1067 192 944 q 180 1085 192 1079 q 151 1094 168 1092 q 114 1098 133 1097 q 81 1099 94 1099 q 47 1102 65 1099 q 29 1119 29 1106 q 49 1138 29 1135 q 81 1140 68 1140 l 333 1140 q 391 1135 378 1140 q 404 1119 404 1131 q 387 1101 404 1104 q 353 1099 369 1099 q 330 1098 346 1099 q 297 1094 314 1097 q 267 1084 281 1092 q 254 1064 254 1076 l 254 543 z "},"Ķ":{"ha":1001,"x_min":29,"x_max":1017,"o":"m 254 543 q 332 617 285 571 q 431 717 379 664 q 536 824 483 769 q 631 925 589 879 q 700 1003 674 971 q 726 1042 726 1035 q 717 1056 726 1051 q 692 1062 707 1060 q 660 1064 678 1064 q 628 1064 643 1064 q 597 1066 614 1064 q 581 1083 581 1068 q 590 1097 581 1090 q 628 1104 600 1104 l 985 1104 q 1007 1100 997 1104 q 1017 1085 1017 1096 q 989 1069 1017 1069 q 939 1067 964 1068 q 892 1064 914 1067 q 853 1056 871 1061 q 824 1040 835 1050 q 713 932 774 992 q 589 807 653 872 q 463 675 525 742 q 344 549 400 608 q 503 342 425 442 q 572 253 536 299 q 642 165 607 208 q 711 81 678 121 q 774 11 744 42 q 833 -3 785 0 q 939 -6 881 -6 q 987 -8 971 -6 q 1003 -24 1003 -10 q 984 -39 1003 -33 q 933 -47 965 -44 q 856 -49 900 -49 q 764 -50 813 -50 q 722 -21 751 -50 q 654 56 693 8 q 569 163 615 103 q 475 286 522 224 q 383 408 428 349 q 303 514 339 468 l 254 465 l 254 42 l 388 42 q 416 35 403 42 q 429 18 429 29 q 401 0 429 0 l 107 0 q 69 3 88 0 q 50 18 50 7 q 64 35 50 31 q 90 39 78 39 q 122 40 104 39 q 155 47 139 40 q 181 66 171 53 q 192 103 192 79 q 194 326 192 217 q 197 557 197 435 q 194 812 197 679 q 192 1067 192 944 q 180 1085 192 1079 q 151 1094 168 1092 q 114 1098 133 1097 q 81 1099 94 1099 q 47 1102 65 1099 q 29 1119 29 1106 q 49 1138 29 1135 q 81 1140 68 1140 l 333 1140 q 391 1135 378 1140 q 404 1119 404 1131 q 387 1101 404 1104 q 353 1099 369 1099 q 330 1098 346 1099 q 297 1094 314 1097 q 267 1084 281 1092 q 254 1064 254 1076 l 254 543 m 453 -139 q 467 -106 453 -121 q 508 -92 481 -92 q 548 -108 529 -92 q 567 -171 567 -124 q 563 -203 567 -185 q 551 -240 558 -222 q 533 -269 544 -257 q 507 -281 521 -281 q 494 -276 500 -281 q 488 -264 488 -271 q 495 -234 488 -254 q 503 -200 503 -214 q 495 -187 503 -192 q 478 -177 488 -182 q 460 -164 468 -172 q 453 -139 453 -156 z "},"L":{"ha":753,"x_min":25,"x_max":721,"o":"m 74 39 q 119 40 96 39 q 160 44 142 40 q 190 57 178 49 q 201 81 201 65 q 202 153 201 97 q 203 281 203 208 q 203 433 203 353 q 204 578 204 513 q 203 740 204 671 q 200 864 201 810 q 197 962 199 918 q 196 1047 196 1006 q 183 1075 196 1065 q 153 1090 171 1085 q 116 1097 136 1096 q 82 1099 96 1099 q 49 1102 67 1099 q 31 1119 31 1106 q 50 1138 31 1135 q 82 1140 69 1140 l 335 1140 q 392 1135 379 1140 q 406 1119 406 1131 q 388 1101 406 1104 q 354 1099 371 1099 q 332 1098 347 1099 q 301 1094 317 1097 q 274 1084 286 1092 q 261 1064 261 1076 l 261 50 l 596 50 q 634 60 619 50 q 651 93 649 69 q 656 137 653 101 q 661 214 658 172 q 667 294 664 256 q 669 346 669 332 q 674 397 669 378 q 694 415 678 415 q 711 409 701 415 q 721 388 721 403 q 718 319 721 363 q 712 225 715 275 q 705 126 708 175 q 699 40 701 76 q 685 8 696 17 q 653 0 674 0 l 58 0 q 30 4 35 0 q 25 15 25 8 q 74 39 25 39 z "},"Ĺ":{"ha":753,"x_min":25,"x_max":721,"o":"m 304 1318 q 285 1290 304 1307 q 240 1256 265 1272 q 191 1227 215 1239 q 157 1215 167 1215 q 146 1231 146 1215 q 163 1263 146 1243 q 201 1302 179 1283 q 246 1335 224 1321 q 278 1349 268 1349 q 297 1343 289 1349 q 304 1318 304 1338 m 74 39 q 119 40 96 39 q 160 44 142 40 q 190 57 178 49 q 201 81 201 65 q 202 153 201 97 q 203 281 203 208 q 203 433 203 353 q 204 578 204 513 q 203 740 204 671 q 200 864 201 810 q 197 962 199 918 q 196 1047 196 1006 q 183 1075 196 1065 q 153 1090 171 1085 q 116 1097 136 1096 q 82 1099 96 1099 q 49 1102 67 1099 q 31 1119 31 1106 q 50 1138 31 1135 q 82 1140 69 1140 l 335 1140 q 392 1135 379 1140 q 406 1119 406 1131 q 388 1101 406 1104 q 354 1099 371 1099 q 332 1098 347 1099 q 301 1094 317 1097 q 274 1084 286 1092 q 261 1064 261 1076 l 261 50 l 596 50 q 634 60 619 50 q 651 93 649 69 q 656 137 653 101 q 661 214 658 172 q 667 294 664 256 q 669 346 669 332 q 674 397 669 378 q 694 415 678 415 q 711 409 701 415 q 721 388 721 403 q 718 319 721 363 q 712 225 715 275 q 705 126 708 175 q 699 40 701 76 q 685 8 696 17 q 653 0 674 0 l 58 0 q 30 4 35 0 q 25 15 25 8 q 74 39 25 39 z "},"Ľ":{"ha":754,"x_min":26,"x_max":722,"o":"m 75 39 q 120 40 97 39 q 161 44 143 40 q 191 57 179 49 q 203 81 203 65 q 203 153 203 97 q 204 281 204 208 q 205 433 204 353 q 206 578 206 513 q 204 733 206 671 q 201 842 203 796 q 199 926 200 889 q 197 1006 197 964 q 185 1033 197 1024 q 155 1049 172 1043 q 117 1056 138 1054 q 83 1057 97 1057 q 50 1060 68 1057 q 32 1078 32 1064 q 51 1096 32 1093 q 83 1099 71 1099 l 336 1099 q 394 1094 381 1099 q 407 1078 407 1089 q 390 1060 407 1063 q 356 1057 372 1057 q 333 1056 349 1057 q 303 1053 318 1056 q 275 1042 288 1050 q 263 1022 263 1035 l 263 50 l 597 50 q 635 60 621 50 q 653 93 650 69 q 657 137 654 101 q 663 214 660 172 q 668 294 665 256 q 671 346 671 332 q 675 397 671 378 q 696 415 679 415 q 713 409 703 415 q 722 388 722 403 q 719 319 722 363 q 713 225 717 275 q 706 126 710 175 q 700 40 703 76 q 686 8 697 17 q 654 0 675 0 l 60 0 q 31 4 36 0 q 26 15 26 8 q 75 39 26 39 m 392 1350 q 403 1335 403 1350 q 380 1301 403 1322 q 327 1262 357 1281 q 267 1229 297 1243 q 225 1215 238 1215 q 184 1229 213 1215 q 125 1262 156 1243 q 72 1301 94 1281 q 49 1335 49 1322 q 60 1350 49 1350 q 83 1343 67 1350 q 120 1325 99 1336 q 169 1301 142 1314 q 225 1276 196 1289 q 281 1301 254 1289 q 331 1325 308 1314 q 369 1343 353 1336 q 392 1350 385 1350 z "},"Ļ":{"ha":753,"x_min":25,"x_max":721,"o":"m 351 -142 q 365 -109 351 -124 q 407 -94 379 -94 q 447 -110 428 -94 q 465 -174 465 -126 q 461 -206 465 -187 q 450 -242 457 -225 q 431 -272 443 -260 q 406 -283 419 -283 q 392 -278 399 -283 q 386 -267 386 -274 q 394 -237 386 -257 q 401 -203 401 -217 q 394 -190 401 -194 q 376 -180 386 -185 q 359 -167 367 -175 q 351 -142 351 -158 m 74 39 q 119 40 96 39 q 160 44 142 40 q 190 57 178 49 q 201 81 201 65 q 202 153 201 97 q 203 281 203 208 q 203 433 203 353 q 204 578 204 513 q 203 740 204 671 q 200 864 201 810 q 197 962 199 918 q 196 1047 196 1006 q 183 1075 196 1065 q 153 1090 171 1085 q 116 1097 136 1096 q 82 1099 96 1099 q 49 1102 67 1099 q 31 1119 31 1106 q 50 1138 31 1135 q 82 1140 69 1140 l 335 1140 q 392 1135 379 1140 q 406 1119 406 1131 q 388 1101 406 1104 q 354 1099 371 1099 q 332 1098 347 1099 q 301 1094 317 1097 q 274 1084 286 1092 q 261 1064 261 1076 l 261 50 l 596 50 q 634 60 619 50 q 651 93 649 69 q 656 137 653 101 q 661 214 658 172 q 667 294 664 256 q 669 346 669 332 q 674 397 669 378 q 694 415 678 415 q 711 409 701 415 q 721 388 721 403 q 718 319 721 363 q 712 225 715 275 q 705 126 708 175 q 699 40 701 76 q 685 8 696 17 q 653 0 674 0 l 58 0 q 30 4 35 0 q 25 15 25 8 q 74 39 25 39 z "},"Ŀ":{"ha":751,"x_min":25,"x_max":721,"o":"m 407 496 q 421 533 407 514 q 468 551 435 551 q 514 535 500 551 q 528 499 528 518 q 512 460 528 478 q 465 443 496 443 q 420 460 433 443 q 407 496 407 478 m 74 39 q 119 40 96 39 q 160 44 142 40 q 190 57 178 49 q 201 81 201 65 q 202 153 201 97 q 203 281 203 208 q 203 433 203 353 q 204 578 204 513 q 203 740 204 671 q 200 864 201 810 q 197 962 199 918 q 196 1047 196 1006 q 183 1075 196 1065 q 153 1090 171 1085 q 116 1097 136 1096 q 82 1099 96 1099 q 49 1102 67 1099 q 31 1119 31 1106 q 50 1138 31 1135 q 82 1140 69 1140 l 335 1140 q 392 1135 379 1140 q 406 1119 406 1131 q 388 1101 406 1104 q 354 1099 371 1099 q 332 1098 347 1099 q 301 1094 317 1097 q 274 1084 286 1092 q 261 1064 261 1076 l 261 50 l 596 50 q 634 60 619 50 q 651 93 649 69 q 656 137 653 101 q 661 214 658 172 q 667 294 664 256 q 669 346 669 332 q 674 397 669 378 q 694 415 678 415 q 711 409 701 415 q 721 388 721 403 q 718 319 721 363 q 712 225 715 275 q 705 126 708 175 q 699 40 701 76 q 685 8 696 17 q 653 0 674 0 l 58 0 q 30 4 35 0 q 25 15 25 8 q 74 39 25 39 z "},"Ł":{"ha":750,"x_min":22,"x_max":718,"o":"m 71 39 q 116 40 93 39 q 157 44 139 40 q 187 57 175 49 q 199 81 199 65 q 199 147 199 97 q 200 263 200 196 q 201 403 200 329 q 201 543 201 478 l 56 543 q 34 552 43 543 q 25 568 25 561 q 33 583 25 575 q 56 592 40 592 q 119 590 79 592 q 201 589 158 589 q 200 747 201 679 q 197 867 199 814 q 194 963 196 919 q 193 1047 193 1006 q 181 1075 193 1065 q 151 1090 168 1085 q 113 1097 133 1096 q 79 1099 93 1099 q 46 1102 64 1099 q 28 1119 28 1106 q 47 1138 28 1135 q 79 1140 67 1140 l 332 1140 q 390 1135 376 1140 q 403 1119 403 1131 q 385 1101 403 1104 q 351 1099 368 1099 q 329 1098 344 1099 q 299 1094 314 1097 q 271 1084 283 1092 q 258 1064 258 1076 l 258 589 q 372 591 328 589 q 460 593 415 593 q 474 586 467 593 q 481 572 481 579 q 473 555 481 565 q 443 544 465 544 q 358 544 407 544 q 258 543 310 543 l 258 50 l 593 50 q 631 60 617 50 q 649 93 646 69 q 653 137 650 101 q 658 214 656 172 q 664 294 661 256 q 667 346 667 332 q 671 397 667 378 q 692 415 675 415 q 708 409 699 415 q 718 388 718 403 q 715 319 718 363 q 709 225 713 275 q 702 126 706 175 q 696 40 699 76 q 682 8 693 17 q 650 0 671 0 l 56 0 q 27 4 32 0 q 22 15 22 8 q 71 39 22 39 z "},"M":{"ha":1388,"x_min":24,"x_max":1392,"o":"m 1353 1046 q 1276 1040 1310 1042 q 1200 1035 1243 1039 q 1163 1012 1169 1032 q 1157 969 1157 992 q 1154 799 1157 906 q 1151 528 1151 692 q 1153 384 1151 465 q 1155 225 1154 303 q 1157 82 1156 147 q 1158 -14 1158 17 l 1300 -14 q 1328 -21 1315 -14 q 1342 -39 1342 -28 q 1314 -57 1342 -57 l 1022 -57 q 984 -53 1003 -57 q 965 -39 965 -50 q 979 -22 965 -26 q 1006 -18 993 -18 q 1035 -17 1019 -18 q 1065 -10 1051 -17 q 1086 9 1078 -4 q 1094 46 1094 22 l 1094 919 q 1019 723 1057 822 q 945 529 982 624 q 875 349 908 435 q 813 192 842 264 q 761 67 783 121 q 725 -17 739 13 q 715 -31 722 -22 q 696 -39 707 -39 q 669 -10 679 -39 q 615 128 649 46 q 542 306 582 211 q 459 501 501 400 q 378 692 417 601 q 308 858 339 783 q 260 978 276 933 l 260 43 l 393 43 q 422 36 408 43 q 435 18 435 29 q 407 0 435 0 l 113 0 q 74 3 93 0 q 56 18 56 7 q 69 35 56 31 q 96 39 83 39 q 126 40 110 39 q 157 47 143 40 q 181 66 171 53 q 190 103 190 79 q 200 311 197 203 q 203 532 203 419 q 201 782 203 658 q 199 1025 199 906 q 172 1056 199 1050 q 111 1064 144 1063 q 51 1067 78 1065 q 24 1085 24 1069 q 32 1101 24 1094 q 51 1109 40 1107 q 74 1112 63 1111 q 90 1113 85 1113 l 244 1113 q 274 1103 264 1113 q 296 1057 285 1094 q 340 938 310 1014 q 410 769 371 863 q 492 575 449 676 q 577 378 536 474 q 651 199 618 282 q 700 63 683 117 q 750 194 719 117 q 817 362 781 272 q 890 547 853 451 q 963 732 928 643 q 1028 897 999 821 q 1076 1026 1058 974 q 1087 1057 1083 1046 q 1097 1074 1090 1068 q 1117 1083 1104 1081 q 1154 1085 1129 1085 l 1343 1085 q 1378 1083 1365 1085 q 1392 1067 1392 1081 q 1353 1046 1392 1050 z "},"N":{"ha":1094,"x_min":21,"x_max":1076,"o":"m 257 1025 l 257 43 l 390 43 q 419 36 406 43 q 432 18 432 29 q 404 0 432 0 l 110 0 q 72 3 90 0 q 53 18 53 7 q 67 35 53 31 q 93 39 81 39 q 124 40 107 39 q 154 47 140 40 q 178 66 168 53 q 188 103 188 79 q 197 315 194 203 q 200 539 200 426 q 198 799 200 665 q 196 1053 196 933 q 169 1086 196 1078 q 108 1097 142 1094 q 48 1104 75 1100 q 21 1124 21 1108 q 29 1133 21 1129 q 49 1138 38 1136 q 71 1140 60 1140 q 88 1140 82 1140 l 238 1140 q 264 1130 254 1140 q 293 1085 274 1119 q 341 999 310 1053 q 411 876 372 944 q 495 731 450 808 q 585 576 540 654 q 674 423 631 497 q 753 286 718 349 q 815 178 789 224 q 851 111 840 132 l 851 1043 q 840 1062 851 1056 q 810 1071 828 1068 q 774 1074 793 1074 q 740 1075 754 1075 q 707 1078 725 1075 q 689 1096 689 1082 q 708 1114 689 1111 q 740 1117 728 1117 l 1006 1117 q 1063 1112 1050 1117 q 1076 1096 1076 1107 q 1059 1078 1076 1081 q 1025 1075 1042 1075 q 1000 1074 1018 1075 q 963 1071 982 1074 q 928 1060 943 1068 q 913 1040 913 1053 q 910 899 911 960 q 909 781 910 839 q 908 659 908 722 q 907 511 907 596 q 907 400 907 465 q 908 264 907 335 q 909 125 908 193 q 910 8 910 57 q 899 -11 910 -7 q 881 -15 888 -15 q 863 -10 871 -15 q 847 8 856 -6 l 257 1025 z "},"A":{"ha":946,"x_min":-69,"x_max":1001,"o":"m 808 4 q 850 -32 815 -24 q 951 -40 885 -40 q 986 -42 971 -40 q 1001 -57 1001 -44 q 953 -76 1001 -76 l 657 -76 q 623 -72 632 -76 q 614 -57 614 -68 q 635 -41 614 -44 q 681 -36 656 -37 q 726 -29 706 -35 q 747 -7 747 -24 q 742 26 747 1 q 728 85 736 51 q 710 156 719 118 q 690 228 700 194 q 673 290 681 263 q 663 331 665 318 l 286 331 q 264 257 276 297 q 240 178 251 217 q 222 109 229 140 q 214 63 214 78 q 224 49 214 53 q 248 42 233 44 q 280 40 263 40 q 313 40 297 40 q 343 38 326 40 q 360 21 360 36 q 350 7 360 14 q 313 0 340 0 l -37 0 q -60 4 -50 0 q -69 19 -69 8 q -42 35 -69 35 q -8 36 -28 35 q 31 39 13 38 q 65 42 50 40 q 85 43 79 43 q 129 58 115 46 q 153 96 143 71 q 201 242 174 156 q 256 429 228 329 q 312 634 283 529 q 367 834 340 739 q 415 1008 393 929 q 450 1133 436 1086 q 460 1152 453 1144 q 479 1160 468 1160 q 494 1154 486 1160 q 507 1133 503 1149 l 808 4 m 476 1049 q 458 972 471 1021 q 429 863 446 922 q 394 735 413 803 q 359 603 376 668 q 327 481 342 539 q 303 381 313 422 q 388 378 346 379 q 472 378 429 378 q 559 378 515 378 q 646 381 603 379 q 608 533 629 449 q 565 707 588 618 q 519 884 542 796 q 476 1049 497 972 z "},"Ń":{"ha":1094,"x_min":21,"x_max":1076,"o":"m 631 1319 q 609 1291 631 1308 q 560 1257 588 1274 q 506 1228 532 1240 q 469 1215 479 1215 q 458 1231 458 1215 q 477 1264 458 1243 q 521 1303 496 1285 q 570 1336 546 1322 q 604 1350 594 1350 q 623 1344 615 1350 q 631 1319 631 1339 m 257 1025 l 257 43 l 390 43 q 419 36 406 43 q 432 18 432 29 q 404 0 432 0 l 110 0 q 72 3 90 0 q 53 18 53 7 q 67 35 53 31 q 93 39 81 39 q 124 40 107 39 q 154 47 140 40 q 178 66 168 53 q 188 103 188 79 q 197 315 194 203 q 200 539 200 426 q 198 799 200 665 q 196 1053 196 933 q 169 1086 196 1078 q 108 1097 142 1094 q 48 1104 75 1100 q 21 1124 21 1108 q 29 1133 21 1129 q 49 1138 38 1136 q 71 1140 60 1140 q 88 1140 82 1140 l 238 1140 q 264 1130 254 1140 q 293 1085 274 1119 q 341 999 310 1053 q 411 876 372 944 q 495 731 450 808 q 585 576 540 654 q 674 423 631 497 q 753 286 718 349 q 815 178 789 224 q 851 111 840 132 l 851 1043 q 840 1062 851 1056 q 810 1071 828 1068 q 774 1074 793 1074 q 740 1075 754 1075 q 707 1078 725 1075 q 689 1096 689 1082 q 708 1114 689 1111 q 740 1117 728 1117 l 1006 1117 q 1063 1112 1050 1117 q 1076 1096 1076 1107 q 1059 1078 1076 1081 q 1025 1075 1042 1075 q 1000 1074 1018 1075 q 963 1071 982 1074 q 928 1060 943 1068 q 913 1040 913 1053 q 910 899 911 960 q 909 781 910 839 q 908 659 908 722 q 907 511 907 596 q 907 400 907 465 q 908 264 907 335 q 909 125 908 193 q 910 8 910 57 q 899 -11 910 -7 q 881 -15 888 -15 q 863 -10 871 -15 q 847 8 856 -6 l 257 1025 z "},"Ň":{"ha":1094,"x_min":21,"x_max":1076,"o":"m 700 1350 q 711 1335 711 1350 q 688 1302 711 1322 q 635 1263 665 1282 q 576 1231 606 1244 q 533 1217 546 1217 q 492 1231 521 1217 q 433 1263 464 1244 q 380 1302 403 1282 q 357 1335 357 1322 q 368 1350 357 1350 q 393 1343 375 1350 q 434 1326 411 1336 q 483 1303 457 1315 q 533 1278 510 1290 q 583 1303 557 1290 q 633 1326 610 1315 q 675 1343 657 1336 q 700 1350 693 1350 m 257 1025 l 257 43 l 390 43 q 419 36 406 43 q 432 18 432 29 q 404 0 432 0 l 110 0 q 72 3 90 0 q 53 18 53 7 q 67 35 53 31 q 93 39 81 39 q 124 40 107 39 q 154 47 140 40 q 178 66 168 53 q 188 103 188 79 q 197 315 194 203 q 200 539 200 426 q 198 799 200 665 q 196 1053 196 933 q 169 1086 196 1078 q 108 1097 142 1094 q 48 1104 75 1100 q 21 1124 21 1108 q 29 1133 21 1129 q 49 1138 38 1136 q 71 1140 60 1140 q 88 1140 82 1140 l 238 1140 q 264 1130 254 1140 q 293 1085 274 1119 q 341 999 310 1053 q 411 876 372 944 q 495 731 450 808 q 585 576 540 654 q 674 423 631 497 q 753 286 718 349 q 815 178 789 224 q 851 111 840 132 l 851 1043 q 840 1062 851 1056 q 810 1071 828 1068 q 774 1074 793 1074 q 740 1075 754 1075 q 707 1078 725 1075 q 689 1096 689 1082 q 708 1114 689 1111 q 740 1117 728 1117 l 1006 1117 q 1063 1112 1050 1117 q 1076 1096 1076 1107 q 1059 1078 1076 1081 q 1025 1075 1042 1075 q 1000 1074 1018 1075 q 963 1071 982 1074 q 928 1060 943 1068 q 913 1040 913 1053 q 910 899 911 960 q 909 781 910 839 q 908 659 908 722 q 907 511 907 596 q 907 400 907 465 q 908 264 907 335 q 909 125 908 193 q 910 8 910 57 q 899 -11 910 -7 q 881 -15 888 -15 q 863 -10 871 -15 q 847 8 856 -6 l 257 1025 z "},"Ņ":{"ha":1094,"x_min":21,"x_max":1076,"o":"m 257 1025 l 257 43 l 390 43 q 419 36 406 43 q 432 18 432 29 q 404 0 432 0 l 110 0 q 72 3 90 0 q 53 18 53 7 q 67 35 53 31 q 93 39 81 39 q 124 40 107 39 q 154 47 140 40 q 178 66 168 53 q 188 103 188 79 q 197 315 194 203 q 200 539 200 426 q 198 799 200 665 q 196 1053 196 933 q 169 1086 196 1078 q 108 1097 142 1094 q 48 1104 75 1100 q 21 1124 21 1108 q 29 1133 21 1129 q 49 1138 38 1136 q 71 1140 60 1140 q 88 1140 82 1140 l 238 1140 q 264 1130 254 1140 q 293 1085 274 1119 q 341 999 310 1053 q 411 876 372 944 q 495 731 450 808 q 585 576 540 654 q 674 423 631 497 q 753 286 718 349 q 815 178 789 224 q 851 111 840 132 l 851 1043 q 840 1062 851 1056 q 810 1071 828 1068 q 774 1074 793 1074 q 740 1075 754 1075 q 707 1078 725 1075 q 689 1096 689 1082 q 708 1114 689 1111 q 740 1117 728 1117 l 1006 1117 q 1063 1112 1050 1117 q 1076 1096 1076 1107 q 1059 1078 1076 1081 q 1025 1075 1042 1075 q 1000 1074 1018 1075 q 963 1071 982 1074 q 928 1060 943 1068 q 913 1040 913 1053 q 910 899 911 960 q 909 781 910 839 q 908 659 908 722 q 907 511 907 596 q 907 400 907 465 q 908 264 907 335 q 909 125 908 193 q 910 8 910 57 q 899 -11 910 -7 q 881 -15 888 -15 q 863 -10 871 -15 q 847 8 856 -6 l 257 1025 m 532 -140 q 546 -108 532 -122 q 588 -93 560 -93 q 627 -109 608 -93 q 646 -172 646 -125 q 642 -205 646 -186 q 631 -241 638 -224 q 612 -270 624 -258 q 586 -282 600 -282 q 573 -277 579 -282 q 567 -265 567 -272 q 574 -235 567 -256 q 582 -201 582 -215 q 574 -188 582 -193 q 557 -178 567 -183 q 540 -165 547 -174 q 532 -140 532 -157 z "},"Ṅ":{"ha":1094,"x_min":21,"x_max":1076,"o":"m 257 1025 l 257 43 l 390 43 q 419 36 406 43 q 432 18 432 29 q 404 0 432 0 l 110 0 q 72 3 90 0 q 53 18 53 7 q 67 35 53 31 q 93 39 81 39 q 124 40 107 39 q 154 47 140 40 q 178 66 168 53 q 188 103 188 79 q 197 315 194 203 q 200 539 200 426 q 198 799 200 665 q 196 1053 196 933 q 169 1086 196 1078 q 108 1097 142 1094 q 48 1104 75 1100 q 21 1124 21 1108 q 29 1133 21 1129 q 49 1138 38 1136 q 71 1140 60 1140 q 88 1140 82 1140 l 238 1140 q 264 1130 254 1140 q 293 1085 274 1119 q 341 999 310 1053 q 411 876 372 944 q 495 731 450 808 q 585 576 540 654 q 674 423 631 497 q 753 286 718 349 q 815 178 789 224 q 851 111 840 132 l 851 1043 q 840 1062 851 1056 q 810 1071 828 1068 q 774 1074 793 1074 q 740 1075 754 1075 q 707 1078 725 1075 q 689 1096 689 1082 q 708 1114 689 1111 q 740 1117 728 1117 l 1006 1117 q 1063 1112 1050 1117 q 1076 1096 1076 1107 q 1059 1078 1076 1081 q 1025 1075 1042 1075 q 1000 1074 1018 1075 q 963 1071 982 1074 q 928 1060 943 1068 q 913 1040 913 1053 q 910 899 911 960 q 909 781 910 839 q 908 659 908 722 q 907 511 907 596 q 907 400 907 465 q 908 264 907 335 q 909 125 908 193 q 910 8 910 57 q 899 -11 910 -7 q 881 -15 888 -15 q 863 -10 871 -15 q 847 8 856 -6 l 257 1025 m 490 1293 q 494 1310 490 1300 q 504 1328 497 1319 q 522 1344 511 1338 q 547 1350 532 1350 q 581 1336 567 1350 q 594 1299 594 1322 q 576 1248 594 1261 q 538 1235 557 1235 q 504 1251 518 1235 q 490 1293 490 1268 z "},"Ñ":{"ha":1094,"x_min":21,"x_max":1076,"o":"m 257 1025 l 257 43 l 390 43 q 419 36 406 43 q 432 18 432 29 q 404 0 432 0 l 110 0 q 72 3 90 0 q 53 18 53 7 q 67 35 53 31 q 93 39 81 39 q 124 40 107 39 q 154 47 140 40 q 178 66 168 53 q 188 103 188 79 q 197 315 194 203 q 200 539 200 426 q 198 799 200 665 q 196 1053 196 933 q 169 1086 196 1078 q 108 1097 142 1094 q 48 1104 75 1100 q 21 1124 21 1108 q 29 1133 21 1129 q 49 1138 38 1136 q 71 1140 60 1140 q 88 1140 82 1140 l 238 1140 q 264 1130 254 1140 q 293 1085 274 1119 q 341 999 310 1053 q 411 876 372 944 q 495 731 450 808 q 585 576 540 654 q 674 423 631 497 q 753 286 718 349 q 815 178 789 224 q 851 111 840 132 l 851 1043 q 840 1062 851 1056 q 810 1071 828 1068 q 774 1074 793 1074 q 740 1075 754 1075 q 707 1078 725 1075 q 689 1096 689 1082 q 708 1114 689 1111 q 740 1117 728 1117 l 1006 1117 q 1063 1112 1050 1117 q 1076 1096 1076 1107 q 1059 1078 1076 1081 q 1025 1075 1042 1075 q 1000 1074 1018 1075 q 963 1071 982 1074 q 928 1060 943 1068 q 913 1040 913 1053 q 910 899 911 960 q 909 781 910 839 q 908 659 908 722 q 907 511 907 596 q 907 400 907 465 q 908 264 907 335 q 909 125 908 193 q 910 8 910 57 q 899 -11 910 -7 q 881 -15 888 -15 q 863 -10 871 -15 q 847 8 856 -6 l 257 1025 m 308 1254 q 349 1293 308 1269 q 443 1318 392 1318 q 488 1312 464 1318 q 538 1299 513 1306 q 588 1285 563 1292 q 633 1279 613 1279 q 717 1303 669 1279 q 744 1317 736 1314 q 758 1321 751 1321 q 771 1314 765 1321 q 776 1297 776 1307 q 765 1274 776 1285 q 735 1253 754 1263 q 690 1240 715 1244 q 635 1235 664 1235 q 583 1240 608 1235 q 533 1251 557 1244 q 486 1263 508 1257 q 444 1268 464 1268 q 406 1263 424 1268 q 372 1251 388 1257 q 346 1239 357 1244 q 328 1233 335 1233 q 315 1240 321 1233 q 308 1254 308 1247 z "},"O":{"ha":954,"x_min":57,"x_max":896,"o":"m 119 556 q 144 335 119 433 q 216 167 169 236 q 328 62 263 99 q 475 25 394 25 q 617 59 551 25 q 731 162 683 93 q 806 332 779 231 q 833 569 833 433 q 808 785 833 685 q 740 960 783 886 q 635 1078 696 1035 q 503 1121 575 1121 q 333 1070 404 1121 q 213 938 261 1019 q 142 756 165 857 q 119 556 119 656 m 57 561 q 69 704 57 632 q 107 843 82 776 q 169 969 132 910 q 254 1071 206 1028 q 363 1139 303 1114 q 494 1164 424 1164 q 664 1116 589 1164 q 790 986 739 1068 q 869 796 842 904 q 896 567 896 688 q 853 284 896 397 q 748 103 811 171 q 610 6 685 35 q 472 -22 536 -22 q 320 12 394 -22 q 188 117 246 46 q 93 298 129 188 q 57 561 57 408 z "},"Œ":{"ha":1535,"x_min":57,"x_max":1482,"o":"m 57 561 q 69 704 57 632 q 107 843 82 776 q 169 969 132 910 q 254 1071 206 1028 q 363 1139 303 1114 q 494 1164 424 1164 q 699 1091 613 1164 q 833 899 785 1018 q 832 971 832 936 q 832 1042 832 1006 q 833 1078 832 1060 q 840 1110 833 1096 q 858 1132 846 1124 q 893 1140 869 1140 q 976 1139 938 1140 q 1067 1138 1014 1138 q 1151 1138 1118 1138 q 1215 1139 1183 1139 q 1283 1140 1246 1139 q 1382 1140 1321 1140 q 1411 1130 1401 1140 q 1421 1090 1421 1119 l 1421 904 q 1417 859 1421 878 q 1397 840 1413 840 q 1373 858 1376 840 q 1369 896 1369 876 l 1369 1051 q 1351 1084 1369 1078 q 1318 1090 1332 1090 l 897 1090 l 897 611 q 976 608 938 610 q 1056 607 1015 607 q 1099 608 1075 607 q 1144 609 1122 608 q 1182 610 1165 610 q 1206 611 1199 611 q 1219 626 1214 611 q 1226 660 1224 640 q 1228 702 1228 681 q 1229 736 1229 724 q 1230 744 1229 738 q 1233 759 1231 751 q 1240 772 1235 767 q 1253 778 1244 778 q 1273 767 1269 778 q 1276 740 1276 756 q 1275 662 1276 700 q 1274 583 1274 624 q 1275 504 1274 543 q 1276 426 1276 465 q 1269 396 1276 403 q 1256 389 1261 389 q 1239 400 1246 389 q 1232 429 1232 411 q 1229 470 1232 447 q 1219 513 1226 493 q 1199 545 1213 532 q 1165 558 1186 558 q 1121 559 1146 558 q 1056 560 1096 560 q 976 559 1015 560 q 897 557 938 558 l 897 50 l 1354 50 q 1374 51 1364 50 q 1393 58 1385 53 q 1407 73 1401 63 q 1414 101 1413 83 q 1418 155 1415 119 q 1424 231 1421 190 q 1428 310 1426 271 q 1432 379 1431 350 q 1441 419 1433 407 q 1456 431 1449 431 q 1478 416 1475 431 q 1482 385 1482 401 q 1480 334 1482 372 q 1474 246 1478 296 q 1467 142 1471 196 q 1460 46 1464 88 q 1443 6 1457 11 q 1401 0 1429 0 q 1328 1 1360 0 q 1267 1 1296 1 q 1206 2 1238 1 q 1132 3 1174 3 q 1000 1 1047 3 q 918 0 953 0 q 872 3 888 0 q 848 17 856 7 q 839 44 840 26 q 838 89 838 61 l 838 242 q 761 117 806 168 q 667 35 717 67 q 567 -9 618 4 q 472 -22 517 -22 q 320 12 394 -22 q 188 117 246 46 q 93 298 129 188 q 57 561 57 408 m 119 556 q 144 335 119 433 q 216 167 169 236 q 328 62 263 99 q 475 25 394 25 q 617 59 551 25 q 731 162 683 93 q 806 332 779 231 q 833 569 833 433 q 808 785 833 685 q 740 960 783 886 q 635 1078 696 1035 q 503 1121 575 1121 q 333 1070 404 1121 q 213 938 261 1019 q 142 756 165 857 q 119 556 119 656 z "},"Ó":{"ha":954,"x_min":57,"x_max":896,"o":"m 569 1319 q 550 1291 569 1308 q 506 1257 531 1274 q 456 1228 481 1240 q 422 1215 432 1215 q 411 1231 411 1215 q 428 1264 411 1243 q 467 1303 444 1285 q 511 1336 489 1322 q 543 1350 533 1350 q 562 1344 554 1350 q 569 1319 569 1339 m 119 556 q 144 335 119 433 q 216 167 169 236 q 328 62 263 99 q 475 25 394 25 q 617 59 551 25 q 731 162 683 93 q 806 332 779 231 q 833 569 833 433 q 808 785 833 685 q 740 960 783 886 q 635 1078 696 1035 q 503 1121 575 1121 q 333 1070 404 1121 q 213 938 261 1019 q 142 756 165 857 q 119 556 119 656 m 57 561 q 69 704 57 632 q 107 843 82 776 q 169 969 132 910 q 254 1071 206 1028 q 363 1139 303 1114 q 494 1164 424 1164 q 664 1116 589 1164 q 790 986 739 1068 q 869 796 842 904 q 896 567 896 688 q 853 284 896 397 q 748 103 811 171 q 610 6 685 35 q 472 -22 536 -22 q 320 12 394 -22 q 188 117 246 46 q 93 298 129 188 q 57 561 57 408 z "},"Ŏ":{"ha":954,"x_min":57,"x_max":896,"o":"m 649 1317 q 635 1272 649 1292 q 599 1240 621 1253 q 549 1222 576 1228 q 494 1215 521 1215 q 388 1245 432 1215 q 344 1317 344 1275 q 368 1350 344 1350 q 388 1342 383 1350 q 392 1318 392 1335 q 400 1283 392 1297 q 423 1263 408 1269 q 456 1253 438 1256 q 494 1250 475 1250 q 531 1256 513 1250 q 565 1270 550 1261 q 590 1292 581 1279 q 599 1318 599 1304 q 622 1350 599 1350 q 641 1344 633 1350 q 649 1317 649 1339 m 119 556 q 144 335 119 433 q 216 167 169 236 q 328 62 263 99 q 475 25 394 25 q 617 59 551 25 q 731 162 683 93 q 806 332 779 231 q 833 569 833 433 q 808 785 833 685 q 740 960 783 886 q 635 1078 696 1035 q 503 1121 575 1121 q 333 1070 404 1121 q 213 938 261 1019 q 142 756 165 857 q 119 556 119 656 m 57 561 q 69 704 57 632 q 107 843 82 776 q 169 969 132 910 q 254 1071 206 1028 q 363 1139 303 1114 q 494 1164 424 1164 q 664 1116 589 1164 q 790 986 739 1068 q 869 796 842 904 q 896 567 896 688 q 853 284 896 397 q 748 103 811 171 q 610 6 685 35 q 472 -22 536 -22 q 320 12 394 -22 q 188 117 246 46 q 93 298 129 188 q 57 561 57 408 z "},"Ô":{"ha":954,"x_min":57,"x_max":896,"o":"m 657 1215 q 632 1222 650 1215 q 590 1240 614 1229 q 540 1264 567 1251 q 490 1289 514 1276 q 440 1264 467 1276 q 390 1240 414 1251 q 349 1222 367 1229 q 325 1215 332 1215 q 314 1231 314 1215 q 337 1264 314 1243 q 390 1303 360 1285 q 449 1336 421 1322 q 490 1350 478 1350 q 533 1336 503 1350 q 592 1303 563 1322 q 645 1264 622 1285 q 668 1231 668 1243 q 657 1215 668 1215 m 119 556 q 144 335 119 433 q 216 167 169 236 q 328 62 263 99 q 475 25 394 25 q 617 59 551 25 q 731 162 683 93 q 806 332 779 231 q 833 569 833 433 q 808 785 833 685 q 740 960 783 886 q 635 1078 696 1035 q 503 1121 575 1121 q 333 1070 404 1121 q 213 938 261 1019 q 142 756 165 857 q 119 556 119 656 m 57 561 q 69 704 57 632 q 107 843 82 776 q 169 969 132 910 q 254 1071 206 1028 q 363 1139 303 1114 q 494 1164 424 1164 q 664 1116 589 1164 q 790 986 739 1068 q 869 796 842 904 q 896 567 896 688 q 853 284 896 397 q 748 103 811 171 q 610 6 685 35 q 472 -22 536 -22 q 320 12 394 -22 q 188 117 246 46 q 93 298 129 188 q 57 561 57 408 z "},"Ö":{"ha":954,"x_min":57,"x_max":896,"o":"m 297 1293 q 301 1310 297 1300 q 311 1328 304 1319 q 328 1344 318 1338 q 354 1350 339 1350 q 388 1336 374 1350 q 401 1299 401 1322 q 383 1248 401 1261 q 344 1235 364 1235 q 311 1251 325 1235 q 297 1293 297 1268 m 585 1274 q 588 1290 585 1281 q 599 1309 592 1300 q 616 1324 606 1318 q 642 1331 626 1331 q 675 1317 661 1331 q 689 1279 689 1303 q 670 1228 689 1242 q 632 1215 651 1215 q 599 1232 613 1215 q 585 1274 585 1249 m 119 556 q 144 335 119 433 q 216 167 169 236 q 328 62 263 99 q 475 25 394 25 q 617 59 551 25 q 731 162 683 93 q 806 332 779 231 q 833 569 833 433 q 808 785 833 685 q 740 960 783 886 q 635 1078 696 1035 q 503 1121 575 1121 q 333 1070 404 1121 q 213 938 261 1019 q 142 756 165 857 q 119 556 119 656 m 57 561 q 69 704 57 632 q 107 843 82 776 q 169 969 132 910 q 254 1071 206 1028 q 363 1139 303 1114 q 494 1164 424 1164 q 664 1116 589 1164 q 790 986 739 1068 q 869 796 842 904 q 896 567 896 688 q 853 284 896 397 q 748 103 811 171 q 610 6 685 35 q 472 -22 536 -22 q 320 12 394 -22 q 188 117 246 46 q 93 298 129 188 q 57 561 57 408 z "},"Ò":{"ha":954,"x_min":57,"x_max":896,"o":"m 413 1319 q 420 1344 413 1339 q 439 1350 428 1350 q 471 1336 449 1350 q 515 1303 493 1322 q 554 1264 538 1285 q 571 1231 571 1243 q 560 1215 571 1215 q 526 1228 550 1215 q 476 1257 501 1240 q 432 1291 451 1274 q 413 1319 413 1308 m 119 556 q 144 335 119 433 q 216 167 169 236 q 328 62 263 99 q 475 25 394 25 q 617 59 551 25 q 731 162 683 93 q 806 332 779 231 q 833 569 833 433 q 808 785 833 685 q 740 960 783 886 q 635 1078 696 1035 q 503 1121 575 1121 q 333 1070 404 1121 q 213 938 261 1019 q 142 756 165 857 q 119 556 119 656 m 57 561 q 69 704 57 632 q 107 843 82 776 q 169 969 132 910 q 254 1071 206 1028 q 363 1139 303 1114 q 494 1164 424 1164 q 664 1116 589 1164 q 790 986 739 1068 q 869 796 842 904 q 896 567 896 688 q 853 284 896 397 q 748 103 811 171 q 610 6 685 35 q 472 -22 536 -22 q 320 12 394 -22 q 188 117 246 46 q 93 298 129 188 q 57 561 57 408 z "},"Ő":{"ha":954,"x_min":57,"x_max":896,"o":"m 481 1319 q 461 1291 481 1308 q 417 1257 442 1274 q 367 1228 392 1240 q 333 1215 343 1215 q 322 1231 322 1215 q 339 1264 322 1243 q 378 1303 356 1285 q 422 1336 400 1322 q 454 1350 444 1350 q 473 1344 465 1350 q 481 1319 481 1339 m 694 1319 q 675 1291 694 1308 q 631 1257 656 1274 q 581 1228 606 1240 q 547 1215 557 1215 q 536 1231 536 1215 q 553 1264 536 1243 q 592 1303 569 1285 q 636 1336 614 1322 q 668 1350 658 1350 q 687 1344 679 1350 q 694 1319 694 1339 m 119 556 q 144 335 119 433 q 216 167 169 236 q 328 62 263 99 q 475 25 394 25 q 617 59 551 25 q 731 162 683 93 q 806 332 779 231 q 833 569 833 433 q 808 785 833 685 q 740 960 783 886 q 635 1078 696 1035 q 503 1121 575 1121 q 333 1070 404 1121 q 213 938 261 1019 q 142 756 165 857 q 119 556 119 656 m 57 561 q 69 704 57 632 q 107 843 82 776 q 169 969 132 910 q 254 1071 206 1028 q 363 1139 303 1114 q 494 1164 424 1164 q 664 1116 589 1164 q 790 986 739 1068 q 869 796 842 904 q 896 567 896 688 q 853 284 896 397 q 748 103 811 171 q 610 6 685 35 q 472 -22 536 -22 q 320 12 394 -22 q 188 117 246 46 q 93 298 129 188 q 57 561 57 408 z "},"Ō":{"ha":954,"x_min":57,"x_max":896,"o":"m 119 556 q 144 335 119 433 q 216 167 169 236 q 328 62 263 99 q 475 25 394 25 q 617 59 551 25 q 731 162 683 93 q 806 332 779 231 q 833 569 833 433 q 808 785 833 685 q 740 960 783 886 q 635 1078 696 1035 q 503 1121 575 1121 q 333 1070 404 1121 q 213 938 261 1019 q 142 756 165 857 q 119 556 119 656 m 57 561 q 69 704 57 632 q 107 843 82 776 q 169 969 132 910 q 254 1071 206 1028 q 363 1139 303 1114 q 494 1164 424 1164 q 664 1116 589 1164 q 790 986 739 1068 q 869 796 842 904 q 896 567 896 688 q 853 284 896 397 q 748 103 811 171 q 610 6 685 35 q 472 -22 536 -22 q 320 12 394 -22 q 188 117 246 46 q 93 298 129 188 q 57 561 57 408 m 686 1260 q 697 1254 692 1260 q 701 1242 701 1249 q 696 1226 701 1235 q 675 1217 690 1217 q 601 1217 647 1217 q 504 1216 554 1217 q 410 1215 454 1215 q 340 1215 365 1215 q 324 1223 331 1215 q 318 1238 318 1231 q 324 1251 318 1244 q 340 1258 329 1258 q 371 1258 350 1258 q 417 1257 392 1257 q 466 1256 442 1257 q 508 1256 490 1256 q 610 1258 567 1256 q 686 1260 653 1260 z "},"Ǫ":{"ha":951,"x_min":56,"x_max":894,"o":"m 56 561 q 68 704 56 632 q 106 843 81 776 q 167 969 131 910 q 253 1071 204 1028 q 362 1139 301 1114 q 493 1164 422 1164 q 663 1116 588 1164 q 789 986 738 1068 q 867 796 840 904 q 894 567 894 688 q 856 293 894 404 q 757 114 817 182 q 626 15 697 46 q 492 -21 556 -17 q 463 -48 474 -32 q 445 -80 451 -64 q 437 -110 439 -96 q 435 -132 435 -124 q 437 -151 435 -140 q 445 -173 439 -162 q 462 -190 451 -183 q 489 -197 472 -197 q 519 -189 507 -197 q 541 -170 532 -181 q 558 -151 550 -160 q 575 -142 565 -142 q 591 -149 588 -142 q 594 -164 594 -156 q 587 -181 594 -169 q 565 -205 579 -193 q 531 -226 550 -217 q 486 -235 511 -235 q 406 -206 438 -235 q 374 -133 374 -178 q 399 -62 374 -90 q 444 -21 424 -35 q 301 21 371 -15 q 176 128 231 57 q 89 307 122 200 q 56 561 56 414 m 118 556 q 143 335 118 433 q 215 167 168 236 q 327 62 261 99 q 474 25 393 25 q 616 59 550 25 q 730 162 682 93 q 805 332 778 231 q 832 569 832 433 q 807 785 832 685 q 738 960 782 886 q 634 1078 694 1035 q 501 1121 574 1121 q 331 1070 403 1121 q 212 938 260 1019 q 141 756 164 857 q 118 556 118 656 z "},"Ø":{"ha":954,"x_min":57,"x_max":896,"o":"m 201 99 q 97 283 136 169 q 57 561 57 397 q 69 704 57 632 q 107 843 82 776 q 169 969 132 910 q 254 1071 206 1028 q 363 1139 303 1114 q 494 1164 424 1164 q 615 1140 560 1164 q 715 1075 669 1117 q 722 1090 717 1079 q 735 1112 726 1100 q 753 1132 743 1124 q 776 1140 764 1140 q 793 1135 789 1140 q 797 1121 797 1129 q 790 1094 797 1110 q 778 1067 783 1078 l 758 1029 q 860 826 825 946 q 896 567 896 706 q 853 284 896 397 q 748 103 811 171 q 610 6 685 35 q 472 -22 536 -22 q 353 -2 411 -22 q 243 60 294 18 l 215 7 q 199 -19 206 -12 q 175 -26 192 -26 q 156 -10 156 -26 q 158 8 156 -1 q 163 25 160 18 l 201 99 m 119 556 q 147 323 119 425 q 228 150 175 221 q 294 275 271 232 q 330 342 317 318 q 351 380 343 367 q 370 415 358 393 q 403 474 382 436 q 465 588 425 513 q 532 710 506 661 q 576 792 558 758 q 605 850 593 826 q 628 898 617 874 q 655 951 640 922 q 692 1026 669 981 q 603 1096 651 1071 q 503 1121 556 1121 q 333 1070 404 1121 q 213 938 261 1019 q 142 756 165 857 q 119 556 119 656 m 833 569 q 806 796 833 692 q 729 976 778 900 l 268 106 q 475 25 356 25 q 617 59 551 25 q 731 162 683 93 q 806 332 779 231 q 833 569 833 433 z "},"Ǿ":{"ha":954,"x_min":57,"x_max":896,"o":"m 201 99 q 97 283 136 169 q 57 561 57 397 q 69 704 57 632 q 107 843 82 776 q 169 969 132 910 q 254 1071 206 1028 q 363 1139 303 1114 q 494 1164 424 1164 q 615 1140 560 1164 q 715 1075 669 1117 q 722 1090 717 1079 q 735 1112 726 1100 q 753 1132 743 1124 q 776 1140 764 1140 q 793 1135 789 1140 q 797 1121 797 1129 q 790 1094 797 1110 q 778 1067 783 1078 l 758 1029 q 860 826 825 946 q 896 567 896 706 q 853 284 896 397 q 748 103 811 171 q 610 6 685 35 q 472 -22 536 -22 q 353 -2 411 -22 q 243 60 294 18 l 215 7 q 199 -19 206 -12 q 175 -26 192 -26 q 156 -10 156 -26 q 158 8 156 -1 q 163 25 160 18 l 201 99 m 119 556 q 147 323 119 425 q 228 150 175 221 q 294 275 271 232 q 330 342 317 318 q 351 380 343 367 q 370 415 358 393 q 403 474 382 436 q 465 588 425 513 q 532 710 506 661 q 576 792 558 758 q 605 850 593 826 q 628 898 617 874 q 655 951 640 922 q 692 1026 669 981 q 603 1096 651 1071 q 503 1121 556 1121 q 333 1070 404 1121 q 213 938 261 1019 q 142 756 165 857 q 119 556 119 656 m 833 569 q 806 796 833 692 q 729 976 778 900 l 268 106 q 475 25 356 25 q 617 59 551 25 q 731 162 683 93 q 806 332 779 231 q 833 569 833 433 m 597 1319 q 578 1291 597 1308 q 533 1257 558 1274 q 484 1228 508 1240 q 450 1217 460 1217 q 439 1232 439 1217 q 456 1265 439 1244 q 494 1303 472 1285 q 539 1336 517 1322 q 571 1350 561 1350 q 590 1344 582 1350 q 597 1319 597 1339 z "},"Õ":{"ha":954,"x_min":57,"x_max":896,"o":"m 119 556 q 144 335 119 433 q 216 167 169 236 q 328 62 263 99 q 475 25 394 25 q 617 59 551 25 q 731 162 683 93 q 806 332 779 231 q 833 569 833 433 q 808 785 833 685 q 740 960 783 886 q 635 1078 696 1035 q 503 1121 575 1121 q 333 1070 404 1121 q 213 938 261 1019 q 142 756 165 857 q 119 556 119 656 m 57 561 q 69 704 57 632 q 107 843 82 776 q 169 969 132 910 q 254 1071 206 1028 q 363 1139 303 1114 q 494 1164 424 1164 q 664 1116 589 1164 q 790 986 739 1068 q 869 796 842 904 q 896 567 896 688 q 853 284 896 397 q 748 103 811 171 q 610 6 685 35 q 472 -22 536 -22 q 320 12 394 -22 q 188 117 246 46 q 93 298 129 188 q 57 561 57 408 m 244 1254 q 285 1293 244 1269 q 379 1318 328 1318 q 424 1312 400 1318 q 474 1299 449 1306 q 524 1285 499 1292 q 569 1279 549 1279 q 653 1303 606 1279 q 680 1317 672 1314 q 694 1321 688 1321 q 707 1314 701 1321 q 713 1297 713 1307 q 701 1274 713 1285 q 671 1253 690 1263 q 626 1240 651 1244 q 571 1235 600 1235 q 519 1240 544 1235 q 469 1251 493 1244 q 422 1263 444 1257 q 381 1268 400 1268 q 342 1263 360 1268 q 308 1251 324 1257 q 282 1239 293 1244 q 264 1233 271 1233 q 251 1240 257 1233 q 244 1254 244 1247 z "},"P":{"ha":832,"x_min":29,"x_max":817,"o":"m 88 39 q 149 46 128 39 q 181 63 171 53 q 193 83 192 72 q 194 100 194 93 q 194 241 194 183 q 195 351 194 299 q 196 463 196 404 q 196 607 196 522 q 192 853 196 740 q 188 1040 188 967 q 176 1079 188 1063 q 119 1096 164 1096 l 72 1096 q 41 1103 49 1096 q 33 1117 33 1110 q 40 1130 33 1124 q 72 1136 47 1136 q 160 1137 122 1136 q 234 1138 197 1138 q 313 1140 271 1139 q 413 1140 354 1140 q 571 1124 497 1140 q 699 1069 644 1107 q 785 972 754 1032 q 817 826 817 913 q 772 668 817 732 q 659 565 728 604 q 507 508 590 525 q 346 492 424 492 q 318 492 333 492 q 288 493 303 492 q 254 494 271 493 l 254 43 l 389 43 q 449 18 449 43 q 434 2 449 4 q 386 0 419 0 l 114 0 q 88 0 103 0 q 60 2 74 0 q 38 7 47 4 q 29 17 29 10 q 38 31 29 24 q 88 39 47 39 m 354 1093 q 303 1090 328 1093 q 254 1083 278 1088 l 254 542 q 282 540 267 540 q 310 539 294 539 q 344 539 326 539 q 408 542 368 539 q 493 554 447 544 q 585 582 539 564 q 669 632 632 600 q 731 710 707 664 q 754 822 754 757 q 733 933 754 888 q 678 1009 713 979 q 602 1056 644 1039 q 515 1081 560 1074 q 428 1091 471 1089 q 354 1093 386 1093 z "},"Q":{"ha":954,"x_min":57,"x_max":896,"o":"m 282 -94 q 343 -47 282 -75 q 429 -19 383 -28 q 290 27 357 -11 q 172 136 224 65 q 88 313 119 207 q 57 561 57 418 q 69 704 57 632 q 107 843 82 776 q 169 969 132 910 q 254 1071 206 1028 q 363 1139 303 1114 q 494 1164 424 1164 q 664 1116 589 1164 q 790 986 739 1068 q 869 796 842 904 q 896 567 896 688 q 878 376 896 460 q 831 229 861 293 q 763 119 801 165 q 680 44 724 74 q 590 -1 636 14 q 503 -21 544 -17 q 544 -37 522 -26 q 588 -57 567 -47 q 631 -74 610 -67 q 669 -81 651 -81 q 710 -77 689 -81 q 753 -65 731 -74 q 781 -55 769 -58 q 799 -51 792 -51 q 813 -74 813 -51 q 801 -92 813 -83 q 771 -109 790 -101 q 726 -121 751 -117 q 671 -125 700 -125 q 617 -116 644 -125 q 565 -95 590 -107 q 517 -74 540 -83 q 474 -65 493 -65 q 422 -72 449 -65 q 372 -88 396 -79 q 330 -104 349 -97 q 301 -111 311 -111 q 288 -106 294 -111 q 282 -94 282 -101 m 119 556 q 144 335 119 433 q 216 167 169 236 q 328 62 263 99 q 475 25 394 25 q 617 59 551 25 q 731 162 683 93 q 806 332 779 231 q 833 569 833 433 q 808 785 833 685 q 740 960 783 886 q 635 1078 696 1035 q 503 1121 575 1121 q 333 1070 404 1121 q 213 938 261 1019 q 142 756 165 857 q 119 556 119 656 z "},"R":{"ha":913,"x_min":29,"x_max":939,"o":"m 754 817 q 733 919 754 876 q 676 994 711 963 q 598 1044 642 1025 q 510 1074 554 1064 q 424 1089 465 1085 q 354 1093 383 1093 q 317 1092 335 1093 q 285 1088 299 1090 q 254 1083 268 1085 l 254 542 q 264 541 256 542 q 283 540 272 540 q 302 540 293 540 q 313 539 311 539 q 460 550 382 539 q 603 592 538 561 q 711 676 668 622 q 754 817 754 731 m 264 489 q 254 490 258 489 l 254 43 l 358 43 q 403 38 385 43 q 421 17 421 33 q 418 7 421 10 q 406 2 415 4 q 377 0 396 0 q 328 0 358 0 l 89 0 q 39 6 49 0 q 29 19 29 13 q 42 33 29 28 q 101 39 56 39 q 136 41 119 39 q 166 51 153 43 q 187 72 179 58 q 194 107 194 85 q 196 339 194 224 q 197 572 197 454 q 193 805 197 690 q 189 1038 189 919 q 182 1072 189 1060 q 161 1089 175 1083 q 126 1095 147 1094 q 78 1096 106 1096 q 50 1099 67 1096 q 33 1118 33 1101 q 38 1128 33 1125 q 50 1134 43 1132 q 64 1136 57 1136 q 74 1136 71 1136 q 164 1137 129 1136 q 231 1138 199 1138 q 303 1140 264 1139 q 404 1140 342 1140 q 540 1124 468 1140 q 674 1070 613 1107 q 776 973 735 1033 q 817 825 817 913 q 778 667 817 732 q 678 563 740 603 q 538 506 617 524 q 375 489 458 489 q 501 297 438 392 q 558 214 528 257 q 620 129 589 171 q 682 49 651 88 q 742 -19 713 11 l 875 -19 q 923 -22 907 -19 q 939 -39 939 -25 q 931 -52 939 -47 q 899 -59 924 -57 q 831 -61 875 -61 q 714 -61 786 -61 q 676 -33 701 -61 q 615 40 650 -6 q 540 144 581 86 q 458 264 500 203 q 374 384 415 325 q 296 489 332 443 l 264 489 z "},"Ŕ":{"ha":913,"x_min":29,"x_max":939,"o":"m 481 1319 q 461 1291 481 1308 q 417 1257 442 1274 q 367 1228 392 1240 q 333 1215 343 1215 q 322 1231 322 1215 q 339 1264 322 1243 q 378 1303 356 1285 q 422 1336 400 1322 q 454 1350 444 1350 q 473 1344 465 1350 q 481 1319 481 1339 m 754 817 q 733 919 754 876 q 676 994 711 963 q 598 1044 642 1025 q 510 1074 554 1064 q 424 1089 465 1085 q 354 1093 383 1093 q 317 1092 335 1093 q 285 1088 299 1090 q 254 1083 268 1085 l 254 542 q 264 541 256 542 q 283 540 272 540 q 302 540 293 540 q 313 539 311 539 q 460 550 382 539 q 603 592 538 561 q 711 676 668 622 q 754 817 754 731 m 264 489 q 254 490 258 489 l 254 43 l 358 43 q 403 38 385 43 q 421 17 421 33 q 418 7 421 10 q 406 2 415 4 q 377 0 396 0 q 328 0 358 0 l 89 0 q 39 6 49 0 q 29 19 29 13 q 42 33 29 28 q 101 39 56 39 q 136 41 119 39 q 166 51 153 43 q 187 72 179 58 q 194 107 194 85 q 196 339 194 224 q 197 572 197 454 q 193 805 197 690 q 189 1038 189 919 q 182 1072 189 1060 q 161 1089 175 1083 q 126 1095 147 1094 q 78 1096 106 1096 q 50 1099 67 1096 q 33 1118 33 1101 q 38 1128 33 1125 q 50 1134 43 1132 q 64 1136 57 1136 q 74 1136 71 1136 q 164 1137 129 1136 q 231 1138 199 1138 q 303 1140 264 1139 q 404 1140 342 1140 q 540 1124 468 1140 q 674 1070 613 1107 q 776 973 735 1033 q 817 825 817 913 q 778 667 817 732 q 678 563 740 603 q 538 506 617 524 q 375 489 458 489 q 501 297 438 392 q 558 214 528 257 q 620 129 589 171 q 682 49 651 88 q 742 -19 713 11 l 875 -19 q 923 -22 907 -19 q 939 -39 939 -25 q 931 -52 939 -47 q 899 -59 924 -57 q 831 -61 875 -61 q 714 -61 786 -61 q 676 -33 701 -61 q 615 40 650 -6 q 540 144 581 86 q 458 264 500 203 q 374 384 415 325 q 296 489 332 443 l 264 489 z "},"Ř":{"ha":913,"x_min":29,"x_max":939,"o":"m 582 1350 q 593 1335 593 1350 q 570 1302 593 1322 q 517 1263 547 1282 q 458 1231 488 1244 q 415 1217 428 1217 q 374 1231 403 1217 q 315 1263 346 1244 q 262 1302 285 1282 q 239 1335 239 1322 q 250 1350 239 1350 q 275 1343 257 1350 q 316 1326 293 1336 q 365 1303 339 1315 q 415 1278 392 1290 q 465 1303 439 1290 q 515 1326 492 1315 q 557 1343 539 1336 q 582 1350 575 1350 m 754 817 q 733 919 754 876 q 676 994 711 963 q 598 1044 642 1025 q 510 1074 554 1064 q 424 1089 465 1085 q 354 1093 383 1093 q 317 1092 335 1093 q 285 1088 299 1090 q 254 1083 268 1085 l 254 542 q 264 541 256 542 q 283 540 272 540 q 302 540 293 540 q 313 539 311 539 q 460 550 382 539 q 603 592 538 561 q 711 676 668 622 q 754 817 754 731 m 264 489 q 254 490 258 489 l 254 43 l 358 43 q 403 38 385 43 q 421 17 421 33 q 418 7 421 10 q 406 2 415 4 q 377 0 396 0 q 328 0 358 0 l 89 0 q 39 6 49 0 q 29 19 29 13 q 42 33 29 28 q 101 39 56 39 q 136 41 119 39 q 166 51 153 43 q 187 72 179 58 q 194 107 194 85 q 196 339 194 224 q 197 572 197 454 q 193 805 197 690 q 189 1038 189 919 q 182 1072 189 1060 q 161 1089 175 1083 q 126 1095 147 1094 q 78 1096 106 1096 q 50 1099 67 1096 q 33 1118 33 1101 q 38 1128 33 1125 q 50 1134 43 1132 q 64 1136 57 1136 q 74 1136 71 1136 q 164 1137 129 1136 q 231 1138 199 1138 q 303 1140 264 1139 q 404 1140 342 1140 q 540 1124 468 1140 q 674 1070 613 1107 q 776 973 735 1033 q 817 825 817 913 q 778 667 817 732 q 678 563 740 603 q 538 506 617 524 q 375 489 458 489 q 501 297 438 392 q 558 214 528 257 q 620 129 589 171 q 682 49 651 88 q 742 -19 713 11 l 875 -19 q 923 -22 907 -19 q 939 -39 939 -25 q 931 -52 939 -47 q 899 -59 924 -57 q 831 -61 875 -61 q 714 -61 786 -61 q 676 -33 701 -61 q 615 40 650 -6 q 540 144 581 86 q 458 264 500 203 q 374 384 415 325 q 296 489 332 443 l 264 489 z "},"Ŗ":{"ha":913,"x_min":29,"x_max":939,"o":"m 754 817 q 733 919 754 876 q 676 994 711 963 q 598 1044 642 1025 q 510 1074 554 1064 q 424 1089 465 1085 q 354 1093 383 1093 q 317 1092 335 1093 q 285 1088 299 1090 q 254 1083 268 1085 l 254 542 q 264 541 256 542 q 283 540 272 540 q 302 540 293 540 q 313 539 311 539 q 460 550 382 539 q 603 592 538 561 q 711 676 668 622 q 754 817 754 731 m 264 489 q 254 490 258 489 l 254 43 l 358 43 q 403 38 385 43 q 421 17 421 33 q 418 7 421 10 q 406 2 415 4 q 377 0 396 0 q 328 0 358 0 l 89 0 q 39 6 49 0 q 29 19 29 13 q 42 33 29 28 q 101 39 56 39 q 136 41 119 39 q 166 51 153 43 q 187 72 179 58 q 194 107 194 85 q 196 339 194 224 q 197 572 197 454 q 193 805 197 690 q 189 1038 189 919 q 182 1072 189 1060 q 161 1089 175 1083 q 126 1095 147 1094 q 78 1096 106 1096 q 50 1099 67 1096 q 33 1118 33 1101 q 38 1128 33 1125 q 50 1134 43 1132 q 64 1136 57 1136 q 74 1136 71 1136 q 164 1137 129 1136 q 231 1138 199 1138 q 303 1140 264 1139 q 404 1140 342 1140 q 540 1124 468 1140 q 674 1070 613 1107 q 776 973 735 1033 q 817 825 817 913 q 778 667 817 732 q 678 563 740 603 q 538 506 617 524 q 375 489 458 489 q 501 297 438 392 q 558 214 528 257 q 620 129 589 171 q 682 49 651 88 q 742 -19 713 11 l 875 -19 q 923 -22 907 -19 q 939 -39 939 -25 q 931 -52 939 -47 q 899 -59 924 -57 q 831 -61 875 -61 q 714 -61 786 -61 q 676 -33 701 -61 q 615 40 650 -6 q 540 144 581 86 q 458 264 500 203 q 374 384 415 325 q 296 489 332 443 l 264 489 m 417 -139 q 431 -106 417 -121 q 472 -92 444 -92 q 512 -108 493 -92 q 531 -171 531 -124 q 526 -203 531 -185 q 515 -240 522 -222 q 497 -269 508 -257 q 471 -281 485 -281 q 458 -276 464 -281 q 451 -264 451 -271 q 459 -234 451 -254 q 467 -200 467 -214 q 459 -187 467 -192 q 442 -177 451 -182 q 424 -164 432 -172 q 417 -139 417 -156 z "},"S":{"ha":822,"x_min":67,"x_max":767,"o":"m 117 126 q 118 69 117 94 q 119 49 118 58 q 119 31 119 39 q 121 13 119 21 q 94 -22 121 -22 q 74 -11 81 -22 q 67 10 67 0 q 67 35 67 18 q 69 72 68 51 q 72 114 71 93 q 72 150 72 135 q 72 188 72 172 q 71 217 71 203 q 70 247 71 232 q 69 285 69 263 q 74 318 69 304 q 96 332 78 332 q 121 306 115 332 q 126 250 126 281 q 147 165 126 207 q 205 92 167 124 q 299 40 243 60 q 429 19 356 19 q 526 32 479 19 q 610 67 574 44 q 670 124 647 90 q 693 201 693 158 q 657 278 693 244 q 567 338 621 311 q 453 389 514 365 q 343 436 393 413 q 253 483 299 457 q 168 551 207 510 q 105 651 129 592 q 81 797 81 710 q 113 942 81 875 q 197 1058 146 1008 q 313 1135 249 1107 q 439 1163 376 1163 q 611 1108 540 1163 q 724 932 682 1053 q 715 1062 718 1019 q 713 1106 713 1104 q 739 1140 713 1140 q 760 1129 753 1140 q 767 1108 767 1118 q 764 1008 767 1060 q 761 906 761 956 q 763 829 761 861 q 764 753 764 797 q 760 719 764 733 q 738 706 756 706 q 713 731 718 706 q 708 788 708 757 q 682 924 703 863 q 627 1030 661 986 q 547 1097 593 1074 q 444 1121 500 1121 q 323 1092 379 1121 q 226 1017 267 1064 q 161 909 185 969 q 138 785 138 849 q 156 668 138 715 q 206 587 175 621 q 278 530 238 553 q 360 488 318 507 q 467 443 401 468 q 597 383 533 418 q 705 304 660 349 q 750 201 750 260 q 718 98 750 140 q 638 28 686 56 q 535 -10 590 1 q 433 -22 479 -22 q 342 -14 389 -22 q 253 12 296 -6 q 174 58 210 29 q 117 126 139 86 z "},"Ś":{"ha":822,"x_min":67,"x_max":767,"o":"m 518 1319 q 499 1291 518 1308 q 454 1257 479 1274 q 405 1228 429 1240 q 371 1215 381 1215 q 360 1231 360 1215 q 376 1264 360 1243 q 415 1303 393 1285 q 460 1336 438 1322 q 492 1350 482 1350 q 510 1344 503 1350 q 518 1319 518 1339 m 117 126 q 118 69 117 94 q 119 49 118 58 q 119 31 119 39 q 121 13 119 21 q 94 -22 121 -22 q 74 -11 81 -22 q 67 10 67 0 q 67 35 67 18 q 69 72 68 51 q 72 114 71 93 q 72 150 72 135 q 72 188 72 172 q 71 217 71 203 q 70 247 71 232 q 69 285 69 263 q 74 318 69 304 q 96 332 78 332 q 121 306 115 332 q 126 250 126 281 q 147 165 126 207 q 205 92 167 124 q 299 40 243 60 q 429 19 356 19 q 526 32 479 19 q 610 67 574 44 q 670 124 647 90 q 693 201 693 158 q 657 278 693 244 q 567 338 621 311 q 453 389 514 365 q 343 436 393 413 q 253 483 299 457 q 168 551 207 510 q 105 651 129 592 q 81 797 81 710 q 113 942 81 875 q 197 1058 146 1008 q 313 1135 249 1107 q 439 1163 376 1163 q 611 1108 540 1163 q 724 932 682 1053 q 715 1062 718 1019 q 713 1106 713 1104 q 739 1140 713 1140 q 760 1129 753 1140 q 767 1108 767 1118 q 764 1008 767 1060 q 761 906 761 956 q 763 829 761 861 q 764 753 764 797 q 760 719 764 733 q 738 706 756 706 q 713 731 718 706 q 708 788 708 757 q 682 924 703 863 q 627 1030 661 986 q 547 1097 593 1074 q 444 1121 500 1121 q 323 1092 379 1121 q 226 1017 267 1064 q 161 909 185 969 q 138 785 138 849 q 156 668 138 715 q 206 587 175 621 q 278 530 238 553 q 360 488 318 507 q 467 443 401 468 q 597 383 533 418 q 705 304 660 349 q 750 201 750 260 q 718 98 750 140 q 638 28 686 56 q 535 -10 590 1 q 433 -22 479 -22 q 342 -14 389 -22 q 253 12 296 -6 q 174 58 210 29 q 117 126 139 86 z "},"Š":{"ha":822,"x_min":67,"x_max":767,"o":"m 601 1350 q 613 1335 613 1350 q 590 1302 613 1322 q 537 1263 567 1282 q 477 1231 507 1244 q 435 1217 447 1217 q 394 1231 422 1217 q 335 1263 365 1244 q 281 1302 304 1282 q 258 1335 258 1322 q 269 1350 258 1350 q 294 1343 276 1350 q 335 1326 313 1336 q 385 1303 358 1315 q 435 1278 411 1290 q 485 1303 458 1290 q 535 1326 511 1315 q 576 1343 558 1336 q 601 1350 594 1350 m 117 126 q 118 69 117 94 q 119 49 118 58 q 119 31 119 39 q 121 13 119 21 q 94 -22 121 -22 q 74 -11 81 -22 q 67 10 67 0 q 67 35 67 18 q 69 72 68 51 q 72 114 71 93 q 72 150 72 135 q 72 188 72 172 q 71 217 71 203 q 70 247 71 232 q 69 285 69 263 q 74 318 69 304 q 96 332 78 332 q 121 306 115 332 q 126 250 126 281 q 147 165 126 207 q 205 92 167 124 q 299 40 243 60 q 429 19 356 19 q 526 32 479 19 q 610 67 574 44 q 670 124 647 90 q 693 201 693 158 q 657 278 693 244 q 567 338 621 311 q 453 389 514 365 q 343 436 393 413 q 253 483 299 457 q 168 551 207 510 q 105 651 129 592 q 81 797 81 710 q 113 942 81 875 q 197 1058 146 1008 q 313 1135 249 1107 q 439 1163 376 1163 q 611 1108 540 1163 q 724 932 682 1053 q 715 1062 718 1019 q 713 1106 713 1104 q 739 1140 713 1140 q 760 1129 753 1140 q 767 1108 767 1118 q 764 1008 767 1060 q 761 906 761 956 q 763 829 761 861 q 764 753 764 797 q 760 719 764 733 q 738 706 756 706 q 713 731 718 706 q 708 788 708 757 q 682 924 703 863 q 627 1030 661 986 q 547 1097 593 1074 q 444 1121 500 1121 q 323 1092 379 1121 q 226 1017 267 1064 q 161 909 185 969 q 138 785 138 849 q 156 668 138 715 q 206 587 175 621 q 278 530 238 553 q 360 488 318 507 q 467 443 401 468 q 597 383 533 418 q 705 304 660 349 q 750 201 750 260 q 718 98 750 140 q 638 28 686 56 q 535 -10 590 1 q 433 -22 479 -22 q 342 -14 389 -22 q 253 12 296 -6 q 174 58 210 29 q 117 126 139 86 z "},"Ə":{"ha":881,"x_min":40,"x_max":822,"o":"m 161 454 q 135 442 142 454 q 128 408 128 429 q 146 292 128 357 q 199 168 164 226 q 288 70 235 110 q 414 31 342 31 q 544 72 486 31 q 643 176 601 113 q 711 316 685 239 q 749 464 738 393 l 161 454 m 756 511 q 758 562 757 536 q 760 610 760 588 q 739 785 760 696 q 676 949 718 875 q 569 1069 633 1022 q 418 1117 506 1117 q 303 1089 360 1117 q 203 1014 247 1061 q 133 905 160 967 q 106 776 106 843 q 97 745 106 757 q 72 733 88 733 q 40 776 40 733 q 74 932 40 861 q 163 1054 108 1003 q 283 1134 217 1106 q 414 1163 349 1163 q 592 1119 515 1163 q 719 998 668 1075 q 797 816 771 921 q 822 590 822 711 q 790 345 822 457 q 701 153 757 233 q 569 29 644 74 q 408 -15 494 -15 q 297 7 347 -15 q 208 65 247 29 q 142 145 169 100 q 96 237 114 190 q 69 326 78 283 q 60 403 60 369 q 76 472 60 440 q 128 506 92 504 q 249 508 176 508 q 400 508 322 508 q 472 509 424 508 q 575 510 521 510 q 679 510 629 510 q 756 511 729 511 z "},"Ŝ":{"ha":822,"x_min":67,"x_max":767,"o":"m 606 1215 q 581 1222 599 1215 q 539 1240 563 1229 q 489 1264 515 1251 q 439 1289 463 1276 q 389 1264 415 1276 q 339 1240 363 1251 q 298 1222 315 1229 q 274 1215 281 1215 q 263 1231 263 1215 q 285 1264 263 1243 q 339 1303 308 1285 q 398 1336 369 1322 q 439 1350 426 1350 q 481 1336 451 1350 q 541 1303 511 1322 q 594 1264 571 1285 q 617 1231 617 1243 q 606 1215 617 1215 m 117 126 q 118 69 117 94 q 119 49 118 58 q 119 31 119 39 q 121 13 119 21 q 94 -22 121 -22 q 74 -11 81 -22 q 67 10 67 0 q 67 35 67 18 q 69 72 68 51 q 72 114 71 93 q 72 150 72 135 q 72 188 72 172 q 71 217 71 203 q 70 247 71 232 q 69 285 69 263 q 74 318 69 304 q 96 332 78 332 q 121 306 115 332 q 126 250 126 281 q 147 165 126 207 q 205 92 167 124 q 299 40 243 60 q 429 19 356 19 q 526 32 479 19 q 610 67 574 44 q 670 124 647 90 q 693 201 693 158 q 657 278 693 244 q 567 338 621 311 q 453 389 514 365 q 343 436 393 413 q 253 483 299 457 q 168 551 207 510 q 105 651 129 592 q 81 797 81 710 q 113 942 81 875 q 197 1058 146 1008 q 313 1135 249 1107 q 439 1163 376 1163 q 611 1108 540 1163 q 724 932 682 1053 q 715 1062 718 1019 q 713 1106 713 1104 q 739 1140 713 1140 q 760 1129 753 1140 q 767 1108 767 1118 q 764 1008 767 1060 q 761 906 761 956 q 763 829 761 861 q 764 753 764 797 q 760 719 764 733 q 738 706 756 706 q 713 731 718 706 q 708 788 708 757 q 682 924 703 863 q 627 1030 661 986 q 547 1097 593 1074 q 444 1121 500 1121 q 323 1092 379 1121 q 226 1017 267 1064 q 161 909 185 969 q 138 785 138 849 q 156 668 138 715 q 206 587 175 621 q 278 530 238 553 q 360 488 318 507 q 467 443 401 468 q 597 383 533 418 q 705 304 660 349 q 750 201 750 260 q 718 98 750 140 q 638 28 686 56 q 535 -10 590 1 q 433 -22 479 -22 q 342 -14 389 -22 q 253 12 296 -6 q 174 58 210 29 q 117 126 139 86 z "},"T":{"ha":846,"x_min":22,"x_max":822,"o":"m 125 1090 q 81 1076 89 1090 q 74 1022 74 1063 l 74 861 q 69 801 74 817 q 47 785 65 785 q 29 794 36 785 q 22 846 22 804 q 23 903 22 868 q 24 963 24 939 q 23 1021 24 985 q 22 1081 22 1057 q 32 1131 22 1121 q 75 1140 42 1140 q 165 1140 122 1140 q 249 1139 207 1139 q 333 1138 290 1139 q 422 1138 375 1138 q 512 1138 469 1138 q 596 1139 554 1139 q 680 1140 638 1139 q 769 1140 722 1140 q 813 1131 803 1140 q 822 1081 822 1121 q 822 1021 822 1057 q 821 963 821 985 q 822 903 821 939 q 822 846 822 868 q 815 794 822 804 q 797 785 808 785 q 775 801 779 785 q 771 861 771 817 l 771 1022 q 763 1076 771 1063 q 719 1090 756 1090 l 449 1090 l 449 43 l 582 43 q 610 36 597 43 q 624 18 624 29 q 596 0 624 0 l 301 0 q 263 3 282 0 q 244 18 244 7 q 258 35 244 31 q 285 39 272 39 q 316 40 299 39 q 349 47 333 40 q 376 66 365 53 q 386 103 386 79 q 389 326 386 217 q 392 557 392 435 q 391 685 392 617 q 389 824 390 754 q 387 961 388 893 q 386 1090 386 1029 l 125 1090 z "},"Ŧ":{"ha":846,"x_min":22,"x_max":822,"o":"m 125 1090 q 81 1076 89 1090 q 74 1022 74 1063 l 74 861 q 69 801 74 817 q 47 785 65 785 q 29 794 36 785 q 22 846 22 804 q 23 903 22 868 q 24 963 24 939 q 23 1021 24 985 q 22 1081 22 1057 q 32 1131 22 1121 q 75 1140 42 1140 q 165 1140 122 1140 q 249 1139 207 1139 q 333 1138 290 1139 q 422 1138 375 1138 q 512 1138 469 1138 q 596 1139 554 1139 q 680 1140 638 1139 q 769 1140 722 1140 q 813 1131 803 1140 q 822 1081 822 1121 q 822 1021 822 1057 q 821 963 821 985 q 822 903 821 939 q 822 846 822 868 q 815 794 822 804 q 797 785 808 785 q 775 801 779 785 q 771 861 771 817 l 771 1022 q 763 1076 771 1063 q 719 1090 756 1090 l 449 1090 l 449 629 q 542 631 499 629 q 615 633 585 633 q 626 625 621 633 q 631 610 631 617 q 625 592 631 603 q 604 581 619 581 q 538 580 581 581 q 449 579 496 579 l 449 43 l 582 43 q 610 36 597 43 q 624 18 624 29 q 596 0 624 0 l 301 0 q 263 3 282 0 q 244 18 244 7 q 258 35 244 31 q 285 39 272 39 q 316 40 299 39 q 349 47 333 40 q 376 66 365 53 q 386 103 386 79 q 389 326 386 217 q 392 557 392 435 l 392 579 l 242 579 q 226 589 232 579 q 219 606 219 599 q 225 622 219 613 q 242 632 231 632 q 267 631 250 632 q 305 631 283 631 q 349 630 326 631 q 392 629 372 629 q 390 744 392 685 q 388 863 389 804 q 387 980 388 922 q 386 1090 386 1038 l 125 1090 z "},"Ť":{"ha":846,"x_min":22,"x_max":822,"o":"m 582 1350 q 593 1335 593 1350 q 570 1301 593 1322 q 517 1262 547 1281 q 458 1229 488 1243 q 415 1215 428 1215 q 374 1229 403 1215 q 315 1262 346 1243 q 262 1301 285 1281 q 239 1335 239 1322 q 250 1350 239 1350 q 274 1343 257 1350 q 315 1325 292 1336 q 365 1301 339 1314 q 415 1276 392 1289 q 465 1301 439 1289 q 515 1325 492 1314 q 557 1343 539 1336 q 582 1350 575 1350 m 125 1090 q 81 1076 89 1090 q 74 1022 74 1063 l 74 861 q 69 801 74 817 q 47 785 65 785 q 29 794 36 785 q 22 846 22 804 q 23 903 22 868 q 24 963 24 939 q 23 1021 24 985 q 22 1081 22 1057 q 32 1131 22 1121 q 75 1140 42 1140 q 165 1140 122 1140 q 249 1139 207 1139 q 333 1138 290 1139 q 422 1138 375 1138 q 512 1138 469 1138 q 596 1139 554 1139 q 680 1140 638 1139 q 769 1140 722 1140 q 813 1131 803 1140 q 822 1081 822 1121 q 822 1021 822 1057 q 821 963 821 985 q 822 903 821 939 q 822 846 822 868 q 815 794 822 804 q 797 785 808 785 q 775 801 779 785 q 771 861 771 817 l 771 1022 q 763 1076 771 1063 q 719 1090 756 1090 l 449 1090 l 449 43 l 582 43 q 610 36 597 43 q 624 18 624 29 q 596 0 624 0 l 301 0 q 263 3 282 0 q 244 18 244 7 q 258 35 244 31 q 285 39 272 39 q 316 40 299 39 q 349 47 333 40 q 376 66 365 53 q 386 103 386 79 q 389 326 386 217 q 392 557 392 435 q 391 685 392 617 q 389 824 390 754 q 387 961 388 893 q 386 1090 386 1029 l 125 1090 z "},"Þ":{"ha":846,"x_min":29,"x_max":817,"o":"m 88 39 q 149 46 128 39 q 181 63 171 53 q 193 83 192 72 q 194 100 194 93 q 194 194 194 156 q 194 264 194 233 q 195 322 194 294 q 196 381 196 350 q 196 452 196 413 q 196 549 196 492 q 194 687 196 615 q 192 825 193 758 q 189 949 190 892 q 188 1042 188 1006 q 176 1081 188 1064 q 119 1097 164 1097 l 72 1097 q 41 1104 49 1097 q 33 1118 33 1111 q 40 1131 33 1125 q 72 1138 47 1138 q 135 1138 96 1138 q 217 1139 175 1139 q 294 1140 258 1139 q 347 1140 331 1140 q 362 1140 353 1140 q 380 1138 371 1140 q 396 1132 389 1136 q 403 1119 403 1128 q 383 1101 403 1104 q 344 1099 364 1099 q 316 1098 332 1099 q 286 1093 300 1097 q 263 1081 272 1089 q 253 1056 253 1072 l 253 900 q 324 901 286 901 q 413 901 361 901 q 571 885 497 901 q 699 831 644 868 q 785 733 754 793 q 817 588 817 674 q 772 429 817 493 q 659 326 728 365 q 507 269 590 286 q 346 253 424 253 q 318 253 333 253 q 288 254 303 253 q 254 256 271 254 l 254 43 l 389 43 q 449 18 449 43 q 434 2 449 4 q 386 0 419 0 l 114 0 q 88 0 103 0 q 60 2 74 0 q 38 7 47 4 q 29 17 29 10 q 38 31 29 24 q 88 39 47 39 m 354 854 q 303 851 328 854 q 254 844 278 849 l 254 303 q 282 301 267 301 q 310 300 294 300 q 344 300 326 300 q 408 303 368 300 q 493 315 447 306 q 585 343 539 325 q 669 393 632 361 q 731 472 707 425 q 754 583 754 518 q 733 694 754 649 q 678 770 713 740 q 602 817 644 800 q 515 842 560 835 q 428 852 471 850 q 354 854 386 854 z "},"U":{"ha":1049,"x_min":17,"x_max":1029,"o":"m 236 449 q 241 289 236 365 q 272 154 246 213 q 354 60 299 96 q 511 25 410 25 q 658 56 599 25 q 755 136 718 86 q 808 249 792 186 q 825 378 825 313 l 825 992 q 812 1010 825 1004 q 780 1019 799 1017 q 740 1023 761 1022 q 706 1024 719 1024 q 672 1027 690 1024 q 654 1044 654 1031 q 674 1063 654 1060 q 706 1065 693 1065 l 958 1065 q 1016 1060 1003 1065 q 1029 1044 1029 1056 q 1012 1026 1029 1029 q 978 1024 994 1024 q 955 1023 971 1024 q 922 1019 939 1022 q 893 1009 906 1017 q 881 989 881 1001 q 879 835 881 911 q 878 683 878 760 q 879 531 878 607 q 881 378 881 454 q 853 200 881 275 q 777 76 826 125 q 660 4 728 28 q 510 -19 592 -19 q 405 -8 454 -19 q 316 28 356 4 q 249 88 276 51 q 208 174 221 125 q 185 316 190 244 q 181 464 181 388 q 181 555 181 508 q 182 649 182 601 q 181 857 182 753 q 179 1067 179 961 q 167 1085 179 1079 q 138 1094 156 1092 q 101 1098 121 1097 q 68 1099 82 1099 q 35 1102 53 1099 q 17 1119 17 1106 q 36 1138 17 1135 q 68 1140 56 1140 l 321 1140 q 378 1135 365 1140 q 392 1119 392 1131 q 374 1101 392 1104 q 340 1099 357 1099 q 317 1098 333 1099 q 282 1094 300 1097 q 250 1084 264 1092 q 236 1064 236 1076 l 236 449 z "},"Ú":{"ha":1049,"x_min":17,"x_max":1029,"o":"m 608 1319 q 589 1291 608 1308 q 544 1257 569 1274 q 495 1228 519 1240 q 461 1215 471 1215 q 450 1231 450 1215 q 467 1264 450 1243 q 506 1303 483 1285 q 550 1336 528 1322 q 582 1350 572 1350 q 601 1344 593 1350 q 608 1319 608 1339 m 236 449 q 241 289 236 365 q 272 154 246 213 q 354 60 299 96 q 511 25 410 25 q 658 56 599 25 q 755 136 718 86 q 808 249 792 186 q 825 378 825 313 l 825 992 q 812 1010 825 1004 q 780 1019 799 1017 q 740 1023 761 1022 q 706 1024 719 1024 q 672 1027 690 1024 q 654 1044 654 1031 q 674 1063 654 1060 q 706 1065 693 1065 l 958 1065 q 1016 1060 1003 1065 q 1029 1044 1029 1056 q 1012 1026 1029 1029 q 978 1024 994 1024 q 955 1023 971 1024 q 922 1019 939 1022 q 893 1009 906 1017 q 881 989 881 1001 q 879 835 881 911 q 878 683 878 760 q 879 531 878 607 q 881 378 881 454 q 853 200 881 275 q 777 76 826 125 q 660 4 728 28 q 510 -19 592 -19 q 405 -8 454 -19 q 316 28 356 4 q 249 88 276 51 q 208 174 221 125 q 185 316 190 244 q 181 464 181 388 q 181 555 181 508 q 182 649 182 601 q 181 857 182 753 q 179 1067 179 961 q 167 1085 179 1079 q 138 1094 156 1092 q 101 1098 121 1097 q 68 1099 82 1099 q 35 1102 53 1099 q 17 1119 17 1106 q 36 1138 17 1135 q 68 1140 56 1140 l 321 1140 q 378 1135 365 1140 q 392 1119 392 1131 q 374 1101 392 1104 q 340 1099 357 1099 q 317 1098 333 1099 q 282 1094 300 1097 q 250 1084 264 1092 q 236 1064 236 1076 l 236 449 z "},"Ŭ":{"ha":1049,"x_min":17,"x_max":1029,"o":"m 688 1317 q 674 1272 688 1292 q 638 1240 660 1253 q 588 1222 615 1228 q 533 1215 560 1215 q 427 1245 471 1215 q 383 1317 383 1275 q 407 1350 383 1350 q 426 1342 422 1350 q 431 1318 431 1335 q 439 1283 431 1297 q 462 1263 447 1269 q 495 1253 476 1256 q 533 1250 514 1250 q 570 1256 551 1250 q 604 1270 589 1261 q 628 1292 619 1279 q 638 1318 638 1304 q 661 1350 638 1350 q 680 1344 672 1350 q 688 1317 688 1339 m 236 449 q 241 289 236 365 q 272 154 246 213 q 354 60 299 96 q 511 25 410 25 q 658 56 599 25 q 755 136 718 86 q 808 249 792 186 q 825 378 825 313 l 825 992 q 812 1010 825 1004 q 780 1019 799 1017 q 740 1023 761 1022 q 706 1024 719 1024 q 672 1027 690 1024 q 654 1044 654 1031 q 674 1063 654 1060 q 706 1065 693 1065 l 958 1065 q 1016 1060 1003 1065 q 1029 1044 1029 1056 q 1012 1026 1029 1029 q 978 1024 994 1024 q 955 1023 971 1024 q 922 1019 939 1022 q 893 1009 906 1017 q 881 989 881 1001 q 879 835 881 911 q 878 683 878 760 q 879 531 878 607 q 881 378 881 454 q 853 200 881 275 q 777 76 826 125 q 660 4 728 28 q 510 -19 592 -19 q 405 -8 454 -19 q 316 28 356 4 q 249 88 276 51 q 208 174 221 125 q 185 316 190 244 q 181 464 181 388 q 181 555 181 508 q 182 649 182 601 q 181 857 182 753 q 179 1067 179 961 q 167 1085 179 1079 q 138 1094 156 1092 q 101 1098 121 1097 q 68 1099 82 1099 q 35 1102 53 1099 q 17 1119 17 1106 q 36 1138 17 1135 q 68 1140 56 1140 l 321 1140 q 378 1135 365 1140 q 392 1119 392 1131 q 374 1101 392 1104 q 340 1099 357 1099 q 317 1098 333 1099 q 282 1094 300 1097 q 250 1084 264 1092 q 236 1064 236 1076 l 236 449 z "},"Û":{"ha":1049,"x_min":17,"x_max":1029,"o":"m 696 1215 q 671 1222 689 1215 q 629 1240 653 1229 q 579 1264 606 1251 q 529 1289 553 1276 q 479 1264 506 1276 q 429 1240 453 1251 q 388 1222 406 1229 q 364 1215 371 1215 q 353 1231 353 1215 q 376 1264 353 1243 q 429 1303 399 1285 q 488 1336 460 1322 q 529 1350 517 1350 q 572 1336 542 1350 q 631 1303 601 1322 q 684 1264 661 1285 q 707 1231 707 1243 q 696 1215 707 1215 m 236 449 q 241 289 236 365 q 272 154 246 213 q 354 60 299 96 q 511 25 410 25 q 658 56 599 25 q 755 136 718 86 q 808 249 792 186 q 825 378 825 313 l 825 992 q 812 1010 825 1004 q 780 1019 799 1017 q 740 1023 761 1022 q 706 1024 719 1024 q 672 1027 690 1024 q 654 1044 654 1031 q 674 1063 654 1060 q 706 1065 693 1065 l 958 1065 q 1016 1060 1003 1065 q 1029 1044 1029 1056 q 1012 1026 1029 1029 q 978 1024 994 1024 q 955 1023 971 1024 q 922 1019 939 1022 q 893 1009 906 1017 q 881 989 881 1001 q 879 835 881 911 q 878 683 878 760 q 879 531 878 607 q 881 378 881 454 q 853 200 881 275 q 777 76 826 125 q 660 4 728 28 q 510 -19 592 -19 q 405 -8 454 -19 q 316 28 356 4 q 249 88 276 51 q 208 174 221 125 q 185 316 190 244 q 181 464 181 388 q 181 555 181 508 q 182 649 182 601 q 181 857 182 753 q 179 1067 179 961 q 167 1085 179 1079 q 138 1094 156 1092 q 101 1098 121 1097 q 68 1099 82 1099 q 35 1102 53 1099 q 17 1119 17 1106 q 36 1138 17 1135 q 68 1140 56 1140 l 321 1140 q 378 1135 365 1140 q 392 1119 392 1131 q 374 1101 392 1104 q 340 1099 357 1099 q 317 1098 333 1099 q 282 1094 300 1097 q 250 1084 264 1092 q 236 1064 236 1076 l 236 449 z "},"Ü":{"ha":1049,"x_min":17,"x_max":1029,"o":"m 336 1293 q 340 1310 336 1300 q 350 1328 343 1319 q 367 1344 357 1338 q 393 1350 378 1350 q 426 1336 413 1350 q 440 1299 440 1322 q 422 1248 440 1261 q 383 1235 403 1235 q 350 1251 364 1235 q 336 1293 336 1268 m 624 1274 q 627 1290 624 1281 q 638 1309 631 1300 q 655 1324 644 1318 q 681 1331 665 1331 q 714 1317 700 1331 q 728 1279 728 1303 q 709 1228 728 1242 q 671 1215 690 1215 q 638 1232 651 1215 q 624 1274 624 1249 m 236 449 q 241 289 236 365 q 272 154 246 213 q 354 60 299 96 q 511 25 410 25 q 658 56 599 25 q 755 136 718 86 q 808 249 792 186 q 825 378 825 313 l 825 992 q 812 1010 825 1004 q 780 1019 799 1017 q 740 1023 761 1022 q 706 1024 719 1024 q 672 1027 690 1024 q 654 1044 654 1031 q 674 1063 654 1060 q 706 1065 693 1065 l 958 1065 q 1016 1060 1003 1065 q 1029 1044 1029 1056 q 1012 1026 1029 1029 q 978 1024 994 1024 q 955 1023 971 1024 q 922 1019 939 1022 q 893 1009 906 1017 q 881 989 881 1001 q 879 835 881 911 q 878 683 878 760 q 879 531 878 607 q 881 378 881 454 q 853 200 881 275 q 777 76 826 125 q 660 4 728 28 q 510 -19 592 -19 q 405 -8 454 -19 q 316 28 356 4 q 249 88 276 51 q 208 174 221 125 q 185 316 190 244 q 181 464 181 388 q 181 555 181 508 q 182 649 182 601 q 181 857 182 753 q 179 1067 179 961 q 167 1085 179 1079 q 138 1094 156 1092 q 101 1098 121 1097 q 68 1099 82 1099 q 35 1102 53 1099 q 17 1119 17 1106 q 36 1138 17 1135 q 68 1140 56 1140 l 321 1140 q 378 1135 365 1140 q 392 1119 392 1131 q 374 1101 392 1104 q 340 1099 357 1099 q 317 1098 333 1099 q 282 1094 300 1097 q 250 1084 264 1092 q 236 1064 236 1076 l 236 449 z "},"Ù":{"ha":1049,"x_min":17,"x_max":1029,"o":"m 236 449 q 241 289 236 365 q 272 154 246 213 q 354 60 299 96 q 511 25 410 25 q 658 56 599 25 q 755 136 718 86 q 808 249 792 186 q 825 378 825 313 l 825 992 q 812 1010 825 1004 q 780 1019 799 1017 q 740 1023 761 1022 q 706 1024 719 1024 q 672 1027 690 1024 q 654 1044 654 1031 q 674 1063 654 1060 q 706 1065 693 1065 l 958 1065 q 1016 1060 1003 1065 q 1029 1044 1029 1056 q 1012 1026 1029 1029 q 978 1024 994 1024 q 955 1023 971 1024 q 922 1019 939 1022 q 893 1009 906 1017 q 881 989 881 1001 q 879 835 881 911 q 878 683 878 760 q 879 531 878 607 q 881 378 881 454 q 853 200 881 275 q 777 76 826 125 q 660 4 728 28 q 510 -19 592 -19 q 405 -8 454 -19 q 316 28 356 4 q 249 88 276 51 q 208 174 221 125 q 185 316 190 244 q 181 464 181 388 q 181 555 181 508 q 182 649 182 601 q 181 857 182 753 q 179 1067 179 961 q 167 1085 179 1079 q 138 1094 156 1092 q 101 1098 121 1097 q 68 1099 82 1099 q 35 1102 53 1099 q 17 1119 17 1106 q 36 1138 17 1135 q 68 1140 56 1140 l 321 1140 q 378 1135 365 1140 q 392 1119 392 1131 q 374 1101 392 1104 q 340 1099 357 1099 q 317 1098 333 1099 q 282 1094 300 1097 q 250 1084 264 1092 q 236 1064 236 1076 l 236 449 m 451 1319 q 459 1344 451 1339 q 478 1350 467 1350 q 510 1329 488 1350 q 554 1281 532 1308 q 593 1225 576 1253 q 610 1185 610 1197 q 599 1169 610 1169 q 565 1189 589 1169 q 515 1233 540 1208 q 471 1283 490 1258 q 451 1319 451 1308 z "},"Ű":{"ha":1049,"x_min":17,"x_max":1029,"o":"m 506 1319 q 486 1291 506 1308 q 442 1257 467 1274 q 392 1228 417 1240 q 358 1215 368 1215 q 347 1231 347 1215 q 364 1264 347 1243 q 403 1303 381 1285 q 447 1336 425 1322 q 479 1350 469 1350 q 498 1344 490 1350 q 506 1319 506 1339 m 719 1319 q 700 1291 719 1308 q 656 1257 681 1274 q 606 1228 631 1240 q 572 1215 582 1215 q 561 1231 561 1215 q 578 1264 561 1243 q 617 1303 594 1285 q 661 1336 639 1322 q 693 1350 683 1350 q 712 1344 704 1350 q 719 1319 719 1339 m 236 449 q 241 289 236 365 q 272 154 246 213 q 354 60 299 96 q 511 25 410 25 q 658 56 599 25 q 755 136 718 86 q 808 249 792 186 q 825 378 825 313 l 825 992 q 812 1010 825 1004 q 780 1019 799 1017 q 740 1023 761 1022 q 706 1024 719 1024 q 672 1027 690 1024 q 654 1044 654 1031 q 674 1063 654 1060 q 706 1065 693 1065 l 958 1065 q 1016 1060 1003 1065 q 1029 1044 1029 1056 q 1012 1026 1029 1029 q 978 1024 994 1024 q 955 1023 971 1024 q 922 1019 939 1022 q 893 1009 906 1017 q 881 989 881 1001 q 879 835 881 911 q 878 683 878 760 q 879 531 878 607 q 881 378 881 454 q 853 200 881 275 q 777 76 826 125 q 660 4 728 28 q 510 -19 592 -19 q 405 -8 454 -19 q 316 28 356 4 q 249 88 276 51 q 208 174 221 125 q 185 316 190 244 q 181 464 181 388 q 181 555 181 508 q 182 649 182 601 q 181 857 182 753 q 179 1067 179 961 q 167 1085 179 1079 q 138 1094 156 1092 q 101 1098 121 1097 q 68 1099 82 1099 q 35 1102 53 1099 q 17 1119 17 1106 q 36 1138 17 1135 q 68 1140 56 1140 l 321 1140 q 378 1135 365 1140 q 392 1119 392 1131 q 374 1101 392 1104 q 340 1099 357 1099 q 317 1098 333 1099 q 282 1094 300 1097 q 250 1084 264 1092 q 236 1064 236 1076 l 236 449 z "},"Ū":{"ha":1049,"x_min":17,"x_max":1029,"o":"m 236 449 q 241 289 236 365 q 272 154 246 213 q 354 60 299 96 q 511 25 410 25 q 658 56 599 25 q 755 136 718 86 q 808 249 792 186 q 825 378 825 313 l 825 992 q 812 1010 825 1004 q 780 1019 799 1017 q 740 1023 761 1022 q 706 1024 719 1024 q 672 1027 690 1024 q 654 1044 654 1031 q 674 1063 654 1060 q 706 1065 693 1065 l 958 1065 q 1016 1060 1003 1065 q 1029 1044 1029 1056 q 1012 1026 1029 1029 q 978 1024 994 1024 q 955 1023 971 1024 q 922 1019 939 1022 q 893 1009 906 1017 q 881 989 881 1001 q 879 835 881 911 q 878 683 878 760 q 879 531 878 607 q 881 378 881 454 q 853 200 881 275 q 777 76 826 125 q 660 4 728 28 q 510 -19 592 -19 q 405 -8 454 -19 q 316 28 356 4 q 249 88 276 51 q 208 174 221 125 q 185 316 190 244 q 181 464 181 388 q 181 555 181 508 q 182 649 182 601 q 181 857 182 753 q 179 1067 179 961 q 167 1085 179 1079 q 138 1094 156 1092 q 101 1098 121 1097 q 68 1099 82 1099 q 35 1102 53 1099 q 17 1119 17 1106 q 36 1138 17 1135 q 68 1140 56 1140 l 321 1140 q 378 1135 365 1140 q 392 1119 392 1131 q 374 1101 392 1104 q 340 1099 357 1099 q 317 1098 333 1099 q 282 1094 300 1097 q 250 1084 264 1092 q 236 1064 236 1076 l 236 449 m 725 1260 q 735 1254 731 1260 q 740 1242 740 1249 q 735 1226 740 1235 q 714 1217 729 1217 q 640 1217 686 1217 q 543 1216 593 1217 q 449 1215 493 1215 q 379 1215 404 1215 q 363 1223 369 1215 q 357 1238 357 1231 q 363 1251 357 1244 q 379 1258 368 1258 q 410 1258 389 1258 q 456 1257 431 1257 q 505 1256 481 1257 q 547 1256 529 1256 q 649 1258 606 1256 q 725 1260 692 1260 z "},"Ų":{"ha":1049,"x_min":17,"x_max":1029,"o":"m 236 449 q 241 289 236 365 q 272 154 246 213 q 354 60 299 96 q 511 25 410 25 q 658 56 599 25 q 755 136 718 86 q 808 249 792 186 q 825 378 825 313 l 825 992 q 812 1010 825 1004 q 780 1019 799 1017 q 740 1023 761 1022 q 706 1024 719 1024 q 672 1027 690 1024 q 654 1044 654 1031 q 674 1063 654 1060 q 706 1065 693 1065 l 958 1065 q 1016 1060 1003 1065 q 1029 1044 1029 1056 q 1012 1026 1029 1029 q 978 1024 994 1024 q 955 1023 971 1024 q 922 1019 939 1022 q 893 1009 906 1017 q 881 989 881 1001 q 879 835 881 911 q 878 683 878 760 q 879 531 878 607 q 881 378 881 454 q 856 209 881 281 q 788 88 832 138 q 683 13 744 39 q 549 -18 622 -12 q 513 -44 526 -28 q 490 -78 499 -61 q 479 -112 482 -96 q 476 -136 476 -128 q 478 -156 476 -144 q 487 -177 481 -167 q 503 -194 493 -187 q 531 -201 514 -201 q 561 -193 549 -201 q 583 -174 574 -185 q 599 -155 592 -164 q 617 -146 607 -146 q 633 -153 629 -146 q 636 -168 636 -160 q 628 -185 636 -174 q 606 -209 621 -197 q 572 -230 592 -221 q 528 -239 553 -239 q 447 -210 479 -239 q 415 -137 415 -182 q 424 -94 415 -114 q 446 -60 433 -75 q 472 -35 458 -46 q 496 -19 486 -25 q 396 -6 443 -18 q 311 31 349 7 q 247 91 274 56 q 208 174 221 126 q 185 316 190 244 q 181 464 181 388 q 181 555 181 508 q 182 649 182 601 q 181 857 182 753 q 179 1067 179 961 q 167 1085 179 1079 q 138 1094 156 1092 q 101 1098 121 1097 q 68 1099 82 1099 q 35 1102 53 1099 q 17 1119 17 1106 q 36 1138 17 1135 q 68 1140 56 1140 l 321 1140 q 378 1135 365 1140 q 392 1119 392 1131 q 374 1101 392 1104 q 340 1099 357 1099 q 317 1098 333 1099 q 282 1094 300 1097 q 250 1084 264 1092 q 236 1064 236 1076 l 236 449 z "},"Ů":{"ha":1049,"x_min":17,"x_max":1029,"o":"m 236 449 q 241 289 236 365 q 272 154 246 213 q 354 60 299 96 q 511 25 410 25 q 658 56 599 25 q 755 136 718 86 q 808 249 792 186 q 825 378 825 313 l 825 992 q 812 1010 825 1004 q 780 1019 799 1017 q 740 1023 761 1022 q 706 1024 719 1024 q 672 1027 690 1024 q 654 1044 654 1031 q 674 1063 654 1060 q 706 1065 693 1065 l 958 1065 q 1016 1060 1003 1065 q 1029 1044 1029 1056 q 1012 1026 1029 1029 q 978 1024 994 1024 q 955 1023 971 1024 q 922 1019 939 1022 q 893 1009 906 1017 q 881 989 881 1001 q 879 835 881 911 q 878 683 878 760 q 879 531 878 607 q 881 378 881 454 q 853 200 881 275 q 777 76 826 125 q 660 4 728 28 q 510 -19 592 -19 q 405 -8 454 -19 q 316 28 356 4 q 249 88 276 51 q 208 174 221 125 q 185 316 190 244 q 181 464 181 388 q 181 555 181 508 q 182 649 182 601 q 181 857 182 753 q 179 1067 179 961 q 167 1085 179 1079 q 138 1094 156 1092 q 101 1098 121 1097 q 68 1099 82 1099 q 35 1102 53 1099 q 17 1119 17 1106 q 36 1138 17 1135 q 68 1140 56 1140 l 321 1140 q 378 1135 365 1140 q 392 1119 392 1131 q 374 1101 392 1104 q 340 1099 357 1099 q 317 1098 333 1099 q 282 1094 300 1097 q 250 1084 264 1092 q 236 1064 236 1076 l 236 449 m 621 1256 q 592 1181 621 1206 q 531 1157 563 1157 q 469 1183 494 1157 q 444 1253 444 1210 q 470 1322 444 1294 q 536 1350 496 1350 q 599 1322 578 1350 q 621 1256 621 1293 m 533 1322 q 497 1302 507 1322 q 486 1253 486 1282 q 497 1203 486 1222 q 531 1183 507 1183 q 567 1203 554 1183 q 579 1254 579 1222 q 570 1301 579 1281 q 533 1322 561 1322 z "},"Ũ":{"ha":1049,"x_min":17,"x_max":1029,"o":"m 236 449 q 241 289 236 365 q 272 154 246 213 q 354 60 299 96 q 511 25 410 25 q 658 56 599 25 q 755 136 718 86 q 808 249 792 186 q 825 378 825 313 l 825 992 q 812 1010 825 1004 q 780 1019 799 1017 q 740 1023 761 1022 q 706 1024 719 1024 q 672 1027 690 1024 q 654 1044 654 1031 q 674 1063 654 1060 q 706 1065 693 1065 l 958 1065 q 1016 1060 1003 1065 q 1029 1044 1029 1056 q 1012 1026 1029 1029 q 978 1024 994 1024 q 955 1023 971 1024 q 922 1019 939 1022 q 893 1009 906 1017 q 881 989 881 1001 q 879 835 881 911 q 878 683 878 760 q 879 531 878 607 q 881 378 881 454 q 853 200 881 275 q 777 76 826 125 q 660 4 728 28 q 510 -19 592 -19 q 405 -8 454 -19 q 316 28 356 4 q 249 88 276 51 q 208 174 221 125 q 185 316 190 244 q 181 464 181 388 q 181 555 181 508 q 182 649 182 601 q 181 857 182 753 q 179 1067 179 961 q 167 1085 179 1079 q 138 1094 156 1092 q 101 1098 121 1097 q 68 1099 82 1099 q 35 1102 53 1099 q 17 1119 17 1106 q 36 1138 17 1135 q 68 1140 56 1140 l 321 1140 q 378 1135 365 1140 q 392 1119 392 1131 q 374 1101 392 1104 q 340 1099 357 1099 q 317 1098 333 1099 q 282 1094 300 1097 q 250 1084 264 1092 q 236 1064 236 1076 l 236 449 m 300 1254 q 340 1293 300 1269 q 435 1318 383 1318 q 480 1312 456 1318 q 529 1299 504 1306 q 579 1285 554 1292 q 625 1279 604 1279 q 708 1303 661 1279 q 735 1317 728 1314 q 750 1321 743 1321 q 763 1314 757 1321 q 768 1297 768 1307 q 757 1274 768 1285 q 726 1253 746 1263 q 681 1240 707 1244 q 626 1235 656 1235 q 574 1240 600 1235 q 524 1251 549 1244 q 478 1263 500 1257 q 436 1268 456 1268 q 397 1263 415 1268 q 364 1251 379 1257 q 338 1239 349 1244 q 319 1233 326 1233 q 306 1240 313 1233 q 300 1254 300 1247 z "},"V":{"ha":947,"x_min":-49,"x_max":1006,"o":"m 476 72 q 606 510 549 313 q 653 675 629 593 q 694 825 676 757 q 724 940 713 893 q 735 1001 735 988 q 725 1015 735 1011 q 701 1022 715 1019 q 669 1024 686 1024 q 636 1024 651 1024 q 606 1026 622 1024 q 589 1043 589 1028 q 599 1057 589 1050 q 636 1064 608 1064 l 974 1064 q 996 1060 986 1064 q 1006 1044 1006 1056 q 978 1029 1006 1029 q 946 1028 963 1029 q 913 1025 929 1026 q 885 1022 897 1024 q 868 1021 874 1021 q 824 1006 838 1018 q 800 968 810 993 q 751 826 778 908 q 697 649 725 743 q 641 458 669 556 q 586 272 613 361 q 538 109 560 183 q 503 -12 517 35 q 492 -31 500 -24 q 474 -39 485 -39 q 458 -33 467 -39 q 446 -12 450 -28 l 144 1060 q 103 1096 138 1088 q 1 1104 68 1104 q -33 1106 -18 1104 q -49 1121 -49 1108 q 0 1140 -49 1140 l 301 1140 q 335 1136 326 1140 q 344 1121 344 1132 q 324 1105 344 1108 q 278 1100 303 1101 q 232 1093 253 1099 q 211 1071 211 1088 q 222 1010 211 1058 q 252 889 233 961 q 294 728 271 817 q 343 549 318 639 q 476 72 401 336 z "},"W":{"ha":1540,"x_min":-56,"x_max":1589,"o":"m 1319 974 q 1307 997 1319 989 q 1276 1009 1294 1006 q 1238 1013 1258 1013 q 1203 1014 1218 1014 q 1172 1016 1189 1014 q 1156 1033 1156 1018 q 1165 1047 1156 1040 q 1203 1054 1175 1054 l 1557 1054 q 1579 1050 1569 1054 q 1589 1035 1589 1046 q 1561 1019 1589 1019 q 1526 1018 1546 1019 q 1488 1015 1507 1017 q 1455 1013 1469 1014 q 1435 1011 1440 1011 q 1367 958 1378 1006 q 1327 804 1346 876 q 1290 662 1308 732 q 1252 519 1272 592 q 1210 365 1232 447 q 1161 188 1188 283 q 1103 -24 1135 93 q 1084 -58 1096 -51 q 1063 -65 1072 -65 q 1040 -57 1051 -65 q 1019 -21 1028 -49 q 967 169 994 68 q 913 368 939 269 q 862 558 886 467 q 819 721 838 649 q 788 839 800 793 q 775 893 776 885 q 676 554 722 717 q 635 411 656 485 q 594 267 614 338 q 556 134 574 197 q 525 22 539 71 q 515 -1 522 11 q 493 -12 508 -12 q 476 -6 485 -12 q 461 18 467 1 q 383 273 421 147 q 306 526 344 399 q 226 786 268 654 q 136 1060 185 918 q 94 1096 126 1088 q -6 1104 61 1104 q -40 1106 -25 1104 q -56 1121 -56 1108 q -7 1140 -56 1140 l 294 1140 q 328 1136 319 1140 q 338 1121 338 1132 q 317 1105 338 1108 q 271 1100 296 1101 q 225 1093 246 1099 q 204 1071 204 1088 q 219 1002 204 1057 q 257 867 233 947 q 311 689 281 788 q 373 487 342 590 q 435 283 404 383 q 489 101 465 183 q 596 472 547 301 q 638 619 617 544 q 677 759 658 693 q 710 877 696 825 q 733 958 725 929 q 749 1003 742 983 q 776 1024 757 1024 q 795 1015 788 1024 q 808 994 803 1006 q 816 973 814 983 q 819 958 818 963 q 890 664 854 801 q 957 410 925 526 q 1016 196 989 293 q 1063 24 1043 99 q 1088 115 1072 58 q 1124 242 1104 172 q 1165 391 1143 313 q 1210 547 1188 469 q 1251 697 1232 625 q 1286 828 1271 769 q 1310 924 1301 886 q 1319 974 1319 963 z "},"Ẃ":{"ha":1540,"x_min":-56,"x_max":1589,"o":"m 854 1319 q 835 1291 854 1308 q 790 1257 815 1274 q 741 1228 765 1240 q 707 1215 717 1215 q 696 1231 696 1215 q 713 1264 696 1243 q 751 1303 729 1285 q 796 1336 774 1322 q 828 1350 818 1350 q 847 1344 839 1350 q 854 1319 854 1339 m 1319 974 q 1307 997 1319 989 q 1276 1009 1294 1006 q 1238 1013 1258 1013 q 1203 1014 1218 1014 q 1172 1016 1189 1014 q 1156 1033 1156 1018 q 1165 1047 1156 1040 q 1203 1054 1175 1054 l 1557 1054 q 1579 1050 1569 1054 q 1589 1035 1589 1046 q 1561 1019 1589 1019 q 1526 1018 1546 1019 q 1488 1015 1507 1017 q 1455 1013 1469 1014 q 1435 1011 1440 1011 q 1367 958 1378 1006 q 1327 804 1346 876 q 1290 662 1308 732 q 1252 519 1272 592 q 1210 365 1232 447 q 1161 188 1188 283 q 1103 -24 1135 93 q 1084 -58 1096 -51 q 1063 -65 1072 -65 q 1040 -57 1051 -65 q 1019 -21 1028 -49 q 967 169 994 68 q 913 368 939 269 q 862 558 886 467 q 819 721 838 649 q 788 839 800 793 q 775 893 776 885 q 676 554 722 717 q 635 411 656 485 q 594 267 614 338 q 556 134 574 197 q 525 22 539 71 q 515 -1 522 11 q 493 -12 508 -12 q 476 -6 485 -12 q 461 18 467 1 q 383 273 421 147 q 306 526 344 399 q 226 786 268 654 q 136 1060 185 918 q 94 1096 126 1088 q -6 1104 61 1104 q -40 1106 -25 1104 q -56 1121 -56 1108 q -7 1140 -56 1140 l 294 1140 q 328 1136 319 1140 q 338 1121 338 1132 q 317 1105 338 1108 q 271 1100 296 1101 q 225 1093 246 1099 q 204 1071 204 1088 q 219 1002 204 1057 q 257 867 233 947 q 311 689 281 788 q 373 487 342 590 q 435 283 404 383 q 489 101 465 183 q 596 472 547 301 q 638 619 617 544 q 677 759 658 693 q 710 877 696 825 q 733 958 725 929 q 749 1003 742 983 q 776 1024 757 1024 q 795 1015 788 1024 q 808 994 803 1006 q 816 973 814 983 q 819 958 818 963 q 890 664 854 801 q 957 410 925 526 q 1016 196 989 293 q 1063 24 1043 99 q 1088 115 1072 58 q 1124 242 1104 172 q 1165 391 1143 313 q 1210 547 1188 469 q 1251 697 1232 625 q 1286 828 1271 769 q 1310 924 1301 886 q 1319 974 1319 963 z "},"Ŵ":{"ha":1540,"x_min":-56,"x_max":1589,"o":"m 942 1215 q 917 1222 935 1215 q 875 1240 899 1229 q 825 1264 851 1251 q 775 1289 799 1276 q 725 1264 751 1276 q 675 1240 699 1251 q 634 1222 651 1229 q 610 1215 617 1215 q 599 1231 599 1215 q 622 1264 599 1243 q 675 1303 644 1285 q 734 1336 706 1322 q 775 1350 763 1350 q 817 1336 788 1350 q 877 1303 847 1322 q 930 1264 907 1285 q 953 1231 953 1243 q 942 1215 953 1215 m 1319 974 q 1307 997 1319 989 q 1276 1009 1294 1006 q 1238 1013 1258 1013 q 1203 1014 1218 1014 q 1172 1016 1189 1014 q 1156 1033 1156 1018 q 1165 1047 1156 1040 q 1203 1054 1175 1054 l 1557 1054 q 1579 1050 1569 1054 q 1589 1035 1589 1046 q 1561 1019 1589 1019 q 1526 1018 1546 1019 q 1488 1015 1507 1017 q 1455 1013 1469 1014 q 1435 1011 1440 1011 q 1367 958 1378 1006 q 1327 804 1346 876 q 1290 662 1308 732 q 1252 519 1272 592 q 1210 365 1232 447 q 1161 188 1188 283 q 1103 -24 1135 93 q 1084 -58 1096 -51 q 1063 -65 1072 -65 q 1040 -57 1051 -65 q 1019 -21 1028 -49 q 967 169 994 68 q 913 368 939 269 q 862 558 886 467 q 819 721 838 649 q 788 839 800 793 q 775 893 776 885 q 676 554 722 717 q 635 411 656 485 q 594 267 614 338 q 556 134 574 197 q 525 22 539 71 q 515 -1 522 11 q 493 -12 508 -12 q 476 -6 485 -12 q 461 18 467 1 q 383 273 421 147 q 306 526 344 399 q 226 786 268 654 q 136 1060 185 918 q 94 1096 126 1088 q -6 1104 61 1104 q -40 1106 -25 1104 q -56 1121 -56 1108 q -7 1140 -56 1140 l 294 1140 q 328 1136 319 1140 q 338 1121 338 1132 q 317 1105 338 1108 q 271 1100 296 1101 q 225 1093 246 1099 q 204 1071 204 1088 q 219 1002 204 1057 q 257 867 233 947 q 311 689 281 788 q 373 487 342 590 q 435 283 404 383 q 489 101 465 183 q 596 472 547 301 q 638 619 617 544 q 677 759 658 693 q 710 877 696 825 q 733 958 725 929 q 749 1003 742 983 q 776 1024 757 1024 q 795 1015 788 1024 q 808 994 803 1006 q 816 973 814 983 q 819 958 818 963 q 890 664 854 801 q 957 410 925 526 q 1016 196 989 293 q 1063 24 1043 99 q 1088 115 1072 58 q 1124 242 1104 172 q 1165 391 1143 313 q 1210 547 1188 469 q 1251 697 1232 625 q 1286 828 1271 769 q 1310 924 1301 886 q 1319 974 1319 963 z "},"Ẅ":{"ha":1540,"x_min":-56,"x_max":1589,"o":"m 582 1293 q 585 1310 582 1300 q 596 1328 589 1319 q 613 1344 603 1338 q 639 1350 624 1350 q 672 1336 658 1350 q 686 1299 686 1322 q 667 1248 686 1261 q 629 1235 649 1235 q 596 1251 610 1235 q 582 1293 582 1268 m 869 1274 q 873 1290 869 1281 q 883 1309 876 1300 q 901 1324 890 1318 q 926 1331 911 1331 q 960 1317 946 1331 q 974 1279 974 1303 q 955 1228 974 1242 q 917 1215 936 1215 q 883 1232 897 1215 q 869 1274 869 1249 m 1319 974 q 1307 997 1319 989 q 1276 1009 1294 1006 q 1238 1013 1258 1013 q 1203 1014 1218 1014 q 1172 1016 1189 1014 q 1156 1033 1156 1018 q 1165 1047 1156 1040 q 1203 1054 1175 1054 l 1557 1054 q 1579 1050 1569 1054 q 1589 1035 1589 1046 q 1561 1019 1589 1019 q 1526 1018 1546 1019 q 1488 1015 1507 1017 q 1455 1013 1469 1014 q 1435 1011 1440 1011 q 1367 958 1378 1006 q 1327 804 1346 876 q 1290 662 1308 732 q 1252 519 1272 592 q 1210 365 1232 447 q 1161 188 1188 283 q 1103 -24 1135 93 q 1084 -58 1096 -51 q 1063 -65 1072 -65 q 1040 -57 1051 -65 q 1019 -21 1028 -49 q 967 169 994 68 q 913 368 939 269 q 862 558 886 467 q 819 721 838 649 q 788 839 800 793 q 775 893 776 885 q 676 554 722 717 q 635 411 656 485 q 594 267 614 338 q 556 134 574 197 q 525 22 539 71 q 515 -1 522 11 q 493 -12 508 -12 q 476 -6 485 -12 q 461 18 467 1 q 383 273 421 147 q 306 526 344 399 q 226 786 268 654 q 136 1060 185 918 q 94 1096 126 1088 q -6 1104 61 1104 q -40 1106 -25 1104 q -56 1121 -56 1108 q -7 1140 -56 1140 l 294 1140 q 328 1136 319 1140 q 338 1121 338 1132 q 317 1105 338 1108 q 271 1100 296 1101 q 225 1093 246 1099 q 204 1071 204 1088 q 219 1002 204 1057 q 257 867 233 947 q 311 689 281 788 q 373 487 342 590 q 435 283 404 383 q 489 101 465 183 q 596 472 547 301 q 638 619 617 544 q 677 759 658 693 q 710 877 696 825 q 733 958 725 929 q 749 1003 742 983 q 776 1024 757 1024 q 795 1015 788 1024 q 808 994 803 1006 q 816 973 814 983 q 819 958 818 963 q 890 664 854 801 q 957 410 925 526 q 1016 196 989 293 q 1063 24 1043 99 q 1088 115 1072 58 q 1124 242 1104 172 q 1165 391 1143 313 q 1210 547 1188 469 q 1251 697 1232 625 q 1286 828 1271 769 q 1310 924 1301 886 q 1319 974 1319 963 z "},"Ẁ":{"ha":1540,"x_min":-56,"x_max":1589,"o":"m 697 1319 q 705 1344 697 1339 q 724 1350 713 1350 q 756 1336 733 1350 q 800 1303 778 1322 q 839 1264 822 1285 q 856 1231 856 1243 q 844 1215 856 1215 q 810 1228 835 1215 q 761 1257 786 1240 q 717 1291 736 1274 q 697 1319 697 1308 m 1319 974 q 1307 997 1319 989 q 1276 1009 1294 1006 q 1238 1013 1258 1013 q 1203 1014 1218 1014 q 1172 1016 1189 1014 q 1156 1033 1156 1018 q 1165 1047 1156 1040 q 1203 1054 1175 1054 l 1557 1054 q 1579 1050 1569 1054 q 1589 1035 1589 1046 q 1561 1019 1589 1019 q 1526 1018 1546 1019 q 1488 1015 1507 1017 q 1455 1013 1469 1014 q 1435 1011 1440 1011 q 1367 958 1378 1006 q 1327 804 1346 876 q 1290 662 1308 732 q 1252 519 1272 592 q 1210 365 1232 447 q 1161 188 1188 283 q 1103 -24 1135 93 q 1084 -58 1096 -51 q 1063 -65 1072 -65 q 1040 -57 1051 -65 q 1019 -21 1028 -49 q 967 169 994 68 q 913 368 939 269 q 862 558 886 467 q 819 721 838 649 q 788 839 800 793 q 775 893 776 885 q 676 554 722 717 q 635 411 656 485 q 594 267 614 338 q 556 134 574 197 q 525 22 539 71 q 515 -1 522 11 q 493 -12 508 -12 q 476 -6 485 -12 q 461 18 467 1 q 383 273 421 147 q 306 526 344 399 q 226 786 268 654 q 136 1060 185 918 q 94 1096 126 1088 q -6 1104 61 1104 q -40 1106 -25 1104 q -56 1121 -56 1108 q -7 1140 -56 1140 l 294 1140 q 328 1136 319 1140 q 338 1121 338 1132 q 317 1105 338 1108 q 271 1100 296 1101 q 225 1093 246 1099 q 204 1071 204 1088 q 219 1002 204 1057 q 257 867 233 947 q 311 689 281 788 q 373 487 342 590 q 435 283 404 383 q 489 101 465 183 q 596 472 547 301 q 638 619 617 544 q 677 759 658 693 q 710 877 696 825 q 733 958 725 929 q 749 1003 742 983 q 776 1024 757 1024 q 795 1015 788 1024 q 808 994 803 1006 q 816 973 814 983 q 819 958 818 963 q 890 664 854 801 q 957 410 925 526 q 1016 196 989 293 q 1063 24 1043 99 q 1088 115 1072 58 q 1124 242 1104 172 q 1165 391 1143 313 q 1210 547 1188 469 q 1251 697 1232 625 q 1286 828 1271 769 q 1310 924 1301 886 q 1319 974 1319 963 z "},"X":{"ha":943,"x_min":-17,"x_max":986,"o":"m 267 1047 q 275 1021 267 1042 q 298 969 283 1000 q 330 902 313 939 q 367 828 347 865 q 468 631 411 739 q 499 693 478 653 q 544 781 519 733 q 594 878 568 828 q 642 969 621 928 q 676 1041 663 1011 q 690 1078 690 1071 q 667 1097 690 1094 q 592 1100 644 1100 q 561 1102 578 1100 q 544 1119 544 1104 q 554 1133 544 1126 q 592 1140 564 1140 l 904 1140 q 926 1136 917 1140 q 936 1121 936 1132 q 908 1106 936 1106 q 850 1101 879 1104 q 810 1097 821 1099 q 767 1081 779 1094 q 742 1044 754 1068 l 494 575 l 779 29 q 831 -6 793 3 q 936 -15 869 -15 q 971 -17 956 -15 q 986 -32 986 -19 q 938 -51 986 -51 l 636 -51 q 602 -47 611 -51 q 593 -32 593 -43 q 614 -16 593 -19 q 660 -11 635 -12 q 707 -8 686 -10 q 728 3 728 -6 q 717 33 728 8 q 687 95 706 58 q 645 178 668 132 q 597 269 622 224 q 468 514 540 378 q 452 481 468 513 q 413 401 436 449 q 363 296 390 353 q 312 189 335 239 q 273 103 289 139 q 257 63 257 68 q 267 49 257 53 q 291 42 276 44 q 323 40 306 40 q 356 40 340 40 q 386 38 369 40 q 403 21 403 36 q 393 7 403 14 q 356 0 383 0 l 15 0 q -7 4 3 0 q -17 19 -17 8 q 11 35 -17 35 q 45 36 25 35 q 84 39 65 38 q 117 42 103 40 q 138 43 132 43 q 181 59 168 46 q 206 96 193 72 l 439 572 l 210 1029 q 160 1065 196 1057 q 57 1074 124 1074 q 22 1076 38 1074 q 7 1090 7 1078 q 56 1110 7 1110 l 357 1110 q 391 1106 382 1110 q 400 1090 400 1101 q 379 1074 400 1078 q 333 1069 358 1071 q 288 1065 308 1068 q 267 1047 267 1061 z "},"Y":{"ha":900,"x_min":-42,"x_max":958,"o":"m 219 1060 q 235 1017 219 1051 q 273 933 250 982 q 324 825 296 883 q 378 713 351 767 q 425 615 404 658 q 454 549 446 571 q 483 608 463 569 q 530 696 504 647 q 583 796 556 744 q 633 892 610 847 q 670 971 656 938 q 685 1017 685 1004 q 675 1031 685 1026 q 651 1037 665 1035 q 619 1039 636 1039 q 586 1039 601 1039 q 556 1041 572 1039 q 539 1058 539 1043 q 549 1072 539 1065 q 586 1079 558 1079 l 926 1079 q 949 1075 939 1079 q 958 1060 958 1071 q 931 1044 958 1044 q 896 1043 915 1044 q 858 1040 876 1042 q 824 1038 839 1039 q 804 1036 810 1036 q 761 1020 774 1033 q 736 983 749 1007 q 669 856 706 926 q 595 714 632 785 q 526 577 558 643 q 474 464 494 511 q 475 317 474 392 q 477 179 476 253 q 478 43 478 106 l 611 43 q 640 36 626 43 q 653 18 653 29 q 625 0 653 0 l 335 0 q 297 3 315 0 q 278 18 278 7 q 292 35 278 31 q 318 39 306 39 q 349 40 332 39 q 383 47 367 40 q 409 66 399 53 q 419 103 419 79 l 419 493 q 344 662 374 594 q 288 786 315 729 q 230 902 261 843 q 151 1049 199 961 q 106 1084 136 1075 q 8 1093 75 1093 q -26 1095 -11 1093 q -42 1110 -42 1097 q 7 1129 -42 1129 l 310 1129 q 344 1125 335 1129 q 353 1110 353 1121 q 332 1094 353 1097 q 286 1089 311 1090 q 240 1082 261 1088 q 219 1060 219 1076 z "},"Ý":{"ha":900,"x_min":-42,"x_max":958,"o":"m 535 1318 q 515 1290 535 1307 q 471 1256 496 1272 q 422 1227 446 1239 q 388 1215 397 1215 q 376 1231 376 1215 q 393 1263 376 1243 q 432 1302 410 1283 q 476 1335 454 1321 q 508 1349 499 1349 q 527 1343 519 1349 q 535 1318 535 1338 m 219 1060 q 235 1017 219 1051 q 273 933 250 982 q 324 825 296 883 q 378 713 351 767 q 425 615 404 658 q 454 549 446 571 q 483 608 463 569 q 530 696 504 647 q 583 796 556 744 q 633 892 610 847 q 670 971 656 938 q 685 1017 685 1004 q 675 1031 685 1026 q 651 1037 665 1035 q 619 1039 636 1039 q 586 1039 601 1039 q 556 1041 572 1039 q 539 1058 539 1043 q 549 1072 539 1065 q 586 1079 558 1079 l 926 1079 q 949 1075 939 1079 q 958 1060 958 1071 q 931 1044 958 1044 q 896 1043 915 1044 q 858 1040 876 1042 q 824 1038 839 1039 q 804 1036 810 1036 q 761 1020 774 1033 q 736 983 749 1007 q 669 856 706 926 q 595 714 632 785 q 526 577 558 643 q 474 464 494 511 q 475 317 474 392 q 477 179 476 253 q 478 43 478 106 l 611 43 q 640 36 626 43 q 653 18 653 29 q 625 0 653 0 l 335 0 q 297 3 315 0 q 278 18 278 7 q 292 35 278 31 q 318 39 306 39 q 349 40 332 39 q 383 47 367 40 q 409 66 399 53 q 419 103 419 79 l 419 493 q 344 662 374 594 q 288 786 315 729 q 230 902 261 843 q 151 1049 199 961 q 106 1084 136 1075 q 8 1093 75 1093 q -26 1095 -11 1093 q -42 1110 -42 1097 q 7 1129 -42 1129 l 310 1129 q 344 1125 335 1129 q 353 1110 353 1121 q 332 1094 353 1097 q 286 1089 311 1090 q 240 1082 261 1088 q 219 1060 219 1076 z "},"Ŷ":{"ha":900,"x_min":-42,"x_max":958,"o":"m 622 1215 q 597 1222 615 1215 q 556 1240 579 1229 q 506 1264 532 1251 q 456 1289 479 1276 q 406 1264 432 1276 q 356 1240 379 1251 q 315 1222 332 1229 q 290 1215 297 1215 q 279 1231 279 1215 q 302 1264 279 1243 q 356 1303 325 1285 q 415 1336 386 1322 q 456 1350 443 1350 q 498 1336 468 1350 q 558 1303 528 1322 q 610 1264 588 1285 q 633 1231 633 1243 q 622 1215 633 1215 m 219 1060 q 235 1017 219 1051 q 273 933 250 982 q 324 825 296 883 q 378 713 351 767 q 425 615 404 658 q 454 549 446 571 q 483 608 463 569 q 530 696 504 647 q 583 796 556 744 q 633 892 610 847 q 670 971 656 938 q 685 1017 685 1004 q 675 1031 685 1026 q 651 1037 665 1035 q 619 1039 636 1039 q 586 1039 601 1039 q 556 1041 572 1039 q 539 1058 539 1043 q 549 1072 539 1065 q 586 1079 558 1079 l 926 1079 q 949 1075 939 1079 q 958 1060 958 1071 q 931 1044 958 1044 q 896 1043 915 1044 q 858 1040 876 1042 q 824 1038 839 1039 q 804 1036 810 1036 q 761 1020 774 1033 q 736 983 749 1007 q 669 856 706 926 q 595 714 632 785 q 526 577 558 643 q 474 464 494 511 q 475 317 474 392 q 477 179 476 253 q 478 43 478 106 l 611 43 q 640 36 626 43 q 653 18 653 29 q 625 0 653 0 l 335 0 q 297 3 315 0 q 278 18 278 7 q 292 35 278 31 q 318 39 306 39 q 349 40 332 39 q 383 47 367 40 q 409 66 399 53 q 419 103 419 79 l 419 493 q 344 662 374 594 q 288 786 315 729 q 230 902 261 843 q 151 1049 199 961 q 106 1084 136 1075 q 8 1093 75 1093 q -26 1095 -11 1093 q -42 1110 -42 1097 q 7 1129 -42 1129 l 310 1129 q 344 1125 335 1129 q 353 1110 353 1121 q 332 1094 353 1097 q 286 1089 311 1090 q 240 1082 261 1088 q 219 1060 219 1076 z "},"Ÿ":{"ha":900,"x_min":-42,"x_max":958,"o":"m 263 1293 q 266 1310 263 1300 q 276 1328 269 1319 q 294 1344 283 1338 q 319 1350 304 1350 q 353 1336 339 1350 q 367 1299 367 1322 q 348 1248 367 1261 q 310 1235 329 1235 q 276 1251 290 1235 q 263 1293 263 1268 m 550 1274 q 553 1290 550 1281 q 564 1309 557 1300 q 581 1324 571 1318 q 607 1331 592 1331 q 640 1317 626 1331 q 654 1279 654 1303 q 635 1228 654 1242 q 597 1215 617 1215 q 564 1232 578 1215 q 550 1274 550 1249 m 219 1060 q 235 1017 219 1051 q 273 933 250 982 q 324 825 296 883 q 378 713 351 767 q 425 615 404 658 q 454 549 446 571 q 483 608 463 569 q 530 696 504 647 q 583 796 556 744 q 633 892 610 847 q 670 971 656 938 q 685 1017 685 1004 q 675 1031 685 1026 q 651 1037 665 1035 q 619 1039 636 1039 q 586 1039 601 1039 q 556 1041 572 1039 q 539 1058 539 1043 q 549 1072 539 1065 q 586 1079 558 1079 l 926 1079 q 949 1075 939 1079 q 958 1060 958 1071 q 931 1044 958 1044 q 896 1043 915 1044 q 858 1040 876 1042 q 824 1038 839 1039 q 804 1036 810 1036 q 761 1020 774 1033 q 736 983 749 1007 q 669 856 706 926 q 595 714 632 785 q 526 577 558 643 q 474 464 494 511 q 475 317 474 392 q 477 179 476 253 q 478 43 478 106 l 611 43 q 640 36 626 43 q 653 18 653 29 q 625 0 653 0 l 335 0 q 297 3 315 0 q 278 18 278 7 q 292 35 278 31 q 318 39 306 39 q 349 40 332 39 q 383 47 367 40 q 409 66 399 53 q 419 103 419 79 l 419 493 q 344 662 374 594 q 288 786 315 729 q 230 902 261 843 q 151 1049 199 961 q 106 1084 136 1075 q 8 1093 75 1093 q -26 1095 -11 1093 q -42 1110 -42 1097 q 7 1129 -42 1129 l 310 1129 q 344 1125 335 1129 q 353 1110 353 1121 q 332 1094 353 1097 q 286 1089 311 1090 q 240 1082 261 1088 q 219 1060 219 1076 z "},"Ỳ":{"ha":900,"x_min":-42,"x_max":958,"o":"m 378 1319 q 385 1344 378 1339 q 404 1350 393 1350 q 436 1336 414 1350 q 481 1303 458 1322 q 519 1264 503 1285 q 536 1231 536 1243 q 525 1215 536 1215 q 491 1228 515 1215 q 442 1257 467 1240 q 397 1291 417 1274 q 378 1319 378 1308 m 219 1060 q 235 1017 219 1051 q 273 933 250 982 q 324 825 296 883 q 378 713 351 767 q 425 615 404 658 q 454 549 446 571 q 483 608 463 569 q 530 696 504 647 q 583 796 556 744 q 633 892 610 847 q 670 971 656 938 q 685 1017 685 1004 q 675 1031 685 1026 q 651 1037 665 1035 q 619 1039 636 1039 q 586 1039 601 1039 q 556 1041 572 1039 q 539 1058 539 1043 q 549 1072 539 1065 q 586 1079 558 1079 l 926 1079 q 949 1075 939 1079 q 958 1060 958 1071 q 931 1044 958 1044 q 896 1043 915 1044 q 858 1040 876 1042 q 824 1038 839 1039 q 804 1036 810 1036 q 761 1020 774 1033 q 736 983 749 1007 q 669 856 706 926 q 595 714 632 785 q 526 577 558 643 q 474 464 494 511 q 475 317 474 392 q 477 179 476 253 q 478 43 478 106 l 611 43 q 640 36 626 43 q 653 18 653 29 q 625 0 653 0 l 335 0 q 297 3 315 0 q 278 18 278 7 q 292 35 278 31 q 318 39 306 39 q 349 40 332 39 q 383 47 367 40 q 409 66 399 53 q 419 103 419 79 l 419 493 q 344 662 374 594 q 288 786 315 729 q 230 902 261 843 q 151 1049 199 961 q 106 1084 136 1075 q 8 1093 75 1093 q -26 1095 -11 1093 q -42 1110 -42 1097 q 7 1129 -42 1129 l 310 1129 q 344 1125 335 1129 q 353 1110 353 1121 q 332 1094 353 1097 q 286 1089 311 1090 q 240 1082 261 1088 q 219 1060 219 1076 z "},"Ỹ":{"ha":900,"x_min":-42,"x_max":958,"o":"m 219 1060 q 235 1017 219 1051 q 273 933 250 982 q 324 825 296 883 q 378 713 351 767 q 425 615 404 658 q 454 549 446 571 q 483 608 463 569 q 530 696 504 647 q 583 796 556 744 q 633 892 610 847 q 670 971 656 938 q 685 1017 685 1004 q 675 1031 685 1026 q 651 1037 665 1035 q 619 1039 636 1039 q 586 1039 601 1039 q 556 1041 572 1039 q 539 1058 539 1043 q 549 1072 539 1065 q 586 1079 558 1079 l 926 1079 q 949 1075 939 1079 q 958 1060 958 1071 q 931 1044 958 1044 q 896 1043 915 1044 q 858 1040 876 1042 q 824 1038 839 1039 q 804 1036 810 1036 q 761 1020 774 1033 q 736 983 749 1007 q 669 856 706 926 q 595 714 632 785 q 526 577 558 643 q 474 464 494 511 q 475 317 474 392 q 477 179 476 253 q 478 43 478 106 l 611 43 q 640 36 626 43 q 653 18 653 29 q 625 0 653 0 l 335 0 q 297 3 315 0 q 278 18 278 7 q 292 35 278 31 q 318 39 306 39 q 349 40 332 39 q 383 47 367 40 q 409 66 399 53 q 419 103 419 79 l 419 493 q 344 662 374 594 q 288 786 315 729 q 230 902 261 843 q 151 1049 199 961 q 106 1084 136 1075 q 8 1093 75 1093 q -26 1095 -11 1093 q -42 1110 -42 1097 q 7 1129 -42 1129 l 310 1129 q 344 1125 335 1129 q 353 1110 353 1121 q 332 1094 353 1097 q 286 1089 311 1090 q 240 1082 261 1088 q 219 1060 219 1076 m 222 1254 q 263 1293 222 1269 q 357 1318 306 1318 q 402 1312 378 1318 q 451 1299 426 1306 q 501 1285 476 1292 q 547 1279 526 1279 q 631 1303 583 1279 q 658 1317 650 1314 q 672 1321 665 1321 q 685 1314 679 1321 q 690 1297 690 1307 q 679 1274 690 1285 q 649 1253 668 1263 q 603 1240 629 1244 q 549 1235 578 1235 q 497 1240 522 1235 q 447 1251 471 1244 q 400 1263 422 1257 q 358 1268 378 1268 q 319 1263 338 1268 q 286 1251 301 1257 q 260 1239 271 1244 q 242 1233 249 1233 q 228 1240 235 1233 q 222 1254 222 1247 z "},"Z":{"ha":858,"x_min":31,"x_max":803,"o":"m 803 390 q 801 366 803 389 q 798 308 800 343 q 794 231 796 272 q 790 152 792 190 q 786 84 788 114 q 785 43 785 54 q 774 6 785 11 q 735 0 763 0 q 574 1 654 0 q 413 1 493 1 q 252 1 332 1 q 92 0 172 0 q 46 5 61 0 q 31 26 31 10 q 31 38 31 33 q 35 49 32 43 q 44 62 39 54 q 60 85 50 69 q 103 149 69 100 q 183 267 136 197 q 285 420 229 336 q 399 590 342 504 q 510 758 456 676 q 606 906 564 840 q 672 1016 647 972 q 697 1068 697 1060 q 696 1079 697 1075 q 688 1086 694 1083 q 669 1090 682 1089 q 631 1090 656 1090 l 186 1090 q 137 1077 146 1090 q 128 1031 128 1064 q 128 997 128 1019 q 127 950 128 975 q 126 901 126 925 q 126 861 126 876 q 121 797 126 810 q 100 785 115 785 q 80 799 85 785 q 75 835 75 814 q 76 897 75 867 q 76 958 76 926 q 76 1021 76 990 q 75 1083 75 1051 q 78 1116 75 1104 q 89 1133 81 1128 q 112 1140 97 1139 q 150 1140 126 1140 q 291 1139 221 1140 q 432 1138 361 1138 q 574 1139 503 1138 q 715 1140 644 1140 q 765 1137 743 1140 q 788 1114 788 1133 q 781 1097 788 1110 q 765 1069 774 1085 q 747 1042 756 1054 q 738 1025 739 1029 q 667 908 708 975 q 576 764 625 840 q 475 606 528 688 q 372 448 422 525 q 276 302 321 371 q 196 181 231 233 q 141 97 161 129 q 121 63 121 65 q 126 51 121 54 q 149 49 132 49 l 651 49 q 682 49 668 49 q 708 54 696 50 q 726 68 719 58 q 735 96 733 78 q 740 164 738 124 q 746 246 743 204 q 751 325 749 288 q 753 383 753 363 q 760 417 753 404 q 779 429 768 429 q 794 422 786 429 q 803 390 803 414 z "},"Ź":{"ha":858,"x_min":31,"x_max":803,"o":"m 500 1319 q 481 1291 500 1308 q 436 1257 461 1274 q 387 1228 411 1240 q 353 1215 363 1215 q 342 1231 342 1215 q 358 1264 342 1243 q 397 1303 375 1285 q 442 1336 419 1322 q 474 1350 464 1350 q 492 1344 485 1350 q 500 1319 500 1339 m 803 390 q 801 366 803 389 q 798 308 800 343 q 794 231 796 272 q 790 152 792 190 q 786 84 788 114 q 785 43 785 54 q 774 6 785 11 q 735 0 763 0 q 574 1 654 0 q 413 1 493 1 q 252 1 332 1 q 92 0 172 0 q 46 5 61 0 q 31 26 31 10 q 31 38 31 33 q 35 49 32 43 q 44 62 39 54 q 60 85 50 69 q 103 149 69 100 q 183 267 136 197 q 285 420 229 336 q 399 590 342 504 q 510 758 456 676 q 606 906 564 840 q 672 1016 647 972 q 697 1068 697 1060 q 696 1079 697 1075 q 688 1086 694 1083 q 669 1090 682 1089 q 631 1090 656 1090 l 186 1090 q 137 1077 146 1090 q 128 1031 128 1064 q 128 997 128 1019 q 127 950 128 975 q 126 901 126 925 q 126 861 126 876 q 121 797 126 810 q 100 785 115 785 q 80 799 85 785 q 75 835 75 814 q 76 897 75 867 q 76 958 76 926 q 76 1021 76 990 q 75 1083 75 1051 q 78 1116 75 1104 q 89 1133 81 1128 q 112 1140 97 1139 q 150 1140 126 1140 q 291 1139 221 1140 q 432 1138 361 1138 q 574 1139 503 1138 q 715 1140 644 1140 q 765 1137 743 1140 q 788 1114 788 1133 q 781 1097 788 1110 q 765 1069 774 1085 q 747 1042 756 1054 q 738 1025 739 1029 q 667 908 708 975 q 576 764 625 840 q 475 606 528 688 q 372 448 422 525 q 276 302 321 371 q 196 181 231 233 q 141 97 161 129 q 121 63 121 65 q 126 51 121 54 q 149 49 132 49 l 651 49 q 682 49 668 49 q 708 54 696 50 q 726 68 719 58 q 735 96 733 78 q 740 164 738 124 q 746 246 743 204 q 751 325 749 288 q 753 383 753 363 q 760 417 753 404 q 779 429 768 429 q 794 422 786 429 q 803 390 803 414 z "},"Ž":{"ha":858,"x_min":31,"x_max":803,"o":"m 583 1350 q 594 1335 594 1350 q 572 1302 594 1322 q 519 1263 549 1282 q 459 1231 489 1244 q 417 1217 429 1217 q 376 1231 404 1217 q 317 1263 347 1244 q 263 1302 286 1282 q 240 1335 240 1322 q 251 1350 240 1350 q 276 1343 258 1350 q 317 1326 294 1336 q 367 1303 340 1315 q 417 1278 393 1290 q 467 1303 440 1290 q 517 1326 493 1315 q 558 1343 540 1336 q 583 1350 576 1350 m 803 390 q 801 366 803 389 q 798 308 800 343 q 794 231 796 272 q 790 152 792 190 q 786 84 788 114 q 785 43 785 54 q 774 6 785 11 q 735 0 763 0 q 574 1 654 0 q 413 1 493 1 q 252 1 332 1 q 92 0 172 0 q 46 5 61 0 q 31 26 31 10 q 31 38 31 33 q 35 49 32 43 q 44 62 39 54 q 60 85 50 69 q 103 149 69 100 q 183 267 136 197 q 285 420 229 336 q 399 590 342 504 q 510 758 456 676 q 606 906 564 840 q 672 1016 647 972 q 697 1068 697 1060 q 696 1079 697 1075 q 688 1086 694 1083 q 669 1090 682 1089 q 631 1090 656 1090 l 186 1090 q 137 1077 146 1090 q 128 1031 128 1064 q 128 997 128 1019 q 127 950 128 975 q 126 901 126 925 q 126 861 126 876 q 121 797 126 810 q 100 785 115 785 q 80 799 85 785 q 75 835 75 814 q 76 897 75 867 q 76 958 76 926 q 76 1021 76 990 q 75 1083 75 1051 q 78 1116 75 1104 q 89 1133 81 1128 q 112 1140 97 1139 q 150 1140 126 1140 q 291 1139 221 1140 q 432 1138 361 1138 q 574 1139 503 1138 q 715 1140 644 1140 q 765 1137 743 1140 q 788 1114 788 1133 q 781 1097 788 1110 q 765 1069 774 1085 q 747 1042 756 1054 q 738 1025 739 1029 q 667 908 708 975 q 576 764 625 840 q 475 606 528 688 q 372 448 422 525 q 276 302 321 371 q 196 181 231 233 q 141 97 161 129 q 121 63 121 65 q 126 51 121 54 q 149 49 132 49 l 651 49 q 682 49 668 49 q 708 54 696 50 q 726 68 719 58 q 735 96 733 78 q 740 164 738 124 q 746 246 743 204 q 751 325 749 288 q 753 383 753 363 q 760 417 753 404 q 779 429 768 429 q 794 422 786 429 q 803 390 803 414 z "}}}
